{"glyphs":{"0":{"ha":876,"x_min":69,"x_max":806,"o":"m 437 1013 q 698 905 589 1013 q 806 644 806 797 l 806 352 q 698 92 806 199 q 437 -16 589 -16 q 177 92 284 -16 q 69 352 69 199 l 69 644 q 177 905 69 797 q 437 1013 284 1013 m 587 352 l 587 644 q 543 750 587 706 q 437 793 498 793 q 332 750 376 793 q 288 644 288 706 l 288 352 q 332 246 288 290 q 437 203 376 203 q 543 246 498 203 q 587 352 587 290 "},"1":{"ha":470,"x_min":7,"x_max":389,"o":"m 223 999 l 389 999 l 389 0 l 176 0 l 176 624 l 7 625 l 223 999 "},"2":{"ha":821,"x_min":66,"x_max":755,"o":"m 66 -3 l 66 166 l 475 621 q 503 690 503 655 q 469 766 503 734 q 386 796 435 796 q 311 765 342 796 q 279 690 279 733 l 279 651 l 66 651 l 66 690 q 160 916 66 822 q 386 1010 254 1010 q 619 916 522 1010 q 716 690 716 822 q 634 479 713 580 q 600 441 618 462 l 397 211 l 755 211 l 755 -3 l 66 -3 "},"3":{"ha":701,"x_min":15,"x_max":661,"o":"m 569 562 q 612 729 612 599 q 528 930 612 847 q 326 1015 444 1015 q 174 970 244 1015 q 68 852 104 926 l 52 818 l 241 726 l 258 761 q 326 804 278 804 q 379 782 357 804 q 401 729 401 760 q 382 679 401 701 q 338 654 363 657 l 271 654 l 271 444 l 340 444 q 418 404 385 439 q 450 319 450 368 q 414 231 450 269 q 326 196 378 196 q 216 261 252 196 l 200 291 l 15 192 l 31 160 q 155 32 76 79 q 326 -14 234 -14 q 562 83 464 -14 q 661 319 661 181 q 569 562 661 502 "},"4":{"ha":775,"x_min":27,"x_max":738,"o":"m 273 392 l 426 392 l 426 606 l 273 392 m 27 181 l 27 360 l 475 999 l 635 999 l 635 393 l 738 393 l 738 181 l 635 181 l 635 0 l 423 0 l 423 181 l 27 181 "},"5":{"ha":797,"x_min":47,"x_max":722,"o":"m 79 504 l 261 448 q 363 489 304 489 q 463 448 422 489 q 506 346 506 406 q 463 244 506 286 q 363 203 422 203 q 237 277 278 203 l 47 175 q 180 37 95 87 q 363 -14 263 -14 q 616 92 511 -14 q 722 346 722 198 q 616 600 722 494 q 363 705 511 705 q 319 703 341 705 l 332 784 l 620 784 l 620 1000 l 144 1000 l 79 504 "},"6":{"ha":869,"x_min":78,"x_max":791,"o":"m 435 203 q 534 244 494 203 q 576 345 576 286 q 534 445 576 404 q 435 487 494 487 q 320 429 363 487 l 307 408 q 292 345 292 377 q 334 244 292 286 q 435 203 376 203 m 417 997 l 668 997 l 485 698 q 703 579 615 680 q 791 345 791 479 q 687 92 791 197 q 435 -12 582 -12 q 182 92 287 -12 q 78 345 78 197 q 94 450 78 399 q 142 548 117 513 l 417 997 "},"7":{"ha":749,"x_min":44,"x_max":722,"o":"m 722 999 l 722 792 l 326 0 l 89 0 l 482 787 l 44 787 l 44 999 l 722 999 "},"8":{"ha":814,"x_min":71,"x_max":743,"o":"m 642 559 q 743 319 743 460 q 644 82 743 180 q 407 -16 547 -16 q 170 82 268 -16 q 71 319 71 180 q 172 559 71 460 q 119 725 119 634 q 203 928 119 844 q 407 1013 288 1013 q 611 928 526 1013 q 694 725 694 844 q 642 559 694 634 m 338 725 q 358 677 338 697 q 405 656 377 657 l 410 656 q 456 677 437 657 q 475 725 475 697 q 456 773 475 753 q 407 793 435 793 q 359 773 379 793 q 338 725 338 753 m 407 203 q 490 237 455 203 q 524 319 524 271 q 490 402 524 367 q 410 437 457 436 q 323 402 357 436 q 290 319 290 367 q 324 237 290 271 q 407 203 359 203 "},"9":{"ha":869,"x_min":78,"x_max":791,"o":"m 435 509 q 549 567 506 509 l 562 589 q 576 651 576 618 q 534 752 576 710 q 435 793 494 793 q 334 752 376 793 q 292 651 292 710 q 334 551 292 592 q 435 509 376 509 m 452 0 l 202 0 l 385 298 q 166 417 254 317 q 78 651 78 517 q 182 903 78 799 q 435 1008 287 1008 q 687 903 582 1008 q 791 651 791 799 q 775 546 791 597 q 727 448 753 488 l 452 0 "},"\u0000":{"ha":163,"x_min":0,"x_max":0,"o":""}," ":{"ha":463,"x_min":0,"x_max":0,"o":""},"!":{"ha":416,"x_min":102,"x_max":314,"o":"m 122 333 l 102 618 l 102 999 l 314 999 l 314 618 l 294 333 l 122 333 m 102 0 l 102 212 l 314 212 l 314 0 l 102 0 "},"\"":{"ha":694,"x_min":81,"x_max":612,"o":"m 102 604 l 81 822 l 81 999 l 294 999 l 294 822 l 273 604 l 102 604 m 420 604 l 400 822 l 400 999 l 612 999 l 612 822 l 592 604 l 420 604 "},"#":{"ha":949,"x_min":68,"x_max":874,"o":"m 406 433 l 526 433 l 551 558 l 432 558 l 406 433 m 300 961 l 517 961 l 477 770 l 596 770 l 637 961 l 854 961 l 813 770 l 874 770 l 874 558 l 768 558 l 742 433 l 874 433 l 874 221 l 697 221 l 657 31 l 441 31 l 481 221 l 361 221 l 321 31 l 104 31 l 144 221 l 68 221 l 68 433 l 189 433 l 215 558 l 68 558 l 68 770 l 260 770 l 300 961 "},"$":{"ha":768,"x_min":81,"x_max":687,"o":"m 385 787 q 320 761 347 787 q 294 697 294 734 q 312 646 294 660 q 414 604 332 629 q 589 525 534 569 q 687 305 687 448 q 632 132 687 210 q 490 22 578 55 l 490 -87 l 278 -87 l 278 22 q 137 132 191 55 q 81 305 81 210 l 294 305 q 320 242 294 269 q 384 216 347 216 l 385 216 q 448 242 422 216 q 475 305 475 269 q 456 359 475 345 q 353 401 436 376 q 179 480 235 437 q 81 697 81 557 q 137 871 81 793 q 278 981 191 948 l 278 1090 l 490 1090 l 490 981 q 632 871 578 948 q 687 697 687 793 l 475 697 q 448 761 475 734 q 385 787 422 787 "},"%":{"ha":1005,"x_min":81,"x_max":924,"o":"m 169 59 l 646 1036 l 836 943 l 359 -34 l 169 59 m 460 776 q 405 642 460 697 q 271 586 349 586 q 137 642 193 586 q 81 776 81 697 q 137 909 81 854 q 271 965 193 965 q 405 909 349 965 q 460 776 460 854 m 226 776 q 239 744 226 757 q 271 731 252 731 q 302 744 290 731 q 316 776 316 757 q 302 808 316 794 q 271 821 290 821 q 239 808 252 821 q 226 776 226 794 m 734 416 q 868 360 812 416 q 924 226 924 304 q 868 92 924 148 q 734 37 812 37 q 600 92 656 37 q 545 226 545 148 q 600 360 545 304 q 734 416 656 416 m 734 181 q 766 194 753 181 q 779 226 779 208 q 766 258 779 244 q 734 271 753 271 q 703 258 715 271 q 689 226 689 244 q 703 194 689 208 q 734 181 715 181 "},"&":{"ha":853,"x_min":18,"x_max":834,"o":"m 730 243 q 834 203 762 204 l 834 -15 q 593 73 673 -15 q 363 -15 486 -15 q 334 -14 348 -15 q 144 72 226 -5 q 47 254 64 147 q 195 578 18 446 q 135 790 121 689 q 220 949 147 888 q 395 1014 293 1013 q 577 950 502 1014 q 667 795 653 890 q 595 567 686 662 q 514 503 562 532 q 574 420 547 457 q 616 532 598 464 l 823 462 l 807 416 q 730 243 774 319 m 353 203 q 442 233 396 199 q 320 399 390 299 q 264 287 254 345 q 294 231 269 254 q 353 203 320 206 m 437 718 q 451 764 455 736 q 397 793 446 793 q 351 762 355 793 q 389 682 349 741 q 437 718 420 701 "},"'":{"ha":416,"x_min":102,"x_max":314,"o":"m 122 604 l 102 822 l 102 999 l 314 999 l 314 822 l 294 604 l 122 604 "},"(":{"ha":418,"x_min":27,"x_max":391,"o":"m 391 -241 l 391 -44 q 255 142 301 39 q 205 384 205 264 q 255 625 205 503 q 391 812 301 729 l 391 1009 l 288 935 q 96 699 166 848 q 27 384 27 551 q 96 69 27 216 q 288 -167 166 -80 l 391 -241 "},")":{"ha":418,"x_min":27,"x_max":391,"o":"m 27 -44 l 27 -241 l 131 -167 q 322 69 252 -80 q 391 384 391 216 q 322 699 391 551 q 131 935 252 848 l 27 1009 l 27 812 q 163 625 117 729 q 213 384 213 503 q 163 142 213 264 q 27 -44 117 39 "},"*":{"ha":616,"x_min":75,"x_max":542,"o":"m 397 991 l 489 932 l 414 806 l 542 806 l 542 697 l 414 697 l 488 571 l 397 513 l 308 644 l 219 513 l 128 572 l 202 698 l 75 698 l 75 806 l 203 806 l 129 932 l 220 991 l 309 859 l 397 991 "},"+":{"ha":934,"x_min":81,"x_max":852,"o":"m 573 771 l 573 492 l 852 492 l 852 279 l 573 279 l 573 0 l 361 0 l 361 279 l 81 279 l 81 492 l 361 492 l 361 771 l 573 771 "},",":{"ha":375,"x_min":81,"x_max":294,"o":"m 111 -183 l 165 0 l 81 0 l 81 212 l 294 212 l 294 15 l 219 -183 l 111 -183 "},"-":{"ha":730,"x_min":81,"x_max":649,"o":"m 81 315 l 81 528 l 649 528 l 649 315 l 81 315 "},".":{"ha":1345,"x_min":68,"x_max":1277,"o":"m 1277 1260 l 68 1260 l 68 -285 l 1277 -285 l 1277 1260 m 119 1222 l 1232 1222 l 1232 -248 l 119 -248 l 119 1222 m 182 1017 q 145 980 155 1017 l 145 912 q 182 875 154 875 l 203 875 q 210 874 210 875 q 239 836 232 874 l 239 833 q 230 808 239 823 q 212 794 220 794 l 191 794 q 176 802 185 794 q 161 843 161 820 l 145 843 l 145 798 q 191 747 159 747 l 210 747 q 223 749 215 747 q 260 833 260 769 q 256 875 260 857 q 213 921 239 921 l 191 921 q 177 923 177 921 q 163 947 168 923 q 180 970 169 970 l 210 970 q 229 942 224 970 l 229 941 l 250 941 l 250 944 q 248 973 250 954 q 209 1017 237 1017 l 182 1017 m 292 1017 l 292 946 l 275 946 l 275 899 l 292 899 l 292 744 q 292 728 292 733 q 334 671 302 671 l 339 671 l 339 717 q 330 718 334 717 q 312 761 312 728 l 312 899 l 331 899 l 331 946 l 312 946 l 312 1017 l 292 1017 m 548 1017 l 548 939 q 528 946 540 946 l 507 946 l 499 945 q 471 894 471 927 l 471 802 q 509 747 476 747 l 532 747 q 548 753 538 747 l 548 747 l 567 747 l 567 1017 l 548 1017 m 593 1017 l 593 970 l 614 970 l 614 1017 l 593 1017 m 748 1017 l 748 970 l 802 970 l 802 747 l 823 747 l 823 970 l 878 970 l 878 1017 l 748 1017 m 685 947 q 667 945 675 947 q 638 891 638 928 l 638 803 q 677 747 645 747 l 700 747 q 708 749 704 747 q 736 810 736 763 l 736 885 q 724 929 736 915 q 690 947 717 947 l 685 947 m 1147 947 q 1128 945 1137 947 q 1101 891 1101 928 l 1101 802 q 1139 747 1107 747 l 1162 747 q 1194 781 1184 747 l 1194 913 q 1186 929 1194 922 q 1152 947 1179 947 l 1147 947 m 353 946 l 353 794 q 391 747 362 747 l 414 747 q 430 753 421 747 l 430 747 l 451 747 l 451 946 l 430 946 l 430 826 q 413 794 428 794 l 391 794 q 374 821 374 799 l 374 946 l 353 946 m 593 946 l 593 747 l 614 747 l 614 946 l 593 946 m 866 946 l 866 821 q 876 764 866 778 q 913 745 884 745 l 917 745 q 944 752 937 745 l 944 747 q 920 718 944 718 l 866 718 l 866 671 l 930 671 q 965 734 964 679 l 965 946 l 944 946 l 944 820 q 922 793 941 793 l 908 793 q 886 828 886 793 l 886 946 l 866 946 m 985 946 l 985 676 l 1004 676 l 1004 755 q 1027 749 1013 749 l 1040 749 q 1056 752 1050 749 q 1081 816 1081 766 l 1081 889 q 1042 946 1076 946 l 1021 946 q 1004 941 1013 946 l 1004 946 l 985 946 m 659 872 q 664 891 659 883 q 680 899 669 899 l 692 899 q 716 871 716 899 l 716 823 q 699 794 716 799 l 676 794 q 659 821 659 800 l 659 872 m 1004 821 l 1004 876 q 1025 899 1008 899 l 1042 899 q 1060 872 1058 899 l 1060 823 q 1059 810 1060 819 q 1037 795 1053 795 l 1025 795 q 1004 821 1004 798 m 1120 872 q 1126 891 1120 883 q 1141 899 1131 899 l 1155 899 q 1178 871 1178 899 l 1178 823 q 1161 794 1178 799 l 1139 794 q 1120 821 1120 800 l 1120 872 m 490 873 q 509 899 490 894 l 529 899 l 534 897 q 548 861 548 890 l 548 829 q 531 794 547 794 l 509 794 q 490 820 494 794 l 490 873 m 379 725 l 379 671 l 386 671 l 386 693 q 389 701 386 701 l 391 701 q 394 695 394 701 l 394 671 l 401 671 l 401 698 q 391 711 401 711 l 386 711 l 386 725 l 379 725 m 669 725 l 669 671 l 677 671 l 677 698 l 680 701 l 684 701 l 684 671 l 692 671 l 692 692 q 682 711 692 711 l 677 711 l 677 725 l 669 725 m 796 725 l 796 711 l 793 711 l 793 701 l 796 701 l 796 685 q 808 671 799 671 l 810 671 l 810 681 q 804 688 804 681 l 804 701 l 808 701 l 808 711 l 804 711 l 804 725 l 796 725 m 359 711 q 353 700 353 707 l 353 681 q 364 671 353 671 q 374 680 373 671 l 374 683 l 367 685 q 364 681 367 681 l 361 681 l 361 686 l 361 698 q 363 701 362 701 l 364 701 q 367 697 367 701 l 374 700 l 374 703 q 369 711 372 711 l 359 711 m 413 711 q 407 701 407 708 l 407 682 q 416 671 407 672 q 429 690 429 671 q 419 711 429 711 l 413 711 m 440 711 q 433 695 433 708 l 433 687 q 444 671 433 671 q 456 681 456 671 l 456 700 q 450 711 456 707 l 440 711 m 466 711 q 460 701 460 709 l 460 696 q 466 688 460 689 l 466 688 l 460 688 l 460 682 q 471 671 460 672 q 481 684 479 671 q 477 696 481 690 l 479 696 q 476 711 479 707 l 466 711 m 490 711 q 484 692 484 707 l 484 692 q 495 671 484 671 q 507 682 507 671 l 507 686 l 499 686 l 498 681 l 495 681 q 493 683 493 681 l 493 688 l 507 688 l 507 701 q 500 711 507 707 l 490 711 m 526 711 l 526 688 q 531 673 526 677 l 528 673 q 533 656 528 656 l 543 656 q 549 668 549 659 l 549 711 l 542 711 l 542 686 l 540 681 l 534 681 l 534 690 l 534 711 l 526 711 m 561 711 q 554 700 554 707 l 554 681 q 566 671 554 671 q 577 687 577 671 l 577 695 q 570 711 577 708 l 561 711 m 581 711 l 581 690 q 594 671 581 671 l 604 671 l 604 711 l 597 711 l 597 686 l 595 681 l 592 681 q 590 683 591 681 l 590 711 l 581 711 m 609 711 l 609 671 l 616 671 l 616 695 q 625 701 616 701 l 625 711 l 609 711 m 649 711 q 642 692 642 707 l 642 692 q 653 671 642 671 q 665 680 665 671 q 660 685 665 683 l 658 685 l 657 681 l 653 681 q 652 683 652 681 l 652 700 q 653 701 652 701 l 654 701 q 658 697 658 701 q 665 701 662 697 q 659 711 665 708 l 649 711 m 702 711 q 696 701 696 709 l 696 696 l 700 696 l 700 695 q 696 684 696 691 q 704 669 696 673 l 707 669 q 713 671 709 669 q 715 669 713 669 l 718 669 l 719 676 q 718 684 719 677 l 718 692 q 711 711 718 711 l 702 711 m 722 711 l 722 671 l 730 671 l 730 694 q 737 701 730 701 l 737 711 l 722 711 m 747 711 q 742 701 744 711 l 742 696 l 746 696 q 742 687 742 692 l 742 681 q 751 669 743 669 q 758 671 755 669 q 759 669 759 671 l 762 669 q 766 678 763 669 q 762 684 762 680 l 762 697 q 757 711 762 709 l 747 711 m 774 711 q 768 692 768 707 q 779 671 768 671 q 790 680 790 671 q 785 685 790 683 l 783 685 q 781 681 783 681 l 779 681 q 777 683 777 681 l 777 700 q 779 701 777 701 l 779 701 q 783 697 783 701 q 790 701 786 697 q 784 711 790 708 l 774 711 m 821 711 q 814 701 814 708 l 814 682 q 823 671 814 672 q 837 686 837 671 l 828 686 q 826 681 828 681 l 823 681 q 822 683 822 681 l 822 688 l 836 688 l 836 701 q 827 711 836 711 l 821 711 m 841 711 l 841 671 l 848 671 l 848 694 q 856 701 848 701 l 856 711 l 841 711 m 416 701 l 421 701 l 421 683 q 418 681 421 681 l 416 681 q 414 683 415 681 l 414 698 l 416 701 m 441 693 q 444 701 441 701 l 446 701 q 449 698 449 700 l 449 686 l 448 681 l 444 681 q 441 688 441 682 l 441 693 m 468 701 l 471 701 l 471 698 l 468 698 l 468 701 m 493 700 q 495 701 493 701 l 496 701 q 498 700 498 701 l 493 700 m 562 698 q 565 701 564 701 l 566 701 q 570 693 570 701 l 570 688 q 566 681 570 682 l 563 681 l 562 686 l 562 698 m 704 700 q 707 701 704 701 l 708 701 l 708 697 l 704 697 l 704 700 m 749 700 q 751 701 749 701 l 753 701 l 753 697 l 749 697 l 749 700 m 823 701 l 828 701 l 828 700 l 823 700 l 823 701 m 468 688 l 473 688 q 473 684 473 686 q 473 681 473 684 l 471 681 q 468 683 468 681 l 468 688 m 704 686 q 707 688 704 688 l 708 688 l 708 682 q 707 680 708 680 q 704 682 704 680 l 704 686 m 749 686 q 751 688 749 688 l 755 688 q 751 680 755 681 l 751 680 l 749 685 l 749 686 m 534 671 l 542 671 l 542 669 q 538 666 539 666 l 537 666 q 534 668 536 666 l 534 671 m 644 445 l 644 439 l 644 437 q 646 322 644 382 l 652 322 l 659 323 q 657 429 659 370 l 657 444 l 646 445 l 644 445 m 1112 445 q 1111 430 1112 439 q 1114 322 1112 370 l 1117 322 l 1128 323 q 1125 433 1125 387 q 1126 444 1125 437 l 1114 445 l 1112 445 m 705 440 q 698 404 698 425 l 698 395 q 699 376 698 380 q 724 325 705 325 l 728 325 q 753 349 743 325 l 754 349 q 774 322 761 322 l 781 322 q 779 338 781 325 q 767 364 767 338 q 774 437 767 388 q 761 439 772 437 l 760 439 q 726 342 747 342 l 726 342 q 711 391 711 354 l 711 406 q 715 431 711 416 q 709 440 709 439 l 705 440 m 990 440 q 981 439 988 440 q 943 366 943 407 l 943 358 q 977 322 947 322 l 983 322 q 996 324 989 322 q 1034 372 1034 342 l 1034 380 q 1022 418 1034 399 q 996 440 1006 440 l 990 440 m 197 437 q 151 417 168 437 q 156 408 151 414 q 162 374 161 408 l 162 373 l 157 374 q 152 358 152 367 l 157 357 l 162 357 l 162 328 q 175 326 170 326 l 176 326 l 176 357 q 201 363 190 359 q 232 404 232 376 q 206 437 232 433 l 197 437 m 957 366 q 960 383 957 373 q 992 425 977 425 q 996 423 992 423 q 1019 379 1019 401 l 1019 376 q 1015 361 1019 368 q 981 338 1001 338 q 957 359 957 340 l 957 366 m 174 415 q 199 420 174 418 l 204 420 q 218 403 218 418 q 211 388 218 396 q 176 374 203 379 q 175 376 176 376 q 174 415 175 385 m 343 418 q 316 382 326 418 l 315 382 q 313 397 313 394 l 313 398 q 299 396 310 398 q 311 323 299 381 q 325 325 315 323 q 323 337 325 326 q 343 400 327 393 q 355 372 349 400 q 369 376 368 376 q 343 418 361 418 m 468 412 q 457 410 459 411 q 433 355 433 397 q 459 323 433 327 q 468 324 463 323 q 500 368 500 338 l 500 371 q 498 385 500 378 q 468 412 486 412 m 540 412 q 519 378 526 412 l 519 378 q 517 395 519 380 q 503 393 509 395 q 505 374 503 385 q 513 326 507 326 l 519 326 q 524 334 524 334 q 541 393 533 382 q 563 326 549 378 q 574 332 567 326 q 574 337 574 337 q 540 412 557 412 m 1076 412 q 1053 376 1059 412 l 1052 376 q 1050 395 1052 379 q 1037 393 1043 395 q 1046 326 1040 326 l 1052 326 q 1056 331 1053 326 q 1073 393 1067 383 q 1096 326 1082 381 q 1109 332 1099 326 q 1076 412 1090 412 m 407 411 q 372 386 372 411 l 372 383 q 398 364 372 364 q 418 352 414 364 q 404 338 418 342 q 378 351 389 338 l 377 351 q 369 342 370 345 l 369 340 q 401 322 378 322 l 406 322 l 413 323 q 431 352 431 331 q 413 380 431 371 q 386 386 386 381 q 401 395 389 395 q 413 389 409 395 l 414 389 q 424 395 424 394 l 424 396 q 407 411 424 406 m 819 411 q 784 386 784 411 q 787 374 784 383 q 814 364 791 364 q 830 352 830 361 q 817 338 830 342 q 791 351 802 338 l 789 351 q 781 342 788 351 l 781 340 q 814 322 792 322 l 821 322 q 844 351 844 328 q 825 380 844 372 q 798 386 798 381 l 798 387 q 814 395 803 395 q 825 389 825 394 q 838 395 827 389 l 838 395 q 819 411 831 411 m 1135 410 q 1133 386 1133 394 l 1133 371 q 1158 332 1139 332 l 1158 332 q 1182 352 1175 332 l 1183 352 q 1185 334 1185 338 q 1163 299 1185 299 l 1160 299 q 1152 306 1152 300 l 1153 315 q 1142 319 1150 315 l 1141 319 q 1138 307 1138 319 l 1138 306 q 1139 298 1138 302 q 1160 282 1144 282 l 1165 282 q 1171 283 1168 282 q 1198 329 1198 291 q 1192 403 1198 337 l 1192 406 l 1177 406 l 1177 405 q 1160 349 1177 360 l 1160 349 q 1147 379 1149 349 l 1147 387 q 1149 408 1147 393 q 1136 410 1147 408 l 1135 410 m 274 408 l 263 408 q 234 363 234 397 q 262 326 238 326 l 269 326 q 296 345 281 326 q 289 357 296 347 l 285 357 q 266 342 276 342 q 250 355 250 346 l 259 355 q 296 385 296 368 l 296 391 q 274 408 296 406 m 602 408 q 581 397 592 408 l 581 395 q 589 387 587 387 l 591 387 q 608 395 600 395 q 624 374 621 395 l 624 372 q 606 378 616 377 q 575 349 575 373 l 575 342 q 596 324 575 327 l 602 324 q 624 331 613 324 l 627 322 l 627 322 q 640 328 631 322 q 637 342 637 342 q 638 371 637 354 q 612 408 638 401 l 602 408 m 886 408 l 875 408 q 846 363 846 396 q 874 326 851 326 l 880 326 q 889 328 885 326 q 908 347 908 339 q 900 357 901 357 l 899 357 q 877 342 886 342 q 863 354 869 342 l 863 355 l 869 355 q 908 390 908 366 q 886 408 908 405 m 448 356 q 448 368 448 362 q 465 395 453 395 l 467 395 q 486 372 480 395 l 486 370 q 462 340 485 347 l 459 340 q 448 356 449 340 m 250 372 l 250 376 q 272 391 257 391 q 281 390 274 391 l 281 388 q 250 372 268 372 m 863 372 l 863 373 q 884 391 868 391 l 886 391 q 895 389 889 391 q 865 372 881 372 l 863 372 m 589 347 q 605 359 589 357 q 622 354 615 359 q 599 339 615 339 q 589 345 589 342 l 589 347 m 544 237 l 541 237 q 526 214 528 237 q 528 170 526 187 q 519 168 524 168 l 519 154 q 528 155 524 154 l 530 155 q 534 101 530 146 l 544 101 q 539 159 544 111 l 549 161 l 549 174 l 547 174 q 538 172 542 174 q 536 205 536 195 q 535 208 536 206 q 542 223 536 223 q 550 206 547 223 l 552 206 l 557 207 l 557 210 q 544 237 555 237 m 729 237 q 711 213 711 237 q 714 169 711 208 l 704 168 l 704 154 q 715 155 707 154 q 718 101 718 106 l 729 101 q 726 157 726 146 l 724 159 q 734 161 734 161 l 734 167 l 734 174 l 733 174 q 724 172 728 174 q 723 173 724 173 q 721 211 721 205 q 728 223 721 220 q 734 207 734 219 l 734 206 l 736 206 l 744 207 q 729 237 740 237 m 629 224 l 629 191 q 630 106 629 160 l 641 106 q 638 216 638 165 l 638 223 l 633 224 l 629 224 m 654 224 q 651 222 651 224 l 651 219 q 654 106 651 161 l 665 106 q 662 198 662 172 l 662 223 l 654 224 l 654 224 m 460 221 q 457 198 457 221 l 457 184 l 455 184 l 444 182 l 444 169 l 457 169 q 462 106 459 130 l 469 106 l 471 108 l 468 170 q 481 172 479 172 l 480 186 l 469 184 l 467 184 q 469 219 467 195 q 460 221 467 219 m 897 221 q 895 184 895 201 l 895 184 l 893 184 l 882 182 l 882 176 l 882 169 l 896 169 q 899 106 896 158 l 904 106 l 909 108 l 905 170 l 916 172 l 918 172 l 918 186 l 907 184 l 905 184 l 905 195 q 907 219 905 209 q 897 221 899 221 m 1034 221 l 1031 184 l 1030 184 l 1019 182 l 1019 169 l 1032 169 l 1036 106 l 1044 106 l 1046 108 q 1043 165 1043 153 l 1042 170 q 1056 172 1055 172 l 1055 179 l 1055 186 l 1044 184 l 1042 184 l 1042 191 q 1044 219 1042 205 q 1034 221 1036 221 m 343 218 l 336 217 q 294 151 294 199 l 294 147 q 334 105 299 105 l 336 105 q 363 115 358 108 q 369 96 365 96 l 370 96 q 377 100 376 100 q 373 122 373 113 q 376 146 373 125 q 374 154 376 149 q 343 161 369 161 l 343 147 l 352 147 q 363 145 359 147 l 363 137 q 334 119 363 122 q 327 120 328 119 q 304 150 304 125 l 304 154 q 313 182 304 166 q 345 205 330 205 q 366 192 356 205 l 368 192 q 373 199 368 194 q 352 218 365 218 l 343 218 m 776 191 q 764 187 770 191 q 745 140 745 174 l 745 137 q 747 122 745 131 q 770 106 754 106 l 776 106 q 808 148 808 119 l 808 159 q 776 191 798 191 m 848 191 q 825 146 835 191 l 825 146 q 822 174 825 161 l 820 174 l 813 173 q 821 109 815 109 l 825 109 l 827 110 q 848 176 842 170 q 871 110 857 165 q 880 113 875 110 l 880 113 q 848 191 863 191 m 420 189 q 407 186 411 189 q 382 148 382 176 l 382 135 q 408 109 389 109 l 413 109 q 440 127 427 109 l 440 127 q 435 135 435 134 l 432 135 q 410 122 420 122 l 410 122 q 393 137 393 127 l 393 138 q 408 140 403 138 q 440 170 440 151 q 439 172 440 172 q 420 189 439 185 m 979 189 q 962 178 972 189 l 962 176 q 968 170 966 170 l 968 170 q 985 177 979 177 l 987 177 q 1004 152 1004 174 l 1004 150 q 985 157 996 157 q 956 130 959 157 l 956 123 q 975 106 956 109 l 979 106 q 1003 115 994 106 l 1006 106 l 1008 106 l 1014 109 q 1013 128 1014 124 q 1015 150 1014 145 q 1013 165 1014 151 q 990 189 1005 189 l 979 189 m 558 186 l 560 180 l 560 172 q 579 109 560 109 l 588 109 q 606 133 602 120 l 607 133 q 615 111 608 115 l 616 111 q 621 121 616 115 q 616 137 616 129 l 616 146 q 619 184 616 164 q 610 186 612 186 l 610 186 q 608 178 610 182 q 583 122 600 132 q 569 184 569 122 q 558 186 561 186 m 754 140 q 774 177 759 177 l 777 177 q 798 151 792 177 q 795 142 798 149 q 770 120 784 120 l 769 120 q 754 140 756 120 m 393 151 q 416 174 398 174 l 418 174 q 429 169 427 174 q 393 151 414 151 m 966 127 q 984 142 966 140 l 986 142 q 1002 135 994 142 q 982 120 995 120 l 975 120 q 966 127 968 120 m 439 28 q 437 -25 437 -19 l 437 -26 q 409 -13 423 -13 l 406 -13 q 373 -62 373 -21 q 376 -85 373 -75 q 420 -120 389 -120 q 441 -107 441 -114 l 442 -107 q 448 -118 446 -118 l 448 -118 q 460 -109 450 -118 q 451 -52 451 -80 q 455 26 452 -7 q 439 28 441 28 m 260 24 q 256 -15 256 24 l 256 -22 l 241 -22 l 241 -43 l 255 -43 l 256 -44 q 261 -118 256 -66 l 261 -119 q 277 -117 266 -119 q 272 -41 275 -94 q 287 -40 278 -41 l 288 -40 q 287 -20 288 -37 q 272 -22 284 -20 l 272 -11 q 274 20 272 1 l 260 24 m 596 24 q 593 -22 593 7 l 578 -22 l 578 -43 l 594 -43 q 599 -118 594 -55 l 599 -119 q 615 -117 602 -119 q 610 -42 610 -60 q 625 -40 610 -41 l 625 -31 l 624 -20 q 610 -22 622 -20 l 610 -18 q 611 20 610 -4 l 597 24 l 596 24 m 476 22 q 465 9 466 22 q 473 -5 465 0 l 479 -5 q 486 9 486 0 l 486 9 q 476 22 485 22 m 534 -13 q 523 -15 532 -13 q 495 -73 495 -30 l 495 -84 q 525 -119 499 -119 q 536 -117 533 -119 q 574 -66 574 -100 l 574 -59 q 572 -45 574 -54 q 534 -13 557 -13 m 714 -13 q 718 -156 714 -46 l 734 -156 q 734 -123 734 -127 l 733 -116 l 743 -116 l 750 -115 q 779 -62 776 -105 q 778 -50 778 -59 q 747 -13 770 -13 q 729 -17 738 -13 l 729 -16 q 718 -13 729 -13 l 714 -13 m 822 -13 q 810 -15 821 -13 q 783 -77 783 -31 q 784 -96 783 -86 q 814 -119 793 -119 q 827 -117 819 -119 q 863 -62 863 -98 q 859 -43 863 -53 q 822 -13 844 -13 m 1012 -13 q 1001 -15 1010 -13 q 973 -73 973 -30 l 973 -84 q 1003 -119 977 -119 q 1015 -117 1011 -119 q 1052 -64 1052 -101 l 1052 -58 q 1048 -43 1052 -49 q 1012 -13 1034 -13 m 1099 -13 q 1077 -49 1085 -13 l 1076 -49 q 1072 -23 1073 -30 q 1056 -28 1067 -23 l 1067 -115 l 1067 -116 q 1083 -113 1074 -116 q 1098 -35 1083 -83 q 1116 -98 1103 -35 q 1126 -111 1119 -111 q 1136 -102 1133 -111 q 1151 -34 1142 -52 q 1175 -116 1158 -34 l 1176 -116 q 1188 -112 1177 -116 l 1190 -112 q 1152 -13 1175 -13 l 1151 -13 q 1126 -62 1133 -13 l 1125 -62 q 1099 -13 1116 -13 m 205 -14 q 167 -43 167 -14 l 167 -49 q 170 -59 167 -52 q 200 -68 174 -68 q 220 -84 220 -72 q 203 -100 220 -100 q 175 -86 182 -100 l 172 -86 q 162 -99 162 -95 q 199 -120 177 -120 l 207 -120 q 216 -118 212 -120 q 236 -86 236 -109 l 236 -82 q 212 -50 236 -60 q 182 -45 182 -50 l 182 -42 q 201 -33 189 -33 l 201 -33 q 214 -40 214 -34 l 217 -40 q 228 -32 227 -34 l 228 -31 q 205 -14 228 -18 m 633 -15 q 629 -43 629 -15 l 629 -50 q 630 -66 629 -60 q 659 -109 637 -109 l 661 -109 q 688 -83 678 -109 l 689 -83 l 690 -94 l 690 -111 q 689 -121 690 -118 q 665 -149 684 -149 l 662 -149 q 651 -140 651 -147 l 651 -137 l 652 -130 l 640 -125 q 635 -137 635 -125 l 635 -145 q 637 -153 635 -149 q 665 -169 644 -169 q 679 -165 671 -169 q 706 -115 706 -152 l 706 -107 q 699 -20 706 -95 l 699 -20 l 682 -20 l 682 -28 q 662 -88 682 -73 l 657 -88 q 646 -52 646 -79 l 646 -47 q 646 -18 646 -37 q 633 -15 644 -18 m 933 -16 q 916 -25 926 -16 q 898 -79 898 -51 q 924 -118 903 -118 q 968 -102 945 -118 q 963 -84 968 -100 l 962 -84 q 930 -98 940 -98 l 926 -98 q 913 -77 913 -96 l 918 -60 q 935 -37 924 -41 l 937 -37 q 953 -49 943 -37 l 954 -49 q 964 -38 955 -49 q 955 -23 964 -33 q 940 -16 946 -16 l 933 -16 m 468 -17 q 469 -109 468 -52 l 470 -116 l 487 -116 q 484 -24 484 -81 q 484 -18 484 -20 l 479 -17 l 468 -17 m 292 -18 l 292 -38 q 319 -116 292 -116 l 322 -116 q 349 -92 338 -116 l 349 -92 q 360 -113 349 -102 l 361 -113 q 370 -98 370 -102 q 365 -81 365 -89 l 365 -73 q 368 -23 365 -58 q 354 -18 368 -20 l 353 -18 q 347 -50 351 -41 q 323 -96 340 -80 l 319 -96 q 309 -40 309 -96 l 309 -23 q 292 -18 309 -22 m 389 -64 l 389 -62 q 408 -33 392 -33 l 410 -33 l 415 -34 q 435 -75 435 -44 l 435 -77 q 420 -98 432 -98 l 418 -98 q 389 -64 389 -93 m 510 -77 q 534 -33 513 -33 l 535 -33 q 557 -59 551 -33 l 557 -66 q 555 -75 557 -71 q 528 -98 543 -98 l 524 -98 q 510 -77 510 -96 m 729 -40 q 745 -33 737 -33 l 747 -33 q 764 -62 760 -33 q 739 -96 759 -96 l 732 -96 q 729 -40 729 -43 m 798 -77 q 820 -33 802 -33 q 846 -62 841 -33 q 843 -77 846 -71 q 814 -98 830 -98 l 813 -98 q 798 -81 798 -96 l 798 -77 m 988 -77 q 1011 -33 992 -33 l 1013 -33 q 1036 -59 1029 -33 l 1036 -64 q 1034 -74 1036 -68 q 1006 -98 1021 -98 l 1004 -98 q 988 -77 988 -98 m 880 -90 q 869 -103 871 -90 q 880 -116 871 -116 q 891 -106 889 -116 l 891 -100 q 880 -90 889 -90 "},"/":{"ha":565,"x_min":7,"x_max":558,"o":"m 341 1004 l 558 1004 l 224 -18 l 7 -18 l 341 1004 "},":":{"ha":375,"x_min":81,"x_max":294,"o":"m 81 0 l 81 212 l 294 212 l 294 0 l 81 0 m 81 557 l 81 770 l 294 770 l 294 557 l 81 557 "},";":{"ha":375,"x_min":81,"x_max":294,"o":"m 111 -183 l 165 0 l 81 0 l 81 212 l 294 212 l 294 15 l 219 -183 l 111 -183 m 81 557 l 81 770 l 294 770 l 294 557 l 81 557 "},"<":{"ha":663,"x_min":81,"x_max":582,"o":"m 582 294 l 582 61 l 81 290 l 81 484 l 582 712 l 582 479 l 380 387 l 582 294 "},"=":{"ha":730,"x_min":81,"x_max":649,"o":"m 81 139 l 81 351 l 649 351 l 649 139 l 81 139 m 81 492 l 81 704 l 649 704 l 649 492 l 81 492 "},">":{"ha":663,"x_min":81,"x_max":582,"o":"m 81 61 l 81 294 l 283 387 l 81 479 l 81 712 l 582 484 l 582 290 l 81 61 "},"?":{"ha":832,"x_min":81,"x_max":751,"o":"m 416 1005 q 652 909 554 1005 q 751 677 751 813 q 702 507 751 585 q 570 387 653 429 l 568 387 q 500 279 500 353 l 288 279 q 338 451 288 372 q 473 572 387 529 q 538 677 538 606 q 503 762 538 727 q 416 798 467 798 q 330 762 366 798 q 294 677 294 727 l 294 574 l 81 574 l 81 677 q 180 909 81 813 q 416 1005 277 1005 m 288 0 l 288 212 l 500 212 l 500 0 l 288 0 "},"@":{"ha":1425,"x_min":75,"x_max":1350,"o":"m 665 144 q 827 218 756 144 q 911 397 899 292 l 912 412 q 850 604 920 529 q 715 664 795 664 q 549 587 622 664 q 469 399 477 509 q 530 204 459 281 q 665 144 585 144 m 1264 118 l 1350 52 q 699 -220 1141 -220 q 258 -37 441 -220 q 75 404 75 146 q 258 845 75 662 q 699 1028 441 1028 q 1144 849 966 1028 q 1323 404 1323 671 q 1272 212 1323 304 q 1137 69 1221 119 q 1050 44 1095 44 q 966 68 1004 43 q 906 144 924 96 q 665 35 802 35 q 450 130 538 35 q 360 408 347 241 q 476 666 372 559 q 715 772 580 772 q 930 677 842 772 q 935 672 929 679 l 939 723 l 1048 713 l 1004 217 q 1026 159 999 177 q 1082 163 1050 144 q 1177 265 1139 197 q 1214 404 1214 334 q 1067 772 1214 624 q 699 919 919 919 q 334 768 486 919 q 183 404 183 617 q 334 39 183 191 q 699 -112 486 -112 q 1036 -56 898 -112 q 1264 118 1174 1 "},"A":{"ha":860,"x_min":1,"x_max":859,"o":"m 334 366 l 528 366 l 430 644 l 334 366 m 356 999 l 504 999 l 859 0 l 643 0 l 585 186 l 276 186 l 217 0 l 1 0 l 356 999 "},"B":{"ha":769,"x_min":81,"x_max":752,"o":"m 621 553 q 752 322 752 472 q 658 95 752 189 q 431 1 564 1 l 81 1 l 81 999 l 422 999 q 623 916 539 999 q 705 715 705 833 q 621 553 705 626 m 294 787 l 294 617 l 422 617 q 472 638 451 617 q 493 702 493 659 q 472 765 493 744 q 422 787 451 787 l 294 787 m 294 213 l 431 213 q 508 245 476 213 q 540 336 540 277 q 508 427 540 395 q 431 458 476 458 l 294 458 l 294 213 "},"C":{"ha":958,"x_min":59,"x_max":960,"o":"m 788 323 l 959 191 q 796 50 893 102 q 560 -10 686 -10 q 206 140 353 -10 q 59 499 59 289 q 206 859 59 710 q 560 1009 353 1009 q 796 949 686 1009 q 960 808 894 896 l 788 675 q 560 791 705 791 q 359 706 443 791 q 276 499 276 620 q 359 292 276 378 q 560 207 443 207 q 788 323 704 207 "},"D":{"ha":935,"x_min":81,"x_max":884,"o":"m 81 999 l 385 999 q 737 852 591 999 q 884 499 884 706 q 737 146 884 293 q 385 0 591 0 l 81 0 l 81 999 m 294 212 l 385 212 q 587 296 503 212 q 671 499 671 380 q 587 702 671 618 q 385 786 503 786 l 294 786 l 294 212 "},"E":{"ha":755,"x_min":81,"x_max":721,"o":"m 81 0 l 81 999 l 721 999 l 721 787 l 294 787 l 294 607 l 721 607 l 721 395 l 294 395 l 294 212 l 721 212 l 721 0 l 81 0 "},"F":{"ha":755,"x_min":81,"x_max":721,"o":"m 81 0 l 81 999 l 721 999 l 721 787 l 294 787 l 294 607 l 721 607 l 721 395 l 294 395 l 294 0 l 81 0 "},"G":{"ha":1103,"x_min":58,"x_max":1062,"o":"m 559 391 l 559 608 l 1062 608 l 1062 499 q 914 140 1062 289 q 559 -10 768 -10 q 205 140 352 -10 q 58 499 58 289 q 205 859 58 710 q 559 1009 352 1009 q 956 812 805 1009 l 783 680 q 559 791 698 791 q 359 706 442 791 q 275 499 275 620 q 359 292 275 378 q 559 207 442 207 q 722 258 649 207 q 825 391 793 309 l 559 391 "},"H":{"ha":802,"x_min":81,"x_max":721,"o":"m 721 999 l 721 0 l 509 0 l 509 395 l 294 395 l 294 0 l 81 0 l 81 999 l 294 999 l 294 607 l 509 607 l 509 999 l 721 999 "},"I":{"ha":416,"x_min":102,"x_max":314,"o":"m 102 0 l 102 999 l 314 999 l 314 0 l 102 0 "},"J":{"ha":708,"x_min":81,"x_max":674,"o":"m 462 999 l 674 999 l 674 289 q 587 80 674 167 q 378 -7 500 -7 q 168 80 255 -7 q 81 290 81 168 l 81 301 l 294 301 l 294 290 q 318 230 294 255 q 378 205 343 205 q 437 230 413 205 q 462 289 462 254 l 462 999 "},"K":{"ha":801,"x_min":81,"x_max":804,"o":"m 797 0 l 531 0 l 294 311 l 294 0 l 81 0 l 81 999 l 294 999 l 294 675 l 538 999 l 804 999 l 410 493 l 797 0 "},"L":{"ha":721,"x_min":81,"x_max":694,"o":"m 294 999 l 294 212 l 694 212 l 694 0 l 81 0 l 81 999 l 294 999 "},"M":{"ha":1012,"x_min":81,"x_max":930,"o":"m 81 999 l 259 999 l 506 370 l 753 999 l 930 999 l 930 0 l 719 0 l 719 384 l 570 0 l 442 0 l 294 384 l 294 0 l 81 0 l 81 999 "},"N":{"ha":830,"x_min":81,"x_max":749,"o":"m 81 999 l 248 999 l 536 489 l 536 1000 l 749 1000 l 749 0 l 583 0 l 294 513 l 294 0 l 81 0 l 81 999 "},"O":{"ha":1079,"x_min":37,"x_max":1042,"o":"m 540 1009 q 894 859 747 1009 q 1042 499 1042 710 q 894 140 1042 289 q 540 -10 747 -10 q 185 140 332 -10 q 37 499 37 289 q 185 859 37 710 q 540 1009 332 1009 m 540 207 q 741 292 657 207 q 824 499 824 378 q 741 706 824 620 q 540 791 657 791 q 338 706 422 791 q 255 499 255 620 q 338 292 255 378 q 540 207 422 207 "},"P":{"ha":745,"x_min":81,"x_max":707,"o":"m 294 579 l 423 579 q 471 608 450 579 q 494 683 494 639 q 471 758 494 726 q 423 786 450 786 l 294 786 l 294 579 m 81 999 l 423 999 q 624 906 541 999 q 707 683 707 813 q 624 459 707 552 q 423 366 541 366 l 294 366 l 294 0 l 81 0 l 81 999 "},"Q":{"ha":1091,"x_min":41,"x_max":1108,"o":"m 1007 201 l 1045 233 l 1108 157 l 1071 125 q 842 22 949 22 q 762 37 802 22 q 756 39 763 37 q 542 -10 654 -10 q 188 140 334 -10 q 41 499 41 289 q 188 859 41 710 q 542 1009 334 1009 q 896 859 749 1009 q 1044 499 1044 710 q 885 128 1044 280 q 1007 201 941 145 m 542 791 q 340 706 425 791 q 258 499 258 620 q 304 338 258 412 q 511 374 391 417 q 648 257 563 357 q 666 236 659 243 q 782 342 739 272 q 826 499 826 414 q 743 706 826 620 q 542 791 659 791 m 370 266 q 542 207 446 207 q 560 208 550 207 q 478 282 504 272 q 370 266 414 304 "},"R":{"ha":728,"x_min":81,"x_max":758,"o":"m 479 629 q 496 701 497 652 q 423 786 492 786 l 294 786 l 294 606 l 431 606 q 471 617 462 606 q 479 629 479 629 m 758 0 l 498 0 l 294 358 l 294 0 l 81 0 l 81 999 l 423 999 q 623 918 543 999 q 708 709 703 835 q 634 488 713 570 q 514 416 587 439 l 758 0 "},"S":{"ha":742,"x_min":45,"x_max":697,"o":"m 371 787 q 294 761 326 787 q 262 696 262 734 q 283 644 262 660 q 399 601 307 627 q 590 521 530 565 q 697 294 697 441 q 602 77 697 168 q 371 -14 506 -14 q 140 77 236 -14 q 45 294 45 168 l 262 294 q 294 229 262 256 q 371 203 326 203 q 448 229 416 203 q 480 294 480 256 q 459 349 480 332 q 341 392 434 366 q 151 472 211 428 q 45 696 45 551 q 140 914 45 823 q 371 1005 236 1005 q 602 914 506 1005 q 697 696 697 823 l 480 696 q 448 761 480 734 q 371 787 416 787 "},"T":{"ha":680,"x_min":34,"x_max":646,"o":"m 34 999 l 646 999 l 646 787 l 446 787 l 446 0 l 234 0 l 234 787 l 34 787 l 34 999 "},"U":{"ha":840,"x_min":81,"x_max":760,"o":"m 547 332 l 547 999 l 760 999 l 760 332 q 661 92 760 192 q 421 -7 561 -7 q 181 93 281 -7 q 81 332 81 192 l 81 999 l 294 999 l 294 332 q 332 243 294 280 q 421 205 368 205 q 510 243 473 205 q 547 332 547 280 "},"V":{"ha":846,"x_min":-3,"x_max":850,"o":"m 624 999 l 850 999 l 523 0 l 323 0 l -3 999 l 222 999 l 423 342 l 624 999 "},"W":{"ha":1261,"x_min":1,"x_max":1261,"o":"m 1035 999 l 1261 999 l 899 0 l 700 0 l 631 191 l 562 0 l 362 0 l 1 999 l 226 999 l 462 349 l 518 503 l 339 999 l 564 999 l 631 815 l 697 999 l 923 999 l 743 503 l 800 349 l 1035 999 "},"X":{"ha":863,"x_min":-14,"x_max":876,"o":"m -14 0 l 231 0 l 431 334 l 631 0 l 876 0 l 554 540 l 827 999 l 582 999 l 431 746 l 280 999 l 35 999 l 309 540 l -14 0 "},"Y":{"ha":838,"x_min":1,"x_max":837,"o":"m 601 999 l 837 999 l 525 354 l 525 0 l 313 0 l 313 354 l 1 999 l 237 999 l 419 622 l 601 999 "},"Z":{"ha":848,"x_min":51,"x_max":797,"o":"m 51 0 l 51 137 l 490 784 l 52 784 l 52 996 l 797 996 l 797 859 l 358 212 l 795 212 l 795 0 l 51 0 "},"[":{"ha":480,"x_min":81,"x_max":399,"o":"m 81 -224 l 81 999 l 399 999 l 399 787 l 294 787 l 294 -12 l 399 -12 l 399 -224 l 81 -224 "},"\\":{"ha":565,"x_min":7,"x_max":558,"o":"m 7 1004 l 224 1004 l 558 -18 l 341 -18 l 7 1004 "},"]":{"ha":480,"x_min":81,"x_max":399,"o":"m 399 999 l 399 -224 l 81 -224 l 81 -12 l 186 -12 l 186 787 l 81 787 l 81 999 l 399 999 "},"^":{"ha":721,"x_min":35,"x_max":686,"o":"m 509 441 l 686 441 l 423 999 l 298 999 l 35 441 l 212 441 l 361 775 l 509 441 "},"_":{"ha":786,"x_min":-81,"x_max":867,"o":"m -81 -212 l -81 1 l 867 1 l 867 -212 l -81 -212 "},"`":{"ha":391,"x_min":-68,"x_max":278,"o":"m 89 826 l 278 826 l 121 1052 l -68 1052 l 89 826 "},"a":{"ha":888,"x_min":40,"x_max":814,"o":"m 814 769 l 814 0 l 597 0 l 597 33 q 427 -7 538 -7 q 153 107 267 -7 q 40 385 40 222 q 153 663 40 547 q 427 777 267 777 q 597 730 538 777 l 597 769 l 814 769 m 427 209 q 547 260 498 209 q 597 385 597 312 l 597 385 q 547 510 597 458 q 427 561 498 561 q 307 510 357 561 q 256 385 256 458 q 307 260 256 312 q 427 209 357 209 "},"b":{"ha":888,"x_min":74,"x_max":850,"o":"m 462 777 q 736 662 623 777 q 850 384 850 546 q 736 106 850 221 q 462 -10 623 -10 q 291 30 371 -10 l 291 0 l 74 0 l 74 999 l 291 999 l 291 730 q 462 777 371 777 m 462 207 q 583 258 532 207 q 633 384 633 311 q 583 508 633 457 q 462 560 532 560 q 341 508 391 560 q 291 384 291 457 q 341 258 291 311 q 462 207 391 207 "},"c":{"ha":733,"x_min":41,"x_max":726,"o":"m 518 235 l 609 294 l 726 112 l 635 53 q 428 -7 541 -7 q 154 107 268 -7 q 41 385 41 222 q 154 663 41 547 q 428 777 268 777 q 633 718 538 777 l 724 660 l 609 477 l 517 535 q 428 561 476 561 q 307 510 357 561 q 257 385 257 458 q 307 260 257 312 q 428 209 357 209 q 518 235 477 209 "},"d":{"ha":888,"x_min":40,"x_max":816,"o":"m 816 999 l 816 0 l 599 0 l 599 30 q 428 -10 519 -10 q 153 106 267 -10 q 40 384 40 221 q 153 662 40 546 q 428 777 267 777 q 599 737 519 777 l 599 999 l 816 999 m 428 207 q 549 258 498 207 q 599 384 599 311 q 549 508 599 457 q 428 560 498 560 q 307 508 357 560 q 257 384 257 457 q 307 258 257 311 q 428 207 357 207 "},"e":{"ha":847,"x_min":43,"x_max":817,"o":"m 817 385 l 817 321 l 271 321 q 310 260 283 288 q 431 209 360 209 q 551 260 501 209 q 562 273 557 267 l 752 165 q 704 107 732 135 q 431 -7 591 -7 q 157 107 270 -7 q 43 385 43 222 q 157 663 43 547 q 431 777 270 777 q 704 663 591 777 q 817 385 817 547 m 276 462 l 585 462 q 551 510 572 488 q 431 561 501 561 q 310 510 360 561 q 276 462 289 488 "},"f":{"ha":570,"x_min":81,"x_max":564,"o":"m 233 925 q 451 999 311 999 l 564 999 l 564 786 l 451 786 q 380 770 395 786 q 365 709 365 757 l 365 694 l 563 694 l 563 481 l 365 481 l 365 0 l 153 0 l 153 481 l 81 481 l 81 694 l 153 694 l 153 709 q 233 925 153 848 "},"g":{"ha":891,"x_min":43,"x_max":817,"o":"m 817 770 l 817 27 q 703 -249 817 -135 q 431 -364 590 -364 q 210 -294 310 -364 q 66 -111 110 -224 l 269 -35 q 333 -116 288 -85 q 431 -147 377 -147 q 551 -96 501 -147 q 601 28 601 -44 l 601 35 q 431 -5 521 -5 q 157 110 270 -5 q 43 387 43 226 q 157 665 43 550 q 431 781 270 781 q 601 740 521 781 l 601 770 l 817 770 m 431 212 q 551 263 501 212 q 601 387 601 315 l 601 388 q 551 513 601 460 q 431 564 501 564 q 310 513 360 564 q 260 387 260 460 q 310 263 260 315 q 431 212 360 212 "},"h":{"ha":865,"x_min":81,"x_max":798,"o":"m 439 775 q 692 663 587 775 q 798 390 798 549 l 798 0 l 585 0 l 585 390 q 543 513 585 462 q 439 563 500 563 q 336 513 379 563 q 294 391 294 462 l 294 0 l 81 0 l 81 999 l 294 999 l 294 742 q 439 775 363 775 "},"i":{"ha":402,"x_min":95,"x_max":307,"o":"m 95 0 l 95 770 l 307 770 l 307 0 l 95 0 m 200 1006 q 136 979 163 1006 q 110 916 110 953 q 136 851 110 878 q 200 825 163 825 q 264 851 237 825 q 291 916 291 878 q 264 979 291 953 q 200 1006 237 1006 "},"j":{"ha":425,"x_min":-68,"x_max":343,"o":"m 131 770 l 343 770 l 343 62 q 262 -153 343 -77 q 45 -227 185 -227 l -68 -227 l -68 -14 l 45 -14 q 117 1 100 -14 q 131 62 131 15 l 131 770 m 234 1006 q 170 979 197 1006 q 144 916 144 953 q 170 851 144 878 q 234 825 197 825 q 298 851 271 825 q 325 916 325 878 q 298 979 325 953 q 234 1006 271 1006 "},"k":{"ha":741,"x_min":81,"x_max":754,"o":"m 754 -1 l 471 -1 l 294 220 l 294 0 l 81 0 l 81 998 l 294 998 l 294 553 l 450 770 l 720 770 l 425 387 l 754 -1 "},"l":{"ha":416,"x_min":102,"x_max":315,"o":"m 102 0 l 102 999 l 315 999 l 315 0 l 102 0 "},"m":{"ha":1327,"x_min":81,"x_max":1246,"o":"m 901 773 q 1145 661 1044 773 q 1246 388 1246 547 l 1246 0 l 1034 0 l 1034 388 q 994 510 1034 458 q 901 561 955 561 q 808 510 848 561 q 770 388 770 458 l 770 0 l 557 0 l 557 388 q 518 510 557 458 q 425 561 479 561 q 333 510 372 561 q 294 389 294 458 l 294 0 l 81 0 l 81 770 l 294 770 l 294 744 q 425 773 357 773 q 663 666 564 773 q 901 773 764 773 "},"n":{"ha":879,"x_min":81,"x_max":798,"o":"m 439 773 q 692 661 587 773 q 798 388 798 547 l 798 0 l 585 0 l 585 388 q 543 511 585 460 q 439 561 500 561 q 336 511 379 561 q 294 389 294 460 l 294 0 l 81 0 l 81 770 l 294 770 l 294 740 q 439 773 363 773 "},"o":{"ha":854,"x_min":40,"x_max":814,"o":"m 427 777 q 701 663 587 777 q 814 385 814 547 q 701 107 814 222 q 427 -7 587 -7 q 153 107 267 -7 q 40 385 40 222 q 153 663 40 547 q 427 777 267 777 m 427 209 q 547 260 498 209 q 597 385 597 312 q 547 510 597 458 q 427 561 498 561 q 307 510 357 561 q 256 385 256 458 q 307 260 256 312 q 427 209 357 209 "},"p":{"ha":890,"x_min":74,"x_max":850,"o":"m 462 780 q 736 664 623 780 q 850 386 850 549 q 736 108 850 223 q 462 -7 623 -7 q 291 33 371 -7 l 291 -230 l 74 -230 l 74 770 l 291 770 l 291 739 q 462 780 371 780 m 462 209 q 583 261 532 209 q 633 386 633 313 q 583 511 633 458 q 462 562 532 562 q 341 511 391 562 q 291 386 291 458 q 341 261 291 313 q 462 209 391 209 "},"q":{"ha":890,"x_min":40,"x_max":816,"o":"m 816 770 l 816 -230 l 599 -230 l 599 32 q 428 -8 519 -8 q 154 107 267 -8 q 40 385 40 222 q 154 663 40 548 q 428 779 267 779 q 599 739 519 779 l 599 770 l 816 770 m 428 208 q 549 260 498 208 q 599 385 599 312 l 599 385 q 549 510 599 458 q 428 562 498 562 q 307 510 357 562 q 257 385 257 458 q 307 260 257 312 q 428 208 357 208 "},"r":{"ha":552,"x_min":81,"x_max":545,"o":"m 294 770 l 294 736 q 439 770 363 770 l 545 770 l 545 557 l 439 557 q 336 507 379 557 q 294 385 294 456 l 294 0 l 81 0 l 81 770 l 294 770 "},"s":{"ha":597,"x_min":35,"x_max":562,"o":"m 252 243 l 252 237 q 265 203 252 217 q 298 189 279 189 q 332 203 318 189 q 345 237 345 217 q 345 243 345 240 q 340 256 345 250 q 269 281 334 263 q 121 345 170 309 q 35 527 35 410 q 113 704 35 631 q 298 777 190 777 q 484 704 407 777 q 562 527 562 631 l 345 527 q 345 533 345 530 q 332 567 345 553 q 298 581 318 581 q 265 567 279 581 q 252 533 252 553 q 252 527 252 530 q 258 513 252 519 q 327 490 263 508 q 473 427 424 463 q 562 243 562 361 q 484 66 562 139 q 298 -7 407 -7 q 113 66 190 -7 q 35 243 35 139 l 252 243 "},"t":{"ha":498,"x_min":47,"x_max":450,"o":"m 355 999 l 355 772 l 450 772 l 450 559 l 355 559 l 355 0 l 142 0 l 142 559 l 47 559 l 47 772 l 142 772 l 142 999 l 355 999 "},"u":{"ha":851,"x_min":81,"x_max":770,"o":"m 770 770 l 770 0 l 557 0 l 557 23 q 426 -7 494 -7 q 182 106 283 -7 q 81 378 81 219 l 81 770 l 294 770 l 294 378 q 333 257 294 308 q 426 205 372 205 q 518 257 479 205 q 557 378 557 308 l 557 770 l 770 770 "},"v":{"ha":851,"x_min":1,"x_max":850,"o":"m 620 770 l 850 770 l 523 0 l 328 0 l 1 770 l 231 770 l 425 313 l 620 770 "},"w":{"ha":1059,"x_min":1,"x_max":1058,"o":"m 835 770 l 1058 770 l 810 0 l 608 0 l 530 245 l 451 0 l 249 0 l 1 770 l 224 770 l 350 378 l 429 623 l 631 623 l 709 378 l 835 770 "},"x":{"ha":903,"x_min":-16,"x_max":916,"o":"m 916 0 l 634 0 l 449 267 l 265 0 l -16 0 l 309 428 l 39 770 l 320 770 l 449 590 l 579 770 l 861 770 l 590 428 l 916 0 "},"y":{"ha":891,"x_min":43,"x_max":817,"o":"m 260 770 l 260 387 q 310 263 260 315 q 431 212 360 212 q 551 263 501 212 q 601 387 601 315 l 601 770 l 817 770 l 817 27 q 703 -249 817 -135 q 431 -364 590 -364 q 210 -294 310 -364 q 66 -111 110 -224 l 269 -35 q 333 -116 288 -85 q 431 -147 377 -147 q 551 -96 501 -147 q 601 28 601 -44 l 601 56 q 431 -5 548 -5 q 157 110 270 -5 q 43 387 43 226 l 43 770 l 260 770 "},"z":{"ha":755,"x_min":34,"x_max":721,"o":"m 696 770 l 696 595 l 370 212 l 721 212 l 721 0 l 59 0 l 59 175 l 385 557 l 34 557 l 34 770 l 696 770 "},"{":{"ha":555,"x_min":81,"x_max":473,"o":"m 201 941 q 367 999 254 999 l 473 999 l 473 786 l 366 786 q 365 763 365 776 q 357 537 365 589 q 298 386 341 443 q 297 385 298 386 q 322 346 311 366 q 365 100 365 262 q 366 -16 365 19 l 473 -16 l 473 -229 l 367 -229 q 220 -188 269 -229 q 156 -58 166 -144 l 156 -58 q 153 100 153 -31 q 134 247 153 210 q 81 286 121 272 l 81 481 q 128 514 117 498 q 147 572 140 530 q 153 763 153 606 q 201 941 153 886 "},"|":{"ha":375,"x_min":81,"x_max":294,"o":"m 81 -226 l 81 999 l 294 999 l 294 -226 l 81 -226 "},"}":{"ha":555,"x_min":81,"x_max":473,"o":"m 353 941 q 401 763 401 886 q 408 572 401 606 q 427 514 414 530 q 473 481 438 498 l 473 286 q 421 247 434 272 q 401 100 401 210 q 399 -58 401 -31 l 399 -58 q 335 -188 389 -144 q 188 -229 286 -229 l 81 -229 l 81 -16 l 189 -16 q 190 100 190 19 q 233 346 190 262 q 258 385 243 366 q 256 386 257 386 q 198 537 214 443 q 190 763 190 589 q 189 786 190 776 l 81 786 l 81 999 l 188 999 q 353 941 300 999 "},"~":{"ha":810,"x_min":34,"x_max":777,"o":"m 777 377 l 777 616 q 623 484 663 506 q 549 461 583 461 q 436 498 513 461 l 412 511 q 261 555 321 555 q 155 528 208 555 q 34 438 101 500 l 34 199 q 188 331 148 308 q 261 353 229 353 q 382 313 301 353 l 405 302 q 549 260 492 260 q 658 288 604 260 q 777 377 711 315 "},"¡":{"ha":416,"x_min":102,"x_max":314,"o":"m 294 437 l 314 151 l 314 -229 l 102 -229 l 102 151 l 122 437 l 294 437 m 314 770 l 314 557 l 102 557 l 102 770 l 314 770 "},"¢":{"ha":733,"x_min":41,"x_max":726,"o":"m 518 235 l 609 294 l 726 112 l 635 53 q 428 -7 541 -7 q 154 107 268 -7 q 41 385 41 222 q 154 663 41 547 q 428 777 268 777 q 633 718 538 777 l 724 660 l 609 477 l 517 535 q 428 561 476 561 q 307 510 357 561 q 257 385 257 458 q 307 260 257 312 q 428 209 357 209 q 518 235 477 209 m 542 935 l 691 935 l 289 -181 l 140 -181 l 542 935 "},"£":{"ha":878,"x_min":81,"x_max":797,"o":"m 408 309 l 408 212 l 797 212 l 797 0 l 196 0 l 196 309 l 81 309 l 81 522 l 196 522 l 196 617 q 283 896 196 782 q 495 1010 369 1010 q 707 896 621 1010 q 794 617 794 782 l 582 617 q 551 748 582 692 q 495 798 524 798 q 439 748 466 798 q 408 617 408 692 l 408 522 l 629 522 l 629 309 l 408 309 "},"¤":{"ha":839,"x_min":9,"x_max":830,"o":"m 830 669 l 732 793 l 631 692 q 420 756 551 756 q 208 692 288 756 l 107 792 l 9 669 l 98 580 q 38 371 38 500 q 98 161 38 241 l 9 73 l 106 -51 l 208 49 q 420 -15 288 -15 q 631 49 551 -15 l 732 -51 l 830 73 l 741 161 q 801 371 801 241 q 741 580 801 500 l 830 669 m 418 589 q 572 525 508 589 q 636 370 636 461 q 572 216 636 280 q 418 152 508 152 q 263 216 327 152 q 199 370 199 280 q 263 525 199 461 q 418 589 327 589 "},"¥":{"ha":951,"x_min":81,"x_max":870,"o":"m 475 696 l 690 1036 l 870 923 l 631 546 l 719 546 l 719 430 l 582 430 l 582 320 l 719 320 l 719 205 l 582 205 l 582 0 l 370 0 l 370 205 l 218 205 l 218 320 l 370 320 l 370 430 l 218 430 l 218 546 l 320 546 l 81 923 l 260 1036 l 475 696 "},"¦":{"ha":375,"x_min":81,"x_max":294,"o":"m 81 473 l 81 999 l 294 999 l 294 473 l 81 473 m 81 -230 l 81 296 l 294 296 l 294 -230 l 81 -230 "},"§":{"ha":677,"x_min":81,"x_max":596,"o":"m 596 439 q 522 270 596 340 q 596 102 596 210 q 521 -68 596 3 q 339 -138 446 -138 q 157 -68 233 -138 q 81 102 81 3 l 226 102 q 259 35 226 62 q 339 6 292 6 q 418 35 385 6 q 452 102 452 62 q 425 162 452 143 q 319 202 401 180 q 165 266 212 231 q 81 439 81 326 q 157 609 81 538 q 81 776 81 669 q 157 946 81 876 q 339 1017 233 1017 q 521 946 446 1017 q 596 776 596 876 l 452 776 q 418 844 452 816 q 339 872 385 872 q 259 844 292 872 q 226 776 226 816 q 250 719 226 737 q 357 678 275 701 q 512 614 465 649 q 596 439 596 553 m 226 439 q 249 383 226 401 q 351 343 273 365 q 422 374 393 347 q 452 439 452 402 q 427 497 452 478 q 333 535 405 515 q 257 505 288 533 q 226 439 226 477 "},"¨":{"ha":534,"x_min":7,"x_max":527,"o":"m 97 1006 q 33 979 60 1006 q 7 916 7 953 q 33 851 7 878 q 97 825 60 825 q 161 851 134 825 q 188 916 188 878 q 161 979 188 953 q 97 1006 134 1006 m 436 1006 q 372 979 399 1006 q 346 916 346 953 q 372 851 346 878 q 436 825 399 825 q 500 851 473 825 q 527 916 527 878 q 500 979 527 953 q 436 1006 473 1006 "},"©":{"ha":1183,"x_min":34,"x_max":1149,"o":"m 591 1082 q 197 919 360 1082 q 34 524 34 755 q 197 130 34 293 q 591 -33 360 -33 q 986 130 823 -33 q 1149 524 1149 293 q 986 919 1149 755 q 591 1082 823 1082 m 591 958 q 899 831 771 958 q 1026 524 1026 704 q 899 217 1026 345 q 591 90 771 90 q 284 217 412 90 q 157 524 157 345 q 284 831 157 704 q 591 958 412 958 m 598 724 q 689 701 646 724 q 778 607 732 677 l 888 682 q 752 818 825 779 q 598 857 680 857 q 366 759 462 857 q 270 524 270 661 q 366 289 270 387 q 598 191 462 191 q 752 230 680 191 q 888 366 825 269 l 778 441 q 689 347 732 371 q 598 325 647 325 q 460 382 517 325 q 404 524 404 441 q 460 665 404 608 q 598 724 517 724 "},"ª":{"ha":625,"x_min":40,"x_max":551,"o":"m 551 994 l 551 532 l 408 532 l 408 552 q 296 528 368 528 q 115 597 189 528 q 40 763 40 666 q 115 930 40 861 q 296 999 189 999 q 408 970 368 999 l 408 994 l 551 994 m 296 658 q 375 688 342 658 q 408 763 408 720 l 408 764 q 375 838 408 807 q 296 869 342 869 q 216 838 249 869 q 182 763 182 807 q 216 688 182 720 q 296 658 249 658 "},"«":{"ha":824,"x_min":12,"x_max":817,"o":"m 262 32 l 476 32 l 227 371 l 475 709 l 261 709 l 12 371 l 262 32 m 602 32 l 817 32 l 567 371 l 816 709 l 602 709 l 353 371 l 602 32 "},"¬":{"ha":742,"x_min":86,"x_max":656,"o":"m 86 520 l 86 385 l 521 385 l 521 186 l 655 186 l 656 187 l 656 520 l 86 520 "},"®":{"ha":1183,"x_min":34,"x_max":1149,"o":"m 591 1082 q 197 919 360 1082 q 34 524 34 755 q 197 130 34 293 q 591 -33 360 -33 q 986 130 823 -33 q 1149 524 1149 293 q 986 919 1149 755 q 591 1082 823 1082 m 591 958 q 899 831 771 958 q 1026 524 1026 704 q 899 217 1026 345 q 591 90 771 90 q 284 217 412 90 q 157 524 157 345 q 284 831 157 704 q 591 958 412 958 m 555 593 l 527 593 l 527 732 l 624 732 q 666 713 652 732 q 682 667 681 695 q 670 616 683 629 q 555 593 648 593 m 527 446 l 692 182 l 844 182 l 666 473 q 767 521 718 470 q 817 672 821 577 q 768 804 814 749 q 624 868 713 868 l 391 868 l 391 182 l 527 182 l 527 446 "},"¯":{"ha":730,"x_min":81,"x_max":649,"o":"m 81 867 l 81 1080 l 649 1080 l 649 867 l 81 867 "},"°":{"ha":395,"x_min":20,"x_max":375,"o":"m 198 920 q 228 908 215 920 q 240 878 240 895 q 228 849 240 861 q 198 836 215 836 q 168 848 180 836 q 156 878 156 861 q 168 908 156 896 q 198 920 180 920 m 198 1056 q 72 1004 124 1056 q 20 878 20 952 q 72 753 20 805 q 198 701 124 701 q 323 753 271 701 q 375 878 375 805 q 323 1004 375 952 q 198 1056 271 1056 "},"±":{"ha":934,"x_min":81,"x_max":852,"o":"m 573 998 l 573 746 l 852 746 l 852 534 l 573 534 l 573 281 l 361 281 l 361 534 l 81 534 l 81 746 l 361 746 l 361 998 l 573 998 m 81 0 l 81 212 l 852 212 l 852 0 l 81 0 "},"²":{"ha":510,"x_min":14,"x_max":496,"o":"m 496 770 q 425 940 496 870 q 255 1010 355 1010 q 84 940 155 1010 q 14 749 14 869 l 130 749 q 167 858 130 821 q 255 894 203 894 q 343 858 307 894 q 380 770 380 821 q 329 668 380 718 l 26 371 l 26 277 l 478 277 l 478 393 l 215 393 l 410 585 q 496 770 496 668 "},"³":{"ha":483,"x_min":6,"x_max":469,"o":"m 386 688 q 432 817 432 728 q 375 954 432 897 q 237 1010 318 1010 q 134 981 182 1010 q 62 901 87 951 l 37 848 l 142 798 l 168 850 q 237 894 189 894 q 293 871 271 894 q 315 817 315 848 q 295 764 315 787 q 248 739 276 743 l 179 739 l 179 623 l 250 623 q 322 585 292 618 q 353 508 353 553 q 319 427 353 460 q 237 393 286 393 q 136 453 170 393 l 109 505 l 6 449 l 35 397 q 119 309 65 342 q 237 277 174 277 q 401 345 333 277 q 469 508 469 412 q 386 688 469 633 "},"´":{"ha":391,"x_min":101,"x_max":448,"o":"m 101 826 l 290 826 l 448 1052 l 258 1052 l 101 826 "},"µ":{"ha":945,"x_min":81,"x_max":864,"o":"m 675 1004 l 675 749 q 616 615 675 671 q 473 559 557 559 q 330 615 389 559 q 271 749 271 671 l 271 1004 l 81 1004 l 81 0 l 271 0 l 271 437 q 473 370 326 370 q 675 437 621 370 l 675 216 l 864 216 l 864 1004 l 675 1004 "},"¶":{"ha":724,"x_min":68,"x_max":686,"o":"m 686 886 l 686 987 l 336 987 q 139 883 214 977 q 68 694 68 801 q 139 505 68 587 q 336 404 210 423 l 336 0 l 444 0 l 444 886 l 519 886 l 519 0 l 627 0 l 627 886 l 686 886 "},"·":{"ha":249,"x_min":34,"x_max":215,"o":"m 124 587 q 60 561 87 587 q 34 497 34 534 q 60 433 34 459 q 124 406 87 406 q 188 433 161 406 q 215 497 215 459 q 188 561 215 534 q 124 587 161 587 "},"¸":{"ha":280,"x_min":56,"x_max":353,"o":"m 108 -130 l 146 0 l 261 0 l 241 -65 q 315 -96 279 -71 q 353 -164 353 -123 q 353 -173 353 -168 q 247 -296 343 -272 q 157 -309 205 -309 q 56 -300 119 -309 l 84 -208 q 145 -210 120 -210 q 186 -208 171 -210 q 227 -165 227 -204 q 196 -136 227 -147 q 108 -130 169 -131 "},"¹":{"ha":261,"x_min":6,"x_max":248,"o":"m 6 772 l 107 713 l 131 754 l 131 277 l 248 277 l 248 1010 l 144 1010 l 6 772 "},"º":{"ha":591,"x_min":40,"x_max":551,"o":"m 296 999 q 476 930 401 999 q 551 763 551 861 q 476 597 551 666 q 296 528 401 528 q 115 597 189 528 q 40 763 40 666 q 115 930 40 861 q 296 999 189 999 m 296 658 q 375 688 342 658 q 408 763 408 720 q 375 838 408 807 q 296 869 342 869 q 216 838 249 869 q 182 763 182 807 q 216 688 182 720 q 296 658 249 658 "},"»":{"ha":824,"x_min":7,"x_max":812,"o":"m 7 32 l 222 32 l 471 371 l 222 709 l 8 709 l 257 371 l 7 32 m 348 32 l 562 32 l 812 371 l 563 709 l 349 709 l 597 371 l 348 32 "},"¼":{"ha":1056,"x_min":34,"x_max":1022,"o":"m 34 772 l 135 713 l 159 754 l 159 277 l 275 277 l 275 1010 l 172 1010 l 34 772 m 83 -18 l 169 -18 l 916 1031 l 829 1031 l 83 -18 m 941 245 l 941 720 l 850 720 l 511 220 l 511 142 l 838 142 l 838 0 l 941 0 l 941 142 l 1022 142 l 1022 245 l 941 245 m 838 245 l 646 245 l 838 532 l 838 245 "},"½":{"ha":1116,"x_min":6,"x_max":1102,"o":"m 6 772 l 107 713 l 131 754 l 131 277 l 248 277 l 248 1010 l 144 1010 l 6 772 m 75 -18 l 161 -18 l 907 1031 l 821 1031 l 75 -18 m 1102 493 q 1031 663 1102 593 q 861 734 960 734 q 690 663 761 734 q 619 473 619 593 l 736 473 q 772 581 736 545 q 861 617 808 617 q 949 581 912 617 q 985 493 985 545 q 935 391 985 441 l 631 94 l 631 0 l 1084 0 l 1084 117 l 821 117 l 1016 309 q 1102 493 1102 391 "},"¾":{"ha":1250,"x_min":34,"x_max":1216,"o":"m 414 688 q 460 817 460 728 q 403 954 460 897 q 265 1010 346 1010 q 162 981 210 1010 q 90 901 114 951 l 65 848 l 170 798 l 195 850 q 265 894 216 894 q 320 871 298 894 q 343 817 343 848 q 323 764 343 787 q 276 739 304 743 l 207 739 l 207 623 l 278 623 q 350 585 319 618 q 380 508 380 553 q 346 427 380 460 q 265 393 313 393 q 164 453 197 393 l 137 505 l 34 449 l 62 397 q 146 309 92 342 q 265 277 202 277 q 429 345 361 277 q 497 508 497 412 q 414 688 497 633 m 260 -18 l 346 -18 l 1093 1031 l 1006 1031 l 260 -18 m 1135 245 l 1135 720 l 1044 720 l 705 220 l 705 142 l 1032 142 l 1032 0 l 1135 0 l 1135 142 l 1216 142 l 1216 245 l 1135 245 m 1031 245 l 840 245 l 1031 532 l 1031 245 "},"¿":{"ha":832,"x_min":81,"x_max":751,"o":"m 416 -235 q 180 -139 278 -235 q 81 92 81 -43 q 130 262 81 184 q 262 382 179 340 l 264 383 q 332 491 332 417 l 544 491 q 494 319 544 398 q 359 198 445 241 q 294 92 294 164 q 330 7 294 43 q 416 -28 366 -28 q 503 7 467 -28 q 538 92 538 43 l 538 196 l 751 196 l 751 92 q 652 -139 751 -43 q 416 -235 555 -235 m 544 770 l 544 557 l 332 557 l 332 770 l 544 770 "},"À":{"ha":860,"x_min":1,"x_max":859,"o":"m 334 366 l 528 366 l 430 644 l 334 366 m 356 999 l 504 999 l 859 0 l 643 0 l 585 186 l 276 186 l 217 0 l 1 0 l 356 999 m 356 1055 l 545 1055 l 388 1281 l 199 1281 l 356 1055 "},"Á":{"ha":860,"x_min":1,"x_max":859,"o":"m 334 366 l 528 366 l 430 644 l 334 366 m 356 999 l 504 999 l 859 0 l 643 0 l 585 186 l 276 186 l 217 0 l 1 0 l 356 999 m 315 1055 l 504 1055 l 661 1281 l 472 1281 l 315 1055 "},"Â":{"ha":860,"x_min":1,"x_max":859,"o":"m 334 366 l 528 366 l 430 644 l 334 366 m 356 999 l 504 999 l 859 0 l 643 0 l 585 186 l 276 186 l 217 0 l 1 0 l 356 999 m 154 1036 l 357 1036 l 430 1128 l 503 1036 l 707 1036 l 499 1286 l 360 1286 l 154 1036 "},"Ã":{"ha":860,"x_min":1,"x_max":859,"o":"m 334 366 l 528 366 l 430 644 l 334 366 m 356 999 l 504 999 l 859 0 l 643 0 l 585 186 l 276 186 l 217 0 l 1 0 l 356 999 m 693 1235 l 534 1235 q 517 1197 524 1204 q 498 1192 509 1190 q 471 1201 488 1195 l 414 1221 q 370 1234 397 1230 q 256 1204 307 1240 q 168 1042 205 1168 l 321 1042 q 339 1078 330 1069 q 359 1084 348 1086 q 380 1079 370 1083 l 439 1057 q 492 1044 466 1046 q 601 1072 551 1037 q 693 1235 650 1107 "},"Ä":{"ha":860,"x_min":1,"x_max":859,"o":"m 334 366 l 528 366 l 430 644 l 334 366 m 356 999 l 504 999 l 859 0 l 643 0 l 585 186 l 276 186 l 217 0 l 1 0 l 356 999 m 260 1235 q 197 1208 223 1235 q 170 1145 170 1182 q 197 1080 170 1107 q 260 1054 223 1054 q 325 1080 298 1054 q 351 1145 351 1107 q 325 1208 351 1182 q 260 1235 298 1235 m 600 1235 q 536 1208 562 1235 q 509 1145 509 1182 q 536 1080 509 1107 q 600 1054 562 1054 q 664 1080 637 1054 q 690 1145 690 1107 q 664 1208 690 1182 q 600 1235 637 1235 "},"Å":{"ha":860,"x_min":1,"x_max":859,"o":"m 334 366 l 528 366 l 430 644 l 334 366 m 356 999 l 504 999 l 859 0 l 643 0 l 585 186 l 276 186 l 217 0 l 1 0 l 356 999 m 430 1169 q 400 1157 412 1169 q 388 1127 388 1145 q 400 1097 388 1109 q 430 1085 412 1085 q 459 1098 447 1085 q 472 1127 472 1110 q 459 1157 472 1144 q 430 1169 447 1169 m 430 1285 q 542 1239 496 1285 q 588 1127 588 1193 q 542 1015 588 1061 q 430 969 496 969 q 318 1015 364 969 q 272 1127 272 1061 q 318 1239 272 1193 q 430 1285 364 1285 "},"Æ":{"ha":1187,"x_min":-5,"x_max":1164,"o":"m 1164 998 l 397 998 l -5 -1 l 189 -1 l 322 324 l 594 324 l 594 -1 l 1164 -1 l 1164 172 l 781 172 l 781 411 l 1164 411 l 1164 591 l 781 591 l 781 825 l 1164 825 l 1164 998 m 594 498 l 389 498 l 525 831 l 594 831 l 594 498 "},"Ç":{"ha":958,"x_min":59,"x_max":960,"o":"m 788 323 l 959 191 q 796 50 893 102 q 560 -10 686 -10 q 206 140 353 -10 q 59 499 59 289 q 206 859 59 710 q 560 1009 353 1009 q 796 949 686 1009 q 960 808 894 896 l 788 675 q 560 791 705 791 q 359 706 443 791 q 276 499 276 620 q 359 292 276 378 q 560 207 443 207 q 788 323 704 207 m 457 -130 l 495 0 l 610 0 l 590 -65 q 664 -96 629 -71 q 703 -164 703 -123 q 702 -173 703 -168 q 596 -296 692 -272 q 507 -309 555 -309 q 405 -300 469 -309 l 433 -208 q 494 -210 469 -210 q 536 -208 520 -210 q 576 -165 576 -204 q 545 -136 576 -147 q 457 -130 518 -131 "},"È":{"ha":755,"x_min":81,"x_max":721,"o":"m 81 0 l 81 999 l 721 999 l 721 787 l 294 787 l 294 607 l 721 607 l 721 395 l 294 395 l 294 212 l 721 212 l 721 0 l 81 0 m 328 1055 l 517 1055 l 359 1281 l 170 1281 l 328 1055 "},"É":{"ha":755,"x_min":81,"x_max":721,"o":"m 81 0 l 81 999 l 721 999 l 721 787 l 294 787 l 294 607 l 721 607 l 721 395 l 294 395 l 294 212 l 721 212 l 721 0 l 81 0 m 286 1055 l 475 1055 l 632 1281 l 443 1281 l 286 1055 "},"Ê":{"ha":755,"x_min":81,"x_max":721,"o":"m 81 0 l 81 999 l 721 999 l 721 787 l 294 787 l 294 607 l 721 607 l 721 395 l 294 395 l 294 212 l 721 212 l 721 0 l 81 0 m 125 1050 l 328 1050 l 401 1141 l 473 1050 l 677 1050 l 470 1300 l 331 1300 l 125 1050 "},"Ë":{"ha":755,"x_min":81,"x_max":721,"o":"m 81 0 l 81 999 l 721 999 l 721 787 l 294 787 l 294 607 l 721 607 l 721 395 l 294 395 l 294 212 l 721 212 l 721 0 l 81 0 m 231 1235 q 168 1208 194 1235 q 141 1145 141 1182 q 168 1080 141 1107 q 231 1054 194 1054 q 295 1080 269 1054 q 322 1145 322 1107 q 295 1208 322 1182 q 231 1235 269 1235 m 570 1235 q 507 1208 533 1235 q 480 1145 480 1182 q 507 1080 480 1107 q 570 1054 533 1054 q 634 1080 608 1054 q 661 1145 661 1107 q 634 1208 661 1182 q 570 1235 608 1235 "},"Ì":{"ha":401,"x_min":-27,"x_max":319,"o":"m 98 0 l 98 999 l 310 999 l 310 0 l 98 0 m 130 1055 l 319 1055 l 162 1281 l -27 1281 l 130 1055 "},"Í":{"ha":401,"x_min":81,"x_max":428,"o":"m 91 0 l 91 999 l 303 999 l 303 0 l 91 0 m 81 1055 l 271 1055 l 428 1281 l 239 1281 l 81 1055 "},"Î":{"ha":417,"x_min":-68,"x_max":485,"o":"m 102 0 l 102 999 l 315 999 l 315 0 l 102 0 m -68 1050 l 136 1050 l 208 1141 l 281 1050 l 485 1050 l 277 1300 l 138 1300 l -68 1050 "},"Ï":{"ha":425,"x_min":-47,"x_max":473,"o":"m 106 0 l 106 999 l 319 999 l 319 0 l 106 0 m 43 1235 q -21 1208 5 1235 q -47 1145 -47 1182 q -21 1080 -47 1107 q 43 1054 5 1054 q 107 1080 80 1054 q 134 1145 134 1107 q 107 1208 134 1182 q 43 1235 80 1235 m 382 1235 q 318 1208 345 1235 q 292 1145 292 1182 q 318 1080 292 1107 q 382 1054 345 1054 q 446 1080 419 1054 q 473 1145 473 1107 q 446 1208 473 1182 q 382 1235 419 1235 "},"Ð":{"ha":935,"x_min":-50,"x_max":884,"o":"m 81 999 l 385 999 q 737 852 591 999 q 884 499 884 706 q 737 146 884 293 q 385 0 591 0 l 81 0 l 81 999 m 294 212 l 385 212 q 587 296 503 212 q 671 499 671 380 q 587 702 671 618 q 385 786 503 786 l 294 786 l 294 212 m -50 393 l -50 606 l 492 606 l 492 393 l -50 393 "},"Ñ":{"ha":830,"x_min":81,"x_max":749,"o":"m 81 999 l 248 999 l 536 489 l 536 1000 l 749 1000 l 749 0 l 583 0 l 294 513 l 294 0 l 81 0 l 81 999 m 678 1235 l 519 1235 q 502 1197 509 1204 q 484 1192 494 1190 q 456 1201 473 1195 l 399 1221 q 355 1234 382 1230 q 241 1204 292 1240 q 153 1042 190 1168 l 306 1042 q 324 1078 315 1069 q 344 1084 333 1086 q 365 1079 355 1083 l 425 1057 q 477 1044 451 1046 q 586 1072 536 1037 q 678 1235 635 1107 "},"Ò":{"ha":1079,"x_min":37,"x_max":1042,"o":"m 540 1009 q 894 859 747 1009 q 1042 499 1042 710 q 894 140 1042 289 q 540 -10 747 -10 q 185 140 332 -10 q 37 499 37 289 q 185 859 37 710 q 540 1009 332 1009 m 540 207 q 741 292 657 207 q 824 499 824 378 q 741 706 824 620 q 540 791 657 791 q 338 706 422 791 q 255 499 255 620 q 338 292 255 378 q 540 207 422 207 m 466 1055 l 655 1055 l 498 1281 l 309 1281 l 466 1055 "},"Ó":{"ha":1079,"x_min":37,"x_max":1042,"o":"m 540 1009 q 894 859 747 1009 q 1042 499 1042 710 q 894 140 1042 289 q 540 -10 747 -10 q 185 140 332 -10 q 37 499 37 289 q 185 859 37 710 q 540 1009 332 1009 m 540 207 q 741 292 657 207 q 824 499 824 378 q 741 706 824 620 q 540 791 657 791 q 338 706 422 791 q 255 499 255 620 q 338 292 255 378 q 540 207 422 207 m 424 1055 l 613 1055 l 770 1281 l 581 1281 l 424 1055 "},"Ô":{"ha":1079,"x_min":37,"x_max":1042,"o":"m 540 1009 q 894 859 747 1009 q 1042 499 1042 710 q 894 140 1042 289 q 540 -10 747 -10 q 185 140 332 -10 q 37 499 37 289 q 185 859 37 710 q 540 1009 332 1009 m 540 207 q 741 292 657 207 q 824 499 824 378 q 741 706 824 620 q 540 791 657 791 q 338 706 422 791 q 255 499 255 620 q 338 292 255 378 q 540 207 422 207 m 263 1050 l 467 1050 l 539 1141 l 612 1050 l 816 1050 l 608 1300 l 469 1300 l 263 1050 "},"Õ":{"ha":1079,"x_min":37,"x_max":1042,"o":"m 540 1009 q 894 859 747 1009 q 1042 499 1042 710 q 894 140 1042 289 q 540 -10 747 -10 q 185 140 332 -10 q 37 499 37 289 q 185 859 37 710 q 540 1009 332 1009 m 540 207 q 741 292 657 207 q 824 499 824 378 q 741 706 824 620 q 540 791 657 791 q 338 706 422 791 q 255 499 255 620 q 338 292 255 378 q 540 207 422 207 m 802 1235 l 644 1235 q 627 1198 633 1204 q 608 1194 620 1192 q 581 1201 597 1195 l 524 1221 q 479 1234 506 1230 q 365 1204 416 1240 q 277 1042 314 1168 l 430 1042 q 446 1077 439 1069 q 466 1084 454 1084 q 489 1079 479 1083 l 549 1057 q 602 1044 575 1046 q 710 1072 661 1037 q 802 1235 759 1107 "},"Ö":{"ha":1079,"x_min":37,"x_max":1042,"o":"m 540 1009 q 894 859 747 1009 q 1042 499 1042 710 q 894 140 1042 289 q 540 -10 747 -10 q 185 140 332 -10 q 37 499 37 289 q 185 859 37 710 q 540 1009 332 1009 m 540 207 q 741 292 657 207 q 824 499 824 378 q 741 706 824 620 q 540 791 657 791 q 338 706 422 791 q 255 499 255 620 q 338 292 255 378 q 540 207 422 207 m 370 1235 q 306 1208 332 1235 q 279 1145 279 1182 q 306 1080 279 1107 q 370 1054 332 1054 q 434 1080 407 1054 q 460 1145 460 1107 q 434 1208 460 1182 q 370 1235 407 1235 m 709 1235 q 645 1208 671 1235 q 618 1145 618 1182 q 645 1080 618 1107 q 709 1054 671 1054 q 773 1080 746 1054 q 800 1145 800 1107 q 773 1208 800 1182 q 709 1235 746 1235 "},"×":{"ha":934,"x_min":119,"x_max":814,"o":"m 269 733 l 467 536 l 665 733 l 814 583 l 617 386 l 814 188 l 665 38 l 467 235 l 269 38 l 119 188 l 317 386 l 119 583 l 269 733 "},"Ø":{"ha":1079,"x_min":37,"x_max":1042,"o":"m 540 1009 q 894 859 747 1009 q 1042 499 1042 710 q 894 140 1042 289 q 540 -10 747 -10 q 185 140 332 -10 q 37 499 37 289 q 185 859 37 710 q 540 1009 332 1009 m 540 207 q 741 292 657 207 q 824 499 824 378 q 741 706 824 620 q 540 791 657 791 q 338 706 422 791 q 255 499 255 620 q 338 292 255 378 q 540 207 422 207 m 231 -84 l 105 -3 l 868 1069 l 996 992 l 231 -84 "},"Ù":{"ha":840,"x_min":81,"x_max":760,"o":"m 547 332 l 547 999 l 760 999 l 760 332 q 661 92 760 192 q 421 -7 561 -7 q 181 93 281 -7 q 81 332 81 192 l 81 999 l 294 999 l 294 332 q 332 243 294 280 q 421 205 368 205 q 510 243 473 205 q 547 332 547 280 m 347 1055 l 536 1055 l 379 1281 l 190 1281 l 347 1055 "},"Ú":{"ha":840,"x_min":81,"x_max":760,"o":"m 547 332 l 547 999 l 760 999 l 760 332 q 661 92 760 192 q 421 -7 561 -7 q 181 93 281 -7 q 81 332 81 192 l 81 999 l 294 999 l 294 332 q 332 243 294 280 q 421 205 368 205 q 510 243 473 205 q 547 332 547 280 m 305 1055 l 494 1055 l 652 1281 l 463 1281 l 305 1055 "},"Û":{"ha":840,"x_min":81,"x_max":760,"o":"m 547 332 l 547 999 l 760 999 l 760 332 q 661 92 760 192 q 421 -7 561 -7 q 181 93 281 -7 q 81 332 81 192 l 81 999 l 294 999 l 294 332 q 332 243 294 280 q 421 205 368 205 q 510 243 473 205 q 547 332 547 280 m 144 1050 l 348 1050 l 420 1141 l 493 1050 l 697 1050 l 490 1300 l 351 1300 l 144 1050 "},"Ü":{"ha":840,"x_min":81,"x_max":760,"o":"m 547 332 l 547 999 l 760 999 l 760 332 q 661 92 760 192 q 421 -7 561 -7 q 181 93 281 -7 q 81 332 81 192 l 81 999 l 294 999 l 294 332 q 332 243 294 280 q 421 205 368 205 q 510 243 473 205 q 547 332 547 280 m 251 1235 q 187 1208 214 1235 q 161 1145 161 1182 q 187 1080 161 1107 q 251 1054 214 1054 q 315 1080 288 1054 q 342 1145 342 1107 q 315 1208 342 1182 q 251 1235 288 1235 m 590 1235 q 526 1208 553 1235 q 500 1145 500 1182 q 526 1080 500 1107 q 590 1054 553 1054 q 654 1080 627 1054 q 681 1145 681 1107 q 654 1208 681 1182 q 590 1235 627 1235 "},"Ý":{"ha":838,"x_min":1,"x_max":837,"o":"m 601 999 l 837 999 l 525 354 l 525 0 l 313 0 l 313 354 l 1 999 l 237 999 l 419 622 l 601 999 m 303 1055 l 492 1055 l 650 1281 l 460 1281 l 303 1055 "},"Þ":{"ha":816,"x_min":81,"x_max":789,"o":"m 271 814 l 271 1000 l 81 1000 l 81 0 l 271 0 l 271 172 l 494 172 q 703 258 616 172 q 789 493 789 344 q 703 728 789 642 q 494 814 616 814 l 271 814 m 494 361 l 271 361 l 271 624 l 494 624 q 568 594 538 624 q 599 493 599 563 q 568 392 599 422 q 494 361 538 361 "},"ß":{"ha":668,"x_min":34,"x_max":677,"o":"m 281 1037 q 126 968 204 1037 q 34 760 34 873 l 34 -41 l 220 -41 l 220 738 q 236 806 220 781 q 304 854 263 854 l 308 854 q 328 850 317 854 q 359 800 359 839 q 351 738 359 753 q 300 552 300 631 q 351 382 300 452 q 436 295 383 343 q 488 213 488 253 q 484 176 489 195 q 447 134 469 136 q 378 245 393 134 l 226 191 q 291 34 248 83 q 444 -51 362 -51 l 462 -51 q 619 33 545 -51 q 677 184 668 96 l 677 210 q 604 397 677 313 q 522 475 576 430 q 484 542 492 503 q 494 616 480 578 q 540 801 540 711 l 540 802 q 499 937 540 878 q 300 1037 424 1037 l 281 1037 "},"à":{"ha":888,"x_min":40,"x_max":814,"o":"m 814 769 l 814 0 l 597 0 l 597 33 q 427 -7 538 -7 q 153 107 267 -7 q 40 385 40 222 q 153 663 40 547 q 427 777 267 777 q 597 730 538 777 l 597 769 l 814 769 m 427 209 q 547 260 498 209 q 597 385 597 312 l 597 385 q 547 510 597 458 q 427 561 498 561 q 307 510 357 561 q 256 385 256 458 q 307 260 256 312 q 427 209 357 209 m 353 826 l 543 826 l 385 1052 l 196 1052 l 353 826 "},"á":{"ha":888,"x_min":40,"x_max":814,"o":"m 814 769 l 814 0 l 597 0 l 597 33 q 427 -7 538 -7 q 153 107 267 -7 q 40 385 40 222 q 153 663 40 547 q 427 777 267 777 q 597 730 538 777 l 597 769 l 814 769 m 427 209 q 547 260 498 209 q 597 385 597 312 l 597 385 q 547 510 597 458 q 427 561 498 561 q 307 510 357 561 q 256 385 256 458 q 307 260 256 312 q 427 209 357 209 m 311 826 l 500 826 l 658 1052 l 469 1052 l 311 826 "},"â":{"ha":888,"x_min":40,"x_max":814,"o":"m 814 769 l 814 0 l 597 0 l 597 33 q 427 -7 538 -7 q 153 107 267 -7 q 40 385 40 222 q 153 663 40 547 q 427 777 267 777 q 597 730 538 777 l 597 769 l 814 769 m 427 209 q 547 260 498 209 q 597 385 597 312 l 597 385 q 547 510 597 458 q 427 561 498 561 q 307 510 357 561 q 256 385 256 458 q 307 260 256 312 q 427 209 357 209 m 219 821 l 422 821 l 495 912 l 568 821 l 772 821 l 564 1071 l 425 1071 l 219 821 "},"ã":{"ha":888,"x_min":40,"x_max":814,"o":"m 814 769 l 814 0 l 597 0 l 597 33 q 427 -7 538 -7 q 153 107 267 -7 q 40 385 40 222 q 153 663 40 547 q 427 777 267 777 q 597 730 538 777 l 597 769 l 814 769 m 427 209 q 547 260 498 209 q 597 385 597 312 l 597 385 q 547 510 597 458 q 427 561 498 561 q 307 510 357 561 q 256 385 256 458 q 307 260 256 312 q 427 209 357 209 m 753 1006 l 595 1006 q 577 967 585 975 q 559 963 570 960 q 532 972 548 966 l 475 991 q 430 1004 457 1001 q 316 975 368 1010 q 228 812 265 939 l 381 812 q 399 848 390 840 q 419 855 408 857 q 440 850 430 854 l 500 827 q 553 814 526 817 q 661 843 612 808 q 753 1006 710 878 "},"ä":{"ha":888,"x_min":40,"x_max":814,"o":"m 814 769 l 814 0 l 597 0 l 597 33 q 427 -7 538 -7 q 153 107 267 -7 q 40 385 40 222 q 153 663 40 547 q 427 777 267 777 q 597 730 538 777 l 597 769 l 814 769 m 427 209 q 547 260 498 209 q 597 385 597 312 l 597 385 q 547 510 597 458 q 427 561 498 561 q 307 510 357 561 q 256 385 256 458 q 307 260 256 312 q 427 209 357 209 m 279 1006 q 215 979 241 1006 q 189 916 189 953 q 215 851 189 878 q 279 825 241 825 q 343 851 316 825 q 370 916 370 878 q 343 979 370 953 q 279 1006 316 1006 m 618 1006 q 554 979 581 1006 q 528 916 528 953 q 554 851 528 878 q 618 825 581 825 q 682 851 655 825 q 709 916 709 878 q 682 979 709 953 q 618 1006 655 1006 "},"å":{"ha":888,"x_min":40,"x_max":814,"o":"m 814 769 l 814 0 l 597 0 l 597 33 q 427 -7 538 -7 q 153 107 267 -7 q 40 385 40 222 q 153 663 40 547 q 427 777 267 777 q 597 730 538 777 l 597 769 l 814 769 m 427 209 q 547 260 498 209 q 597 385 597 312 l 597 385 q 547 510 597 458 q 427 561 498 561 q 307 510 357 561 q 256 385 256 458 q 307 260 256 312 q 427 209 357 209 m 427 940 q 397 928 410 940 q 385 898 385 916 q 397 868 385 880 q 427 856 410 856 q 457 868 444 856 q 469 898 469 881 q 457 927 469 915 q 427 940 444 940 m 427 1056 q 539 1010 493 1056 q 585 898 585 964 q 539 786 585 832 q 427 740 493 740 q 315 786 361 740 q 269 898 269 832 q 315 1010 269 964 q 427 1056 361 1056 "},"æ":{"ha":1347,"x_min":40,"x_max":1372,"o":"m 814 769 l 814 0 l 597 0 l 597 33 q 427 -7 538 -7 q 153 107 267 -7 q 40 385 40 222 q 153 663 40 547 q 427 777 267 777 q 597 730 538 777 l 597 769 l 814 769 m 427 209 q 547 260 498 209 q 597 385 597 312 l 597 385 q 547 510 597 458 q 427 561 498 561 q 307 510 357 561 q 256 385 256 458 q 307 260 256 312 q 427 209 357 209 m 1372 385 l 1372 321 l 825 321 q 865 260 838 288 q 985 209 915 209 q 1105 260 1056 209 q 1117 273 1112 267 l 1307 165 q 1259 107 1286 135 q 985 -7 1145 -7 q 711 107 825 -7 q 598 385 598 222 q 711 663 598 547 q 985 777 825 777 q 1259 663 1145 777 q 1372 385 1372 547 m 831 462 l 1139 462 q 1105 510 1126 488 q 985 561 1056 561 q 865 510 915 561 q 831 462 844 488 "},"ç":{"ha":733,"x_min":41,"x_max":726,"o":"m 518 235 l 609 294 l 726 112 l 635 53 q 428 -7 541 -7 q 154 107 268 -7 q 41 385 41 222 q 154 663 41 547 q 428 777 268 777 q 633 718 538 777 l 724 660 l 609 477 l 517 535 q 428 561 476 561 q 307 510 357 561 q 257 385 257 458 q 307 260 257 312 q 428 209 357 209 q 518 235 477 209 m 336 -130 l 374 0 l 489 0 l 469 -65 q 543 -96 507 -71 q 581 -164 581 -123 q 581 -173 581 -168 q 475 -296 571 -272 q 385 -309 433 -309 q 283 -300 347 -309 l 312 -208 q 373 -210 348 -210 q 414 -208 399 -210 q 454 -165 454 -204 q 424 -136 454 -147 q 336 -130 397 -131 "},"è":{"ha":847,"x_min":43,"x_max":817,"o":"m 817 385 l 817 321 l 271 321 q 310 260 283 288 q 431 209 360 209 q 551 260 501 209 q 562 273 557 267 l 752 165 q 704 107 732 135 q 431 -7 591 -7 q 157 107 270 -7 q 43 385 43 222 q 157 663 43 547 q 431 777 270 777 q 704 663 591 777 q 817 385 817 547 m 276 462 l 585 462 q 551 510 572 488 q 431 561 501 561 q 310 510 360 561 q 276 462 289 488 m 357 826 l 546 826 l 389 1052 l 199 1052 l 357 826 "},"é":{"ha":847,"x_min":43,"x_max":817,"o":"m 817 385 l 817 321 l 271 321 q 310 260 283 288 q 431 209 360 209 q 551 260 501 209 q 562 273 557 267 l 752 165 q 704 107 732 135 q 431 -7 591 -7 q 157 107 270 -7 q 43 385 43 222 q 157 663 43 547 q 431 777 270 777 q 704 663 591 777 q 817 385 817 547 m 276 462 l 585 462 q 551 510 572 488 q 431 561 501 561 q 310 510 360 561 q 276 462 289 488 m 315 826 l 504 826 l 661 1052 l 472 1052 l 315 826 "},"ê":{"ha":847,"x_min":43,"x_max":817,"o":"m 817 385 l 817 321 l 271 321 q 310 260 283 288 q 431 209 360 209 q 551 260 501 209 q 562 273 557 267 l 752 165 q 704 107 732 135 q 431 -7 591 -7 q 157 107 270 -7 q 43 385 43 222 q 157 663 43 547 q 431 777 270 777 q 704 663 591 777 q 817 385 817 547 m 276 462 l 585 462 q 551 510 572 488 q 431 561 501 561 q 310 510 360 561 q 276 462 289 488 m 154 821 l 357 821 l 430 912 l 503 821 l 707 821 l 499 1071 l 360 1071 l 154 821 "},"ë":{"ha":847,"x_min":43,"x_max":817,"o":"m 817 385 l 817 321 l 271 321 q 310 260 283 288 q 431 209 360 209 q 551 260 501 209 q 562 273 557 267 l 752 165 q 704 107 732 135 q 431 -7 591 -7 q 157 107 270 -7 q 43 385 43 222 q 157 663 43 547 q 431 777 270 777 q 704 663 591 777 q 817 385 817 547 m 276 462 l 585 462 q 551 510 572 488 q 431 561 501 561 q 310 510 360 561 q 276 462 289 488 m 260 1006 q 197 979 223 1006 q 170 916 170 953 q 197 851 170 878 q 260 825 223 825 q 325 851 298 825 q 351 916 351 878 q 325 979 351 953 q 260 1006 298 1006 m 600 1006 q 536 979 562 1006 q 509 916 509 953 q 536 851 509 878 q 600 825 562 825 q 664 851 637 825 q 690 916 690 878 q 664 979 690 953 q 600 1006 637 1006 "},"ì":{"ha":390,"x_min":-30,"x_max":317,"o":"m 95 0 l 95 770 l 307 770 l 307 0 l 95 0 m 127 826 l 317 826 l 159 1052 l -30 1052 l 127 826 "},"í":{"ha":393,"x_min":85,"x_max":432,"o":"m 95 0 l 95 770 l 307 770 l 307 0 l 95 0 m 85 826 l 275 826 l 432 1052 l 243 1052 l 85 826 "},"î":{"ha":402,"x_min":-75,"x_max":477,"o":"m 95 0 l 95 770 l 307 770 l 307 0 l 95 0 m -75 821 l 128 821 l 201 912 l 273 821 l 477 821 l 270 1071 l 131 1071 l -75 821 "},"ï":{"ha":405,"x_min":-59,"x_max":461,"o":"m 95 0 l 95 770 l 307 770 l 307 0 l 95 0 m 31 1006 q -33 979 -6 1006 q -59 916 -59 953 q -33 851 -59 878 q 31 825 -6 825 q 95 851 68 825 q 122 916 122 878 q 95 979 122 953 q 31 1006 68 1006 m 370 1006 q 307 979 333 1006 q 280 916 280 953 q 307 851 280 878 q 370 825 333 825 q 434 851 408 825 q 461 916 461 878 q 434 979 461 953 q 370 1006 408 1006 "},"ð":{"ha":874,"x_min":68,"x_max":806,"o":"m 429 193 q 545 235 495 193 q 604 342 594 278 l 606 370 q 553 493 605 442 q 429 545 502 545 q 311 492 361 545 q 261 369 261 440 q 311 245 261 297 q 429 193 361 193 m 795 313 l 794 306 l 793 306 q 669 83 772 172 q 427 -7 565 -7 q 174 103 281 -7 q 68 364 68 213 q 174 625 68 515 q 427 734 281 734 q 559 713 536 734 q 457 804 542 770 l 361 752 l 328 808 l 387 839 q 283 867 361 848 l 344 997 l 397 984 q 536 928 472 966 l 635 986 l 668 929 l 595 887 q 764 628 712 792 q 798 361 806 491 q 795 313 798 337 "},"ñ":{"ha":879,"x_min":81,"x_max":798,"o":"m 439 773 q 692 661 587 773 q 798 388 798 547 l 798 0 l 585 0 l 585 388 q 543 511 585 460 q 439 561 500 561 q 336 511 379 561 q 294 389 294 460 l 294 0 l 81 0 l 81 770 l 294 770 l 294 740 q 439 773 363 773 m 703 1006 l 544 1006 q 526 967 534 975 q 508 963 519 960 q 481 972 497 966 l 424 991 q 379 1004 406 1001 q 266 975 317 1010 q 177 812 214 939 l 330 812 q 348 848 339 840 q 368 855 357 857 q 389 850 379 854 l 449 827 q 502 814 475 817 q 610 843 561 808 q 703 1006 659 878 "},"ò":{"ha":854,"x_min":40,"x_max":814,"o":"m 427 777 q 701 663 587 777 q 814 385 814 547 q 701 107 814 222 q 427 -7 587 -7 q 153 107 267 -7 q 40 385 40 222 q 153 663 40 547 q 427 777 267 777 m 427 209 q 547 260 498 209 q 597 385 597 312 q 547 510 597 458 q 427 561 498 561 q 307 510 357 561 q 256 385 256 458 q 307 260 256 312 q 427 209 357 209 m 353 826 l 543 826 l 385 1052 l 196 1052 l 353 826 "},"ó":{"ha":854,"x_min":40,"x_max":814,"o":"m 427 777 q 701 663 587 777 q 814 385 814 547 q 701 107 814 222 q 427 -7 587 -7 q 153 107 267 -7 q 40 385 40 222 q 153 663 40 547 q 427 777 267 777 m 427 209 q 547 260 498 209 q 597 385 597 312 q 547 510 597 458 q 427 561 498 561 q 307 510 357 561 q 256 385 256 458 q 307 260 256 312 q 427 209 357 209 m 311 826 l 500 826 l 658 1052 l 469 1052 l 311 826 "},"ô":{"ha":854,"x_min":40,"x_max":814,"o":"m 427 777 q 701 663 587 777 q 814 385 814 547 q 701 107 814 222 q 427 -7 587 -7 q 153 107 267 -7 q 40 385 40 222 q 153 663 40 547 q 427 777 267 777 m 427 209 q 547 260 498 209 q 597 385 597 312 q 547 510 597 458 q 427 561 498 561 q 307 510 357 561 q 256 385 256 458 q 307 260 256 312 q 427 209 357 209 m 151 821 l 354 821 l 427 912 l 499 821 l 703 821 l 496 1071 l 357 1071 l 151 821 "},"õ":{"ha":854,"x_min":40,"x_max":814,"o":"m 427 777 q 701 663 587 777 q 814 385 814 547 q 701 107 814 222 q 427 -7 587 -7 q 153 107 267 -7 q 40 385 40 222 q 153 663 40 547 q 427 777 267 777 m 427 209 q 547 260 498 209 q 597 385 597 312 q 547 510 597 458 q 427 561 498 561 q 307 510 357 561 q 256 385 256 458 q 307 260 256 312 q 427 209 357 209 m 690 1006 l 531 1006 q 513 967 521 975 q 495 963 506 960 q 468 972 484 966 l 411 991 q 366 1004 393 1001 q 253 975 304 1010 q 164 812 201 939 l 317 812 q 335 848 326 840 q 355 855 345 857 q 376 850 366 854 l 436 827 q 489 814 463 817 q 597 843 548 808 q 690 1006 646 878 "},"ö":{"ha":854,"x_min":40,"x_max":814,"o":"m 427 777 q 701 663 587 777 q 814 385 814 547 q 701 107 814 222 q 427 -7 587 -7 q 153 107 267 -7 q 40 385 40 222 q 153 663 40 547 q 427 777 267 777 m 427 209 q 547 260 498 209 q 597 385 597 312 q 547 510 597 458 q 427 561 498 561 q 307 510 357 561 q 256 385 256 458 q 307 260 256 312 q 427 209 357 209 m 257 1006 q 193 979 220 1006 q 167 916 167 953 q 193 851 167 878 q 257 825 220 825 q 321 851 294 825 q 348 916 348 878 q 321 979 348 953 q 257 1006 294 1006 m 596 1006 q 532 979 559 1006 q 506 916 506 953 q 532 851 506 878 q 596 825 559 825 q 660 851 633 825 q 687 916 687 878 q 660 979 687 953 q 596 1006 633 1006 "},"÷":{"ha":730,"x_min":81,"x_max":649,"o":"m 81 315 l 81 528 l 649 528 l 649 315 l 81 315 m 259 37 l 259 249 l 471 249 l 471 37 l 259 37 m 259 594 l 259 806 l 471 806 l 471 594 l 259 594 "},"ø":{"ha":854,"x_min":40,"x_max":814,"o":"m 427 777 q 701 663 587 777 q 814 385 814 547 q 701 107 814 222 q 427 -7 587 -7 q 153 107 267 -7 q 40 385 40 222 q 153 663 40 547 q 427 777 267 777 m 427 209 q 547 260 498 209 q 597 385 597 312 q 547 510 597 458 q 427 561 498 561 q 307 510 357 561 q 256 385 256 458 q 307 260 256 312 q 427 209 357 209 m 184 -91 l 58 -10 l 663 840 l 791 763 l 184 -91 "},"ù":{"ha":851,"x_min":81,"x_max":770,"o":"m 770 770 l 770 0 l 557 0 l 557 23 q 426 -7 494 -7 q 182 106 283 -7 q 81 378 81 219 l 81 770 l 294 770 l 294 378 q 333 257 294 308 q 426 205 372 205 q 518 257 479 205 q 557 378 557 308 l 557 770 l 770 770 m 352 826 l 541 826 l 384 1052 l 195 1052 l 352 826 "},"ú":{"ha":851,"x_min":81,"x_max":770,"o":"m 770 770 l 770 0 l 557 0 l 557 23 q 426 -7 494 -7 q 182 106 283 -7 q 81 378 81 219 l 81 770 l 294 770 l 294 378 q 333 257 294 308 q 426 205 372 205 q 518 257 479 205 q 557 378 557 308 l 557 770 l 770 770 m 310 826 l 499 826 l 656 1052 l 467 1052 l 310 826 "},"û":{"ha":851,"x_min":81,"x_max":770,"o":"m 770 770 l 770 0 l 557 0 l 557 23 q 426 -7 494 -7 q 182 106 283 -7 q 81 378 81 219 l 81 770 l 294 770 l 294 378 q 333 257 294 308 q 426 205 372 205 q 518 257 479 205 q 557 378 557 308 l 557 770 l 770 770 m 149 821 l 353 821 l 425 912 l 498 821 l 702 821 l 494 1071 l 355 1071 l 149 821 "},"ü":{"ha":851,"x_min":81,"x_max":770,"o":"m 770 770 l 770 0 l 557 0 l 557 23 q 426 -7 494 -7 q 182 106 283 -7 q 81 378 81 219 l 81 770 l 294 770 l 294 378 q 333 257 294 308 q 426 205 372 205 q 518 257 479 205 q 557 378 557 308 l 557 770 l 770 770 m 256 1006 q 192 979 218 1006 q 165 916 165 953 q 192 851 165 878 q 256 825 218 825 q 320 851 293 825 q 347 916 347 878 q 320 979 347 953 q 256 1006 293 1006 m 595 1006 q 531 979 557 1006 q 505 916 505 953 q 531 851 505 878 q 595 825 557 825 q 659 851 632 825 q 686 916 686 878 q 659 979 686 953 q 595 1006 632 1006 "},"ý":{"ha":888,"x_min":43,"x_max":817,"o":"m 260 770 l 260 387 q 310 263 260 315 q 431 212 360 212 q 551 263 501 212 q 601 387 601 315 l 601 770 l 817 770 l 817 27 q 703 -249 817 -135 q 431 -364 590 -364 q 210 -294 310 -364 q 66 -111 110 -224 l 269 -35 q 333 -116 288 -85 q 431 -147 377 -147 q 551 -96 501 -147 q 601 28 601 -44 l 601 56 q 431 -5 548 -5 q 157 110 270 -5 q 43 387 43 226 l 43 770 l 260 770 m 329 826 l 518 826 l 675 1052 l 486 1052 l 329 826 "},"þ":{"ha":884,"x_min":81,"x_max":857,"o":"m 349 261 q 469 209 399 209 q 591 261 540 209 q 640 386 640 313 q 591 511 640 458 q 469 562 540 562 q 349 511 399 562 q 298 386 298 458 q 349 261 298 313 m 294 999 l 294 738 q 469 780 378 780 q 743 664 630 780 q 857 386 857 549 q 743 108 857 223 q 469 -7 630 -7 q 298 33 378 -7 l 298 -230 l 81 -230 l 81 999 l 294 999 "},"ÿ":{"ha":888,"x_min":43,"x_max":817,"o":"m 260 770 l 260 387 q 310 263 260 315 q 431 212 360 212 q 551 263 501 212 q 601 387 601 315 l 601 770 l 817 770 l 817 27 q 703 -249 817 -135 q 431 -364 590 -364 q 210 -294 310 -364 q 66 -111 110 -224 l 269 -35 q 333 -116 288 -85 q 431 -147 377 -147 q 551 -96 501 -147 q 601 28 601 -44 l 601 56 q 431 -5 548 -5 q 157 110 270 -5 q 43 387 43 226 l 43 770 l 260 770 m 275 1006 q 211 979 237 1006 q 184 916 184 953 q 211 851 184 878 q 275 825 237 825 q 339 851 312 825 q 366 916 366 878 q 339 979 366 953 q 275 1006 312 1006 m 614 1006 q 550 979 576 1006 q 524 916 524 953 q 550 851 524 878 q 614 825 576 825 q 678 851 651 825 q 705 916 705 878 q 678 979 705 953 q 614 1006 651 1006 "},"ı":{"ha":402,"x_min":95,"x_max":307,"o":"m 95 0 l 95 770 l 307 770 l 307 0 l 95 0 "},"ˆ":{"ha":517,"x_min":-18,"x_max":535,"o":"m -18 821 l 186 821 l 258 912 l 331 821 l 535 821 l 328 1071 l 189 1071 l -18 821 "},"ˇ":{"ha":517,"x_min":-18,"x_max":535,"o":"m 186 1071 l -18 1071 l 189 821 l 328 821 l 535 1071 l 331 1071 l 258 979 l 186 1071 "},"ˉ":{"ha":355,"x_min":-34,"x_max":389,"o":"m -34 991 l -34 829 l 389 829 l 389 991 l -34 991 "},"˘":{"ha":484,"x_min":-20,"x_max":504,"o":"m 153 1006 l -20 1006 q 241 808 96 808 q 504 1006 385 808 l 330 1006 q 241 963 293 963 q 153 1006 189 963 "},"˙":{"ha":335,"x_min":68,"x_max":267,"o":"m 168 1044 q 97 1015 126 1044 q 68 944 68 985 q 97 873 68 903 q 168 844 126 844 q 238 874 210 844 q 267 944 267 903 q 238 1014 267 985 q 168 1044 210 1044 "},"˚":{"ha":330,"x_min":7,"x_max":323,"o":"m 165 940 q 135 928 147 940 q 123 898 123 916 q 135 868 123 880 q 165 856 147 856 q 194 868 182 856 q 207 898 207 881 q 194 927 207 915 q 165 940 182 940 m 165 1056 q 277 1010 231 1056 q 323 898 323 964 q 277 786 323 832 q 165 740 231 740 q 53 786 99 740 q 7 898 7 832 q 53 1010 7 964 q 165 1056 99 1056 "},"˛":{"ha":377,"x_min":47,"x_max":345,"o":"m 153 0 l 307 0 q 243 -52 272 -24 q 206 -121 214 -81 q 205 -142 205 -132 q 218 -176 205 -160 q 265 -196 233 -192 q 303 -193 280 -197 q 345 -181 326 -189 l 345 -261 q 250 -277 310 -277 q 156 -267 192 -277 q 96 -240 120 -257 q 59 -200 71 -222 q 47 -152 47 -178 q 81 -66 47 -109 q 153 0 115 -24 "},"˜":{"ha":446,"x_min":-39,"x_max":487,"o":"m 487 1006 l 328 1006 q 311 967 318 975 q 292 963 303 960 q 265 972 281 966 l 208 991 q 163 1004 191 1001 q 50 975 101 1010 q -39 812 -1 939 l 115 812 q 133 848 123 840 q 153 855 142 857 q 174 850 163 854 l 233 827 q 286 814 260 817 q 394 843 345 808 q 487 1006 444 878 "},"˝":{"ha":694,"x_min":-1,"x_max":713,"o":"m -1 826 l 188 826 l 345 1052 l 156 1052 l -1 826 m 366 826 l 555 826 l 713 1052 l 524 1052 l 366 826 "},"–":{"ha":635,"x_min":-34,"x_max":669,"o":"m -34 454 l -34 298 l 669 298 l 669 454 l -34 454 "},"—":{"ha":771,"x_min":-34,"x_max":805,"o":"m -34 454 l -34 298 l 805 298 l 805 454 l -34 454 "},"‘":{"ha":375,"x_min":81,"x_max":294,"o":"m 264 1000 l 210 817 l 294 817 l 294 605 l 81 605 l 81 802 l 156 1000 l 264 1000 "},"’":{"ha":375,"x_min":81,"x_max":294,"o":"m 111 605 l 165 788 l 81 788 l 81 1000 l 294 1000 l 294 803 l 219 605 l 111 605 "},"‚":{"ha":375,"x_min":81,"x_max":294,"o":"m 111 -197 l 165 -14 l 81 -14 l 81 198 l 294 198 l 294 1 l 219 -197 l 111 -197 "},"“":{"ha":672,"x_min":81,"x_max":591,"o":"m 264 1000 l 210 817 l 294 817 l 294 605 l 81 605 l 81 802 l 156 1000 l 264 1000 m 561 1000 l 507 817 l 591 817 l 591 605 l 378 605 l 378 802 l 453 1000 l 561 1000 "},"”":{"ha":672,"x_min":81,"x_max":591,"o":"m 111 605 l 165 788 l 81 788 l 81 1000 l 294 1000 l 294 803 l 219 605 l 111 605 m 408 605 l 463 788 l 378 788 l 378 1000 l 591 1000 l 591 803 l 516 605 l 408 605 "},"„":{"ha":672,"x_min":81,"x_max":591,"o":"m 111 -197 l 165 -14 l 81 -14 l 81 198 l 294 198 l 294 1 l 219 -197 l 111 -197 m 408 -197 l 463 -14 l 378 -14 l 378 198 l 591 198 l 591 1 l 516 -197 l 408 -197 "},"†":{"ha":732,"x_min":7,"x_max":726,"o":"m 312 -258 l 312 990 l 420 990 l 420 -258 l 312 -258 m 726 576 l 7 576 l 7 685 l 726 685 l 726 576 "},"‡":{"ha":732,"x_min":7,"x_max":726,"o":"m 312 -258 l 312 990 l 420 990 l 420 -258 l 312 -258 m 726 576 l 7 576 l 7 685 l 726 685 l 726 576 m 726 34 l 7 34 l 7 142 l 726 142 l 726 34 "},"•":{"ha":565,"x_min":68,"x_max":497,"o":"m 282 692 q 131 629 193 692 q 68 477 68 566 q 131 325 68 388 q 282 262 193 262 q 434 325 372 262 q 497 477 497 388 q 434 629 497 566 q 282 692 372 692 "},"…":{"ha":1389,"x_min":81,"x_max":1220,"o":"m 81 0 l 81 212 l 294 212 l 294 0 l 81 0 m 545 0 l 545 212 l 757 212 l 757 0 l 545 0 m 1008 0 l 1008 212 l 1220 212 l 1220 0 l 1008 0 "},"‹":{"ha":416,"x_min":12,"x_max":476,"o":"m 262 32 l 476 32 l 227 371 l 475 709 l 261 709 l 12 371 l 262 32 "},"›":{"ha":416,"x_min":-60,"x_max":404,"o":"m -60 32 l 154 32 l 404 371 l 155 709 l -60 709 l 189 371 l -60 32 "},"⁄":{"ha":345,"x_min":-251,"x_max":582,"o":"m -251 -18 l -165 -18 l 582 1031 l 496 1031 l -251 -18 "},"₣":{"ha":737,"x_min":-7,"x_max":718,"o":"m 129 0 l 129 990 l 718 990 l 718 882 l 237 882 l 237 550 l 718 550 l 718 441 l 237 441 l 237 0 l 129 0 m -7 193 l -7 302 l 385 302 l 385 193 l -7 193 "},"₤":{"ha":824,"x_min":75,"x_max":749,"o":"m 553 130 q 695 109 651 109 l 749 109 l 749 0 l 695 0 q 530 24 639 0 q 379 47 428 46 q 184 -5 248 34 l 106 63 q 245 304 226 227 l 75 304 l 75 412 l 252 412 q 240 455 248 439 q 233 471 233 471 l 75 471 l 75 580 l 199 580 q 251 873 170 747 q 453 990 326 990 q 590 941 528 990 q 689 802 652 890 l 709 751 l 609 710 l 589 760 q 453 882 539 882 q 342 814 386 882 q 310 580 279 715 l 583 580 l 583 471 l 349 471 q 361 412 358 442 l 583 412 l 583 304 l 356 304 q 282 139 344 240 q 553 130 391 170 "},"₧":{"ha":1256,"x_min":75,"x_max":1234,"o":"m 172 592 l 361 592 q 453 635 415 592 q 492 737 492 677 q 453 840 492 797 q 361 882 415 882 l 172 882 l 172 592 m 635 627 l 568 627 q 523 558 551 590 q 361 484 456 484 l 172 484 l 172 0 l 75 0 l 75 990 l 361 990 q 523 916 456 990 q 589 737 589 842 l 589 736 l 635 736 l 635 990 l 744 990 l 744 736 l 943 736 q 1005 743 972 743 q 1167 680 1100 743 q 1234 528 1234 616 l 1124 528 q 1089 602 1124 571 q 1005 633 1054 633 q 921 602 956 633 q 886 528 886 571 q 917 461 886 483 q 1019 422 941 444 q 1161 363 1118 395 q 1234 208 1234 309 q 1167 56 1234 119 q 1005 -7 1100 -7 q 843 56 910 -7 q 776 208 776 119 l 886 208 q 921 134 886 164 q 1005 103 956 103 q 1089 134 1054 103 q 1124 208 1124 164 q 1093 275 1124 254 q 989 315 1068 294 q 849 374 891 342 q 776 528 776 427 q 801 627 776 582 l 744 627 l 744 0 l 635 0 l 635 627 "},"€":{"ha":943,"x_min":81,"x_max":862,"o":"m 595 654 l 578 514 l 380 514 q 380 498 380 506 q 380 482 380 491 l 575 482 l 557 337 l 406 337 q 541 212 450 212 q 671 294 631 212 l 862 202 q 730 55 817 110 q 541 0 642 0 q 250 174 355 0 q 186 337 207 245 l 81 337 l 81 482 l 168 482 q 168 498 168 494 q 168 514 168 503 l 81 514 l 81 659 l 186 659 q 250 823 207 751 q 541 996 355 996 q 730 941 642 996 q 862 794 817 886 l 671 702 q 541 784 631 784 q 431 713 475 784 q 406 659 417 689 l 595 659 l 595 654 "},"№":{"ha":770,"x_min":75,"x_max":1194,"o":"m 587 235 l 587 990 l 695 990 l 695 0 l 597 0 l 287 567 l 241 662 l 183 756 l 183 0 l 75 0 l 75 990 l 173 990 l 484 424 l 535 323 l 587 235 m 814 -3 l 814 96 l 1194 96 l 1194 -3 l 814 -3 m 987 654 q 1132 594 1072 654 q 1192 447 1192 532 q 1132 300 1192 361 q 987 239 1072 239 q 843 300 903 239 q 783 447 783 361 q 843 594 783 532 q 987 654 903 654 m 987 326 q 1071 361 1036 326 q 1105 447 1105 397 q 1071 532 1105 497 q 987 568 1036 568 q 903 532 939 568 q 869 447 869 497 q 903 361 869 397 q 987 326 939 326 "},"™":{"ha":773,"x_min":35,"x_max":691,"o":"m 35 999 l 310 999 l 310 914 l 220 914 l 220 600 l 124 600 l 124 914 l 35 914 l 35 999 m 309 999 l 389 999 l 500 747 l 612 999 l 691 999 l 691 600 l 596 600 l 596 753 l 529 600 l 471 600 l 405 753 l 405 600 l 309 600 l 309 999 "},"∂":{"ha":663,"x_min":88,"x_max":588,"o":"m 473 450 l 474 439 l 474 174 q 454 127 474 146 q 408 107 435 107 l 269 107 q 222 127 241 107 q 202 174 202 146 l 202 435 q 222 482 202 463 q 269 501 241 501 l 408 501 q 449 487 431 501 q 473 450 467 472 m 426 615 q 408 616 423 616 l 269 616 q 141 562 193 616 q 88 435 88 509 l 88 174 q 141 46 88 99 q 269 -7 194 -7 l 408 -7 q 535 46 482 -7 q 588 174 588 99 l 588 417 q 557 589 587 491 q 441 817 513 727 q 394 867 418 845 q 189 954 304 947 l 132 957 l 125 843 l 182 840 q 353 745 281 834 q 426 615 399 689 "},"∆":{"ha":848,"x_min":24,"x_max":845,"o":"m 24 -7 l 845 -7 l 434 967 l 24 -7 m 688 97 l 180 97 l 434 699 l 688 97 "},"∏":{"ha":822,"x_min":37,"x_max":798,"o":"m 798 956 l 37 956 l 37 842 l 189 842 l 189 -7 l 302 -7 l 302 842 l 533 842 l 533 -7 l 647 -7 l 647 842 l 798 842 l 798 956 "},"∑":{"ha":894,"x_min":54,"x_max":853,"o":"m 257 842 l 853 842 l 853 956 l 54 956 l 54 846 l 576 475 l 54 104 l 54 -7 l 853 -7 l 853 108 l 257 108 l 773 475 l 257 842 "},"−":{"ha":730,"x_min":81,"x_max":649,"o":"m 81 315 l 81 528 l 649 528 l 649 315 l 81 315 "},"√":{"ha":672,"x_min":28,"x_max":659,"o":"m 344 1143 l 188 197 l 121 392 l 28 361 l 155 -7 l 252 -7 l 425 1046 l 659 1046 l 659 1143 l 344 1143 "},"∞":{"ha":1410,"x_min":88,"x_max":1335,"o":"m 355 214 q 483 240 422 214 q 597 313 543 267 q 698 417 652 359 l 711 435 l 726 417 q 826 313 770 359 q 941 240 880 267 q 1069 214 1000 214 q 1145 226 1107 214 q 1217 264 1184 239 q 1279 326 1251 288 q 1320 412 1304 363 q 1335 524 1335 460 q 1320 635 1335 587 q 1278 722 1304 685 q 1217 785 1252 759 q 1145 822 1183 810 q 1069 836 1107 836 q 941 808 1000 834 q 826 734 880 781 q 726 630 770 688 l 711 612 l 698 630 q 597 734 653 688 q 483 808 544 781 q 355 836 422 834 q 277 822 316 836 q 205 785 240 810 q 144 722 171 759 q 103 635 119 684 q 88 524 88 585 q 103 413 88 462 q 144 327 119 364 q 204 264 170 290 q 276 227 238 239 q 355 214 315 214 m 352 326 q 269 350 306 327 q 210 419 231 375 q 188 524 188 464 q 210 628 188 583 q 269 696 231 672 q 352 721 306 720 q 461 694 409 720 q 555 629 509 671 q 635 541 598 588 l 648 524 l 635 507 q 494 370 564 414 q 352 326 423 326 m 789 540 q 868 630 826 589 q 962 695 913 671 q 1072 721 1014 720 q 1152 699 1116 721 q 1212 630 1190 675 q 1236 524 1235 586 q 1213 419 1235 464 q 1154 350 1192 375 q 1072 326 1118 327 q 962 352 1014 327 q 869 417 913 376 q 789 507 827 456 l 777 524 l 789 540 "},"∫":{"ha":621,"x_min":-44,"x_max":679,"o":"m 325 857 q 255 448 302 721 q 185 41 209 177 q 145 -52 178 -9 q 12 -113 98 -113 l -22 -113 l -44 -235 q 16 -239 -10 -239 q 248 -124 164 -239 q 310 20 299 -56 q 380 428 333 157 q 450 836 427 702 q 490 929 457 886 q 623 989 536 989 l 657 989 l 679 1112 q 619 1116 645 1116 q 387 1001 471 1116 q 325 857 336 933 "},"≈":{"ha":678,"x_min":97,"x_max":587,"o":"m 587 462 l 587 580 q 425 493 475 493 l 422 493 q 333 528 393 494 q 214 570 259 570 q 97 509 155 570 l 97 391 q 212 469 184 468 l 214 469 q 282 441 233 469 q 416 393 361 395 l 427 393 q 587 462 503 393 m 587 257 l 587 375 q 425 288 475 288 l 422 288 q 333 323 393 290 q 214 366 259 366 q 97 304 155 365 l 97 186 q 212 264 184 263 l 214 264 q 282 237 233 264 q 416 188 361 191 l 427 188 q 587 257 503 188 "},"≤":{"ha":602,"x_min":14,"x_max":588,"o":"m 14 81 l 14 -20 l 588 -20 l 588 81 l 14 81 m 14 518 l 14 441 l 586 124 l 586 240 l 152 479 l 586 720 l 586 836 l 14 518 "},"≥":{"ha":602,"x_min":14,"x_max":588,"o":"m 588 -20 l 588 81 l 14 81 l 14 -20 l 588 -20 m 587 441 l 587 518 l 16 836 l 16 720 l 450 479 l 16 240 l 16 124 l 587 441 "},"":{"ha":972,"x_min":81,"x_max":877,"o":"m 233 925 q 451 999 311 999 l 564 999 l 564 786 l 451 786 q 380 770 395 786 q 365 709 365 757 l 365 694 l 563 694 l 563 481 l 365 481 l 365 0 l 153 0 l 153 481 l 81 481 l 81 694 l 153 694 l 153 709 q 233 925 153 848 m 665 0 l 665 770 l 877 770 l 877 0 l 665 0 m 770 1006 q 706 979 732 1006 q 680 916 680 953 q 706 851 680 878 q 770 825 732 825 q 834 851 807 825 q 861 916 861 878 q 834 979 861 953 q 770 1006 807 1006 "},"":{"ha":985,"x_min":81,"x_max":884,"o":"m 233 925 q 451 999 311 999 l 564 999 l 564 786 l 451 786 q 380 770 395 786 q 365 709 365 757 l 365 694 l 563 694 l 563 481 l 365 481 l 365 0 l 153 0 l 153 481 l 81 481 l 81 694 l 153 694 l 153 709 q 233 925 153 848 m 671 0 l 671 999 l 884 999 l 884 0 l 671 0 "},"Ā":{"ha":860,"x_min":1,"x_max":859,"o":"m 334 366 l 528 366 l 430 644 l 334 366 m 356 999 l 504 999 l 859 0 l 643 0 l 585 186 l 276 186 l 217 0 l 1 0 l 356 999 m 219 1221 l 219 1059 l 642 1059 l 642 1221 l 219 1221 "},"ā":{"ha":888,"x_min":40,"x_max":814,"o":"m 814 769 l 814 0 l 597 0 l 597 33 q 427 -7 538 -7 q 153 107 267 -7 q 40 385 40 222 q 153 663 40 547 q 427 777 267 777 q 597 730 538 777 l 597 769 l 814 769 m 427 209 q 547 260 498 209 q 597 385 597 312 l 597 385 q 547 510 597 458 q 427 561 498 561 q 307 510 357 561 q 256 385 256 458 q 307 260 256 312 q 427 209 357 209 m 216 991 l 216 829 l 638 829 l 638 991 l 216 991 "},"Ă":{"ha":860,"x_min":1,"x_max":859,"o":"m 334 366 l 528 366 l 430 644 l 334 366 m 356 999 l 504 999 l 859 0 l 643 0 l 585 186 l 276 186 l 217 0 l 1 0 l 356 999 m 340 1235 l 168 1235 q 429 1038 284 1038 q 692 1235 573 1038 l 518 1235 q 429 1192 481 1192 q 340 1235 377 1192 "},"ă":{"ha":888,"x_min":40,"x_max":814,"o":"m 814 769 l 814 0 l 597 0 l 597 33 q 427 -7 538 -7 q 153 107 267 -7 q 40 385 40 222 q 153 663 40 547 q 427 777 267 777 q 597 730 538 777 l 597 769 l 814 769 m 427 209 q 547 260 498 209 q 597 385 597 312 l 597 385 q 547 510 597 458 q 427 561 498 561 q 307 510 357 561 q 256 385 256 458 q 307 260 256 312 q 427 209 357 209 m 338 1006 l 165 1006 q 427 808 281 808 q 689 1006 570 808 l 515 1006 q 427 963 478 963 q 338 1006 374 963 "},"Ą":{"ha":860,"x_min":1,"x_max":874,"o":"m 334 366 l 528 366 l 430 644 l 334 366 m 356 999 l 504 999 l 859 0 l 643 0 l 585 186 l 276 186 l 217 0 l 1 0 l 356 999 m 683 0 l 837 0 q 773 -52 802 -24 q 736 -121 744 -81 q 734 -142 734 -132 q 747 -176 734 -160 q 795 -196 763 -192 q 832 -193 810 -197 q 874 -181 855 -189 l 874 -261 q 780 -277 840 -277 q 686 -267 722 -277 q 625 -240 650 -257 q 589 -200 601 -222 q 577 -152 577 -178 q 611 -66 577 -109 q 683 0 645 -24 "},"ą":{"ha":888,"x_min":40,"x_max":846,"o":"m 814 769 l 814 0 l 597 0 l 597 33 q 427 -7 538 -7 q 153 107 267 -7 q 40 385 40 222 q 153 663 40 547 q 427 777 267 777 q 597 730 538 777 l 597 769 l 814 769 m 427 209 q 547 260 498 209 q 597 385 597 312 l 597 385 q 547 510 597 458 q 427 561 498 561 q 307 510 357 561 q 256 385 256 458 q 307 260 256 312 q 427 209 357 209 m 654 1 l 808 1 q 744 -52 773 -23 q 707 -120 715 -80 q 706 -141 706 -132 q 719 -175 706 -159 q 766 -195 734 -191 q 804 -192 781 -197 q 846 -180 827 -188 l 846 -260 q 751 -276 811 -276 q 657 -266 693 -276 q 597 -239 621 -256 q 561 -199 572 -222 q 549 -151 549 -177 q 583 -65 549 -108 q 654 1 616 -23 "},"Ć":{"ha":958,"x_min":59,"x_max":960,"o":"m 788 323 l 959 191 q 796 50 893 102 q 560 -10 686 -10 q 206 140 353 -10 q 59 499 59 289 q 206 859 59 710 q 560 1009 353 1009 q 796 949 686 1009 q 960 808 894 896 l 788 675 q 560 791 705 791 q 359 706 443 791 q 276 499 276 620 q 359 292 276 378 q 560 207 443 207 q 788 323 704 207 m 394 1055 l 583 1055 l 741 1281 l 551 1281 l 394 1055 "},"ć":{"ha":733,"x_min":41,"x_max":726,"o":"m 518 235 l 609 294 l 726 112 l 635 53 q 428 -7 541 -7 q 154 107 268 -7 q 41 385 41 222 q 154 663 41 547 q 428 777 268 777 q 633 718 538 777 l 724 660 l 609 477 l 517 535 q 428 561 476 561 q 307 510 357 561 q 257 385 257 458 q 307 260 257 312 q 428 209 357 209 q 518 235 477 209 m 268 826 l 457 826 l 614 1052 l 425 1052 l 268 826 "},"Ĉ":{"ha":958,"x_min":59,"x_max":960,"o":"m 788 323 l 959 191 q 796 50 893 102 q 560 -10 686 -10 q 206 140 353 -10 q 59 499 59 289 q 206 859 59 710 q 560 1009 353 1009 q 796 949 686 1009 q 960 808 894 896 l 788 675 q 560 791 705 791 q 359 706 443 791 q 276 499 276 620 q 359 292 276 378 q 560 207 443 207 q 788 323 704 207 m 233 1050 l 437 1050 l 509 1141 l 582 1050 l 786 1050 l 578 1300 l 439 1300 l 233 1050 "},"ĉ":{"ha":733,"x_min":41,"x_max":726,"o":"m 518 235 l 609 294 l 726 112 l 635 53 q 428 -7 541 -7 q 154 107 268 -7 q 41 385 41 222 q 154 663 41 547 q 428 777 268 777 q 633 718 538 777 l 724 660 l 609 477 l 517 535 q 428 561 476 561 q 307 510 357 561 q 257 385 257 458 q 307 260 257 312 q 428 209 357 209 q 518 235 477 209 m 107 821 l 311 821 l 383 912 l 456 821 l 660 821 l 452 1071 l 313 1071 l 107 821 "},"Ċ":{"ha":958,"x_min":59,"x_max":960,"o":"m 788 323 l 959 191 q 796 50 893 102 q 560 -10 686 -10 q 206 140 353 -10 q 59 499 59 289 q 206 859 59 710 q 560 1009 353 1009 q 796 949 686 1009 q 960 808 894 896 l 788 675 q 560 791 705 791 q 359 706 443 791 q 276 499 276 620 q 359 292 276 378 q 560 207 443 207 q 788 323 704 207 m 509 1273 q 439 1244 468 1273 q 410 1173 410 1215 q 439 1103 410 1132 q 509 1074 468 1074 q 580 1103 551 1074 q 609 1173 609 1133 q 580 1243 609 1214 q 509 1273 551 1273 "},"ċ":{"ha":733,"x_min":41,"x_max":726,"o":"m 518 235 l 609 294 l 726 112 l 635 53 q 428 -7 541 -7 q 154 107 268 -7 q 41 385 41 222 q 154 663 41 547 q 428 777 268 777 q 633 718 538 777 l 724 660 l 609 477 l 517 535 q 428 561 476 561 q 307 510 357 561 q 257 385 257 458 q 307 260 257 312 q 428 209 357 209 q 518 235 477 209 m 384 1044 q 313 1015 342 1044 q 284 944 284 985 q 313 873 284 903 q 384 844 342 844 q 455 874 426 844 q 484 944 484 903 q 455 1014 484 985 q 384 1044 426 1044 "},"Č":{"ha":958,"x_min":59,"x_max":960,"o":"m 788 323 l 959 191 q 796 50 893 102 q 560 -10 686 -10 q 206 140 353 -10 q 59 499 59 289 q 206 859 59 710 q 560 1009 353 1009 q 796 949 686 1009 q 960 808 894 896 l 788 675 q 560 791 705 791 q 359 706 443 791 q 276 499 276 620 q 359 292 276 378 q 560 207 443 207 q 788 323 704 207 m 437 1300 l 233 1300 l 439 1050 l 578 1050 l 786 1300 l 582 1300 l 509 1208 l 437 1300 "},"č":{"ha":733,"x_min":41,"x_max":726,"o":"m 518 235 l 609 294 l 726 112 l 635 53 q 428 -7 541 -7 q 154 107 268 -7 q 41 385 41 222 q 154 663 41 547 q 428 777 268 777 q 633 718 538 777 l 724 660 l 609 477 l 517 535 q 428 561 476 561 q 307 510 357 561 q 257 385 257 458 q 307 260 257 312 q 428 209 357 209 q 518 235 477 209 m 311 1071 l 107 1071 l 313 821 l 452 821 l 660 1071 l 456 1071 l 383 979 l 311 1071 "},"Ď":{"ha":935,"x_min":81,"x_max":884,"o":"m 81 999 l 385 999 q 737 852 591 999 q 884 499 884 706 q 737 146 884 293 q 385 0 591 0 l 81 0 l 81 999 m 294 212 l 385 212 q 587 296 503 212 q 671 499 671 380 q 587 702 671 618 q 385 786 503 786 l 294 786 l 294 212 m 410 1300 l 206 1300 l 412 1050 l 551 1050 l 759 1300 l 555 1300 l 482 1208 l 410 1300 "},"ď":{"ha":1160,"x_min":40,"x_max":1135,"o":"m 816 999 l 816 0 l 599 0 l 599 30 q 428 -10 519 -10 q 153 106 267 -10 q 40 384 40 221 q 153 662 40 546 q 428 777 267 777 q 599 737 519 777 l 599 999 l 816 999 m 428 207 q 549 258 498 207 q 599 384 599 311 q 549 508 599 457 q 428 560 498 560 q 307 508 357 560 q 257 384 257 457 q 307 258 257 311 q 428 207 357 207 m 952 605 l 1006 788 l 922 788 l 922 1000 l 1135 1000 l 1135 803 l 1060 605 l 952 605 "},"Đ":{"ha":935,"x_min":-50,"x_max":884,"o":"m 81 999 l 385 999 q 737 852 591 999 q 884 499 884 706 q 737 146 884 293 q 385 0 591 0 l 81 0 l 81 999 m 294 212 l 385 212 q 587 296 503 212 q 671 499 671 380 q 587 702 671 618 q 385 786 503 786 l 294 786 l 294 212 m -50 393 l -50 606 l 492 606 l 492 393 l -50 393 "},"đ":{"ha":964,"x_min":51,"x_max":958,"o":"m 827 999 l 827 0 l 610 0 l 610 30 q 439 -10 530 -10 q 164 106 278 -10 q 51 384 51 221 q 164 662 51 546 q 439 777 278 777 q 610 737 530 777 l 610 999 l 827 999 m 439 207 q 560 258 509 207 q 610 384 610 311 q 560 508 610 457 q 439 560 509 560 q 318 508 368 560 q 268 384 268 457 q 318 258 268 311 q 439 207 368 207 m 409 808 l 409 953 l 958 953 l 958 808 l 409 808 "},"Ē":{"ha":755,"x_min":81,"x_max":721,"o":"m 81 0 l 81 999 l 721 999 l 721 787 l 294 787 l 294 607 l 721 607 l 721 395 l 294 395 l 294 212 l 721 212 l 721 0 l 81 0 m 190 1221 l 190 1059 l 612 1059 l 612 1221 l 190 1221 "},"ē":{"ha":847,"x_min":43,"x_max":817,"o":"m 817 385 l 817 321 l 271 321 q 310 260 283 288 q 431 209 360 209 q 551 260 501 209 q 562 273 557 267 l 752 165 q 704 107 732 135 q 431 -7 591 -7 q 157 107 270 -7 q 43 385 43 222 q 157 663 43 547 q 431 777 270 777 q 704 663 591 777 q 817 385 817 547 m 276 462 l 585 462 q 551 510 572 488 q 431 561 501 561 q 310 510 360 561 q 276 462 289 488 m 219 991 l 219 829 l 642 829 l 642 991 l 219 991 "},"Ĕ":{"ha":755,"x_min":81,"x_max":721,"o":"m 81 0 l 81 999 l 721 999 l 721 787 l 294 787 l 294 607 l 721 607 l 721 395 l 294 395 l 294 212 l 721 212 l 721 0 l 81 0 m 312 1235 l 140 1235 q 401 1038 256 1038 q 663 1235 545 1038 l 490 1235 q 401 1192 452 1192 q 312 1235 349 1192 "},"ĕ":{"ha":847,"x_min":43,"x_max":817,"o":"m 817 385 l 817 321 l 271 321 q 310 260 283 288 q 431 209 360 209 q 551 260 501 209 q 562 273 557 267 l 752 165 q 704 107 732 135 q 431 -7 591 -7 q 157 107 270 -7 q 43 385 43 222 q 157 663 43 547 q 431 777 270 777 q 704 663 591 777 q 817 385 817 547 m 276 462 l 585 462 q 551 510 572 488 q 431 561 501 561 q 310 510 360 561 q 276 462 289 488 m 341 1006 l 169 1006 q 430 808 285 808 q 692 1006 574 808 l 519 1006 q 430 963 481 963 q 341 1006 378 963 "},"Ė":{"ha":755,"x_min":81,"x_max":721,"o":"m 81 0 l 81 999 l 721 999 l 721 787 l 294 787 l 294 607 l 721 607 l 721 395 l 294 395 l 294 212 l 721 212 l 721 0 l 81 0 m 401 1273 q 331 1244 360 1273 q 302 1173 302 1215 q 331 1103 302 1132 q 401 1074 360 1074 q 472 1103 444 1074 q 501 1173 501 1133 q 472 1243 501 1214 q 401 1273 444 1273 "},"ė":{"ha":847,"x_min":43,"x_max":817,"o":"m 817 385 l 817 321 l 271 321 q 310 260 283 288 q 431 209 360 209 q 551 260 501 209 q 562 273 557 267 l 752 165 q 704 107 732 135 q 431 -7 591 -7 q 157 107 270 -7 q 43 385 43 222 q 157 663 43 547 q 431 777 270 777 q 704 663 591 777 q 817 385 817 547 m 276 462 l 585 462 q 551 510 572 488 q 431 561 501 561 q 310 510 360 561 q 276 462 289 488 m 431 1044 q 360 1015 389 1044 q 331 944 331 985 q 360 873 331 903 q 431 844 389 844 q 502 874 473 844 q 530 944 530 903 q 502 1014 530 985 q 431 1044 473 1044 "},"Ę":{"ha":755,"x_min":81,"x_max":721,"o":"m 81 0 l 81 999 l 721 999 l 721 787 l 294 787 l 294 607 l 721 607 l 721 395 l 294 395 l 294 212 l 721 212 l 721 0 l 81 0 m 530 0 l 684 0 q 620 -52 648 -24 q 583 -121 591 -81 q 581 -142 581 -132 q 594 -176 581 -160 q 642 -196 610 -192 q 679 -193 656 -197 q 721 -181 702 -189 l 721 -261 q 627 -277 686 -277 q 532 -267 568 -277 q 472 -240 496 -257 q 436 -200 448 -222 q 424 -152 424 -178 q 458 -66 424 -109 q 530 0 492 -24 "},"ę":{"ha":847,"x_min":43,"x_max":817,"o":"m 817 385 l 817 321 l 271 321 q 310 260 283 288 q 431 209 360 209 q 551 260 501 209 q 562 273 557 267 l 752 165 q 704 107 732 135 q 431 -7 591 -7 q 157 107 270 -7 q 43 385 43 222 q 157 663 43 547 q 431 777 270 777 q 704 663 591 777 q 817 385 817 547 m 276 462 l 585 462 q 551 510 572 488 q 431 561 501 561 q 310 510 360 561 q 276 462 289 488 m 547 103 l 701 103 q 637 51 666 79 q 600 -18 608 22 q 599 -39 599 -29 q 612 -73 599 -57 q 659 -93 627 -89 q 697 -90 674 -94 q 739 -78 720 -85 l 739 -158 q 644 -174 704 -174 q 550 -164 586 -174 q 490 -137 514 -154 q 453 -97 465 -119 q 441 -49 441 -75 q 475 37 441 -5 q 547 103 509 79 "},"Ě":{"ha":755,"x_min":81,"x_max":721,"o":"m 81 0 l 81 999 l 721 999 l 721 787 l 294 787 l 294 607 l 721 607 l 721 395 l 294 395 l 294 212 l 721 212 l 721 0 l 81 0 m 328 1300 l 125 1300 l 331 1050 l 470 1050 l 677 1300 l 473 1300 l 401 1208 l 328 1300 "},"ě":{"ha":847,"x_min":43,"x_max":817,"o":"m 817 385 l 817 321 l 271 321 q 310 260 283 288 q 431 209 360 209 q 551 260 501 209 q 562 273 557 267 l 752 165 q 704 107 732 135 q 431 -7 591 -7 q 157 107 270 -7 q 43 385 43 222 q 157 663 43 547 q 431 777 270 777 q 704 663 591 777 q 817 385 817 547 m 276 462 l 585 462 q 551 510 572 488 q 431 561 501 561 q 310 510 360 561 q 276 462 289 488 m 357 1071 l 154 1071 l 360 821 l 499 821 l 707 1071 l 503 1071 l 430 979 l 357 1071 "},"Ĝ":{"ha":1103,"x_min":58,"x_max":1062,"o":"m 559 391 l 559 608 l 1062 608 l 1062 499 q 914 140 1062 289 q 559 -10 768 -10 q 205 140 352 -10 q 58 499 58 289 q 205 859 58 710 q 559 1009 352 1009 q 956 812 805 1009 l 783 680 q 559 791 698 791 q 359 706 442 791 q 275 499 275 620 q 359 292 275 378 q 559 207 442 207 q 722 258 649 207 q 825 391 793 309 l 559 391 m 283 1050 l 487 1050 l 559 1141 l 632 1050 l 836 1050 l 629 1300 l 490 1300 l 283 1050 "},"ĝ":{"ha":891,"x_min":43,"x_max":817,"o":"m 817 770 l 817 27 q 703 -249 817 -135 q 431 -364 590 -364 q 210 -294 310 -364 q 66 -111 110 -224 l 269 -35 q 333 -116 288 -85 q 431 -147 377 -147 q 551 -96 501 -147 q 601 28 601 -44 l 601 35 q 431 -5 521 -5 q 157 110 270 -5 q 43 387 43 226 q 157 665 43 550 q 431 781 270 781 q 601 740 521 781 l 601 770 l 817 770 m 431 212 q 551 263 501 212 q 601 387 601 315 l 601 388 q 551 513 601 460 q 431 564 501 564 q 310 513 360 564 q 260 387 260 460 q 310 263 260 315 q 431 212 360 212 m 154 821 l 357 821 l 430 912 l 503 821 l 707 821 l 499 1071 l 360 1071 l 154 821 "},"Ğ":{"ha":1103,"x_min":58,"x_max":1062,"o":"m 559 391 l 559 608 l 1062 608 l 1062 499 q 914 140 1062 289 q 559 -10 768 -10 q 205 140 352 -10 q 58 499 58 289 q 205 859 58 710 q 559 1009 352 1009 q 956 812 805 1009 l 783 680 q 559 791 698 791 q 359 706 442 791 q 275 499 275 620 q 359 292 275 378 q 559 207 442 207 q 722 258 649 207 q 825 391 793 309 l 559 391 m 471 1235 l 298 1235 q 559 1038 414 1038 q 822 1235 703 1038 l 648 1235 q 559 1192 611 1192 q 471 1235 507 1192 "},"ğ":{"ha":891,"x_min":43,"x_max":817,"o":"m 817 770 l 817 27 q 703 -249 817 -135 q 431 -364 590 -364 q 210 -294 310 -364 q 66 -111 110 -224 l 269 -35 q 333 -116 288 -85 q 431 -147 377 -147 q 551 -96 501 -147 q 601 28 601 -44 l 601 35 q 431 -5 521 -5 q 157 110 270 -5 q 43 387 43 226 q 157 665 43 550 q 431 781 270 781 q 601 740 521 781 l 601 770 l 817 770 m 431 212 q 551 263 501 212 q 601 387 601 315 l 601 388 q 551 513 601 460 q 431 564 501 564 q 310 513 360 564 q 260 387 260 460 q 310 263 260 315 q 431 212 360 212 m 341 1006 l 169 1006 q 430 808 285 808 q 692 1006 574 808 l 519 1006 q 430 963 481 963 q 341 1006 378 963 "},"Ġ":{"ha":1103,"x_min":58,"x_max":1062,"o":"m 559 391 l 559 608 l 1062 608 l 1062 499 q 914 140 1062 289 q 559 -10 768 -10 q 205 140 352 -10 q 58 499 58 289 q 205 859 58 710 q 559 1009 352 1009 q 956 812 805 1009 l 783 680 q 559 791 698 791 q 359 706 442 791 q 275 499 275 620 q 359 292 275 378 q 559 207 442 207 q 722 258 649 207 q 825 391 793 309 l 559 391 m 560 1273 q 490 1244 519 1273 q 460 1173 460 1215 q 490 1103 460 1132 q 560 1074 519 1074 q 631 1103 602 1074 q 660 1173 660 1133 q 631 1243 660 1214 q 560 1273 602 1273 "},"ġ":{"ha":891,"x_min":43,"x_max":817,"o":"m 817 770 l 817 27 q 703 -249 817 -135 q 431 -364 590 -364 q 210 -294 310 -364 q 66 -111 110 -224 l 269 -35 q 333 -116 288 -85 q 431 -147 377 -147 q 551 -96 501 -147 q 601 28 601 -44 l 601 35 q 431 -5 521 -5 q 157 110 270 -5 q 43 387 43 226 q 157 665 43 550 q 431 781 270 781 q 601 740 521 781 l 601 770 l 817 770 m 431 212 q 551 263 501 212 q 601 387 601 315 l 601 388 q 551 513 601 460 q 431 564 501 564 q 310 513 360 564 q 260 387 260 460 q 310 263 260 315 q 431 212 360 212 m 431 1044 q 360 1015 389 1044 q 331 944 331 985 q 360 873 331 903 q 431 844 389 844 q 502 874 473 844 q 530 944 530 903 q 502 1014 530 985 q 431 1044 473 1044 "},"Ģ":{"ha":1103,"x_min":58,"x_max":1062,"o":"m 559 391 l 559 608 l 1062 608 l 1062 499 q 914 140 1062 289 q 559 -10 768 -10 q 205 140 352 -10 q 58 499 58 289 q 205 859 58 710 q 559 1009 352 1009 q 956 812 805 1009 l 783 680 q 559 791 698 791 q 359 706 442 791 q 275 499 275 620 q 359 292 275 378 q 559 207 442 207 q 722 258 649 207 q 825 391 793 309 l 559 391 m 519 -30 l 519 -115 q 541 -113 532 -113 q 614 -152 614 -106 q 514 -203 614 -210 q 455 -201 485 -203 l 448 -287 q 543 -295 500 -295 q 693 -252 646 -295 q 741 -157 741 -210 q 699 -68 741 -109 q 564 -27 657 -27 q 519 -30 543 -27 "},"ģ":{"ha":891,"x_min":43,"x_max":817,"o":"m 817 770 l 817 27 q 703 -249 817 -135 q 431 -364 590 -364 q 210 -294 310 -364 q 66 -111 110 -224 l 269 -35 q 333 -116 288 -85 q 431 -147 377 -147 q 551 -96 501 -147 q 601 28 601 -44 l 601 35 q 431 -5 521 -5 q 157 110 270 -5 q 43 387 43 226 q 157 665 43 550 q 431 781 270 781 q 601 740 521 781 l 601 770 l 817 770 m 431 212 q 551 263 501 212 q 601 387 601 315 l 601 388 q 551 513 601 460 q 431 564 501 564 q 310 513 360 564 q 260 387 260 460 q 310 263 260 315 q 431 212 360 212 m 511 1236 l 457 1053 l 541 1053 l 541 841 l 329 841 l 329 1038 l 404 1236 l 511 1236 "},"Ĥ":{"ha":802,"x_min":81,"x_max":721,"o":"m 721 999 l 721 0 l 509 0 l 509 395 l 294 395 l 294 0 l 81 0 l 81 999 l 294 999 l 294 607 l 509 607 l 509 999 l 721 999 m 125 1050 l 328 1050 l 401 1141 l 473 1050 l 677 1050 l 470 1300 l 331 1300 l 125 1050 "},"ĥ":{"ha":865,"x_min":81,"x_max":798,"o":"m 439 775 q 692 663 587 775 q 798 390 798 549 l 798 0 l 585 0 l 585 390 q 543 513 585 462 q 439 563 500 563 q 336 513 379 563 q 294 391 294 462 l 294 0 l 81 0 l 81 999 l 294 999 l 294 742 q 439 775 363 775 m 163 1023 l 367 1023 l 439 1115 l 512 1023 l 716 1023 l 509 1274 l 370 1274 l 163 1023 "},"Ħ":{"ha":802,"x_min":-9,"x_max":819,"o":"m 721 999 l 721 0 l 509 0 l 509 395 l 294 395 l 294 0 l 81 0 l 81 999 l 294 999 l 294 607 l 509 607 l 509 999 l 721 999 m -9 741 l -9 885 l 819 885 l 819 741 l -9 741 "},"ħ":{"ha":865,"x_min":-9,"x_max":798,"o":"m 439 775 q 692 663 587 775 q 798 390 798 549 l 798 0 l 585 0 l 585 390 q 543 513 585 462 q 439 563 500 563 q 336 513 379 563 q 294 391 294 462 l 294 0 l 81 0 l 81 999 l 294 999 l 294 742 q 439 775 363 775 m -9 808 l -9 953 l 540 953 l 540 808 l -9 808 "},"Ĩ":{"ha":413,"x_min":-55,"x_max":471,"o":"m 102 0 l 102 999 l 314 999 l 314 0 l 102 0 m 471 1235 l 312 1235 q 294 1197 302 1204 q 276 1192 287 1190 q 249 1201 265 1195 l 192 1221 q 147 1234 174 1230 q 34 1204 85 1240 q -55 1042 -18 1168 l 98 1042 q 116 1078 107 1069 q 136 1084 125 1086 q 157 1079 147 1083 l 217 1057 q 270 1044 243 1046 q 378 1072 329 1037 q 471 1235 427 1107 "},"ĩ":{"ha":396,"x_min":-62,"x_max":464,"o":"m 95 0 l 95 770 l 307 770 l 307 0 l 95 0 m 464 1006 l 305 1006 q 288 967 295 975 q 269 963 280 960 q 242 972 258 966 l 185 991 q 140 1004 168 1001 q 27 975 78 1010 q -62 812 -24 939 l 92 812 q 110 848 100 840 q 130 855 119 857 q 151 850 140 854 l 210 827 q 263 814 237 817 q 371 843 322 808 q 464 1006 420 878 "},"Ī":{"ha":417,"x_min":-3,"x_max":419,"o":"m 102 0 l 102 999 l 314 999 l 314 0 l 102 0 m -3 1221 l -3 1059 l 419 1059 l 419 1221 l -3 1221 "},"ī":{"ha":400,"x_min":-10,"x_max":412,"o":"m 95 0 l 95 770 l 307 770 l 307 0 l 95 0 m -10 991 l -10 829 l 412 829 l 412 991 l -10 991 "},"Ĭ":{"ha":413,"x_min":-54,"x_max":470,"o":"m 102 0 l 102 999 l 314 999 l 314 0 l 102 0 m 119 1235 l -54 1235 q 208 1038 62 1038 q 470 1235 351 1038 l 296 1235 q 208 1192 259 1192 q 119 1235 155 1192 "},"ĭ":{"ha":413,"x_min":-60,"x_max":463,"o":"m 95 0 l 95 770 l 307 770 l 307 0 l 95 0 m 112 1006 l -60 1006 q 201 808 56 808 q 463 1006 345 808 l 290 1006 q 201 963 252 963 q 112 1006 149 963 "},"Į":{"ha":415,"x_min":17,"x_max":314,"o":"m 102 0 l 102 999 l 314 999 l 314 0 l 102 0 m 123 0 l 277 0 q 213 -52 241 -24 q 176 -121 184 -81 q 174 -142 174 -132 q 187 -176 174 -160 q 235 -196 203 -192 q 272 -193 250 -197 q 314 -181 295 -189 l 314 -261 q 220 -277 279 -277 q 125 -267 161 -277 q 65 -240 90 -257 q 29 -200 41 -222 q 17 -152 17 -178 q 51 -66 17 -109 q 123 0 85 -24 "},"į":{"ha":409,"x_min":10,"x_max":307,"o":"m 95 0 l 95 770 l 307 770 l 307 0 l 95 0 m 200 1006 q 136 979 163 1006 q 110 916 110 953 q 136 851 110 878 q 200 825 163 825 q 264 851 237 825 q 291 916 291 878 q 264 979 291 953 q 200 1006 237 1006 m 116 0 l 270 0 q 206 -52 235 -24 q 169 -121 177 -81 q 168 -142 168 -132 q 180 -176 168 -160 q 228 -196 196 -192 q 266 -193 243 -197 q 307 -181 288 -189 l 307 -261 q 213 -277 273 -277 q 119 -267 155 -277 q 58 -240 83 -257 q 22 -200 34 -222 q 10 -152 10 -178 q 44 -66 10 -109 q 116 0 78 -24 "},"İ":{"ha":416,"x_min":102,"x_max":314,"o":"m 102 0 l 102 999 l 314 999 l 314 0 l 102 0 m 208 1273 q 138 1244 167 1273 q 109 1173 109 1215 q 138 1103 109 1132 q 208 1074 167 1074 q 279 1103 250 1074 q 308 1173 308 1133 q 279 1243 308 1214 q 208 1273 250 1273 "},"Ĳ":{"ha":1044,"x_min":102,"x_max":959,"o":"m 102 0 l 102 999 l 314 999 l 314 0 l 102 0 m 747 999 l 959 999 l 959 289 q 872 80 959 167 q 663 -7 785 -7 q 453 80 540 -7 q 366 290 366 168 l 366 301 l 578 301 l 578 290 q 603 230 578 255 q 663 205 628 205 q 722 230 698 205 q 747 289 747 254 l 747 999 "},"ĳ":{"ha":827,"x_min":95,"x_max":745,"o":"m 95 0 l 95 770 l 307 770 l 307 0 l 95 0 m 200 1006 q 136 979 163 1006 q 110 916 110 953 q 136 851 110 878 q 200 825 163 825 q 264 851 237 825 q 291 916 291 878 q 264 979 291 953 q 200 1006 237 1006 m 533 770 l 745 770 l 745 62 q 665 -153 745 -77 q 448 -227 587 -227 l 334 -227 l 334 -14 l 448 -14 q 519 1 503 -14 q 533 62 533 15 l 533 770 m 636 1006 q 572 979 599 1006 q 546 916 546 953 q 572 851 546 878 q 636 825 599 825 q 700 851 673 825 q 727 916 727 878 q 700 979 727 953 q 636 1006 673 1006 "},"Ĵ":{"ha":722,"x_min":14,"x_max":778,"o":"m 394 999 l 606 999 l 606 289 q 519 80 606 167 q 310 -7 433 -7 q 100 80 187 -7 q 14 290 14 168 l 14 301 l 226 301 l 226 290 q 250 230 226 255 q 310 205 275 205 q 370 230 345 205 q 394 289 394 254 l 394 999 m 225 1050 l 429 1050 l 501 1141 l 574 1050 l 778 1050 l 570 1300 l 431 1300 l 225 1050 "},"ĵ":{"ha":564,"x_min":-34,"x_max":556,"o":"m 3 821 l 207 821 l 279 912 l 352 821 l 556 821 l 349 1071 l 210 1071 l 3 821 m 165 770 l 377 770 l 377 62 q 296 -153 377 -77 q 79 -227 219 -227 l -34 -227 l -34 -14 l 79 -14 q 151 1 134 -14 q 165 62 165 15 l 165 770 "},"Ķ":{"ha":801,"x_min":81,"x_max":804,"o":"m 797 0 l 531 0 l 294 311 l 294 0 l 81 0 l 81 999 l 294 999 l 294 675 l 538 999 l 804 999 l 410 493 l 797 0 m 309 -30 l 309 -115 q 331 -113 321 -113 q 404 -152 404 -106 q 304 -203 404 -210 q 245 -201 275 -203 l 237 -287 q 332 -295 290 -295 q 483 -252 435 -295 q 531 -157 531 -210 q 489 -68 531 -109 q 354 -27 447 -27 q 309 -30 333 -27 "},"ķ":{"ha":795,"x_min":81,"x_max":754,"o":"m 754 -1 l 471 -1 l 294 220 l 294 0 l 81 0 l 81 998 l 294 998 l 294 553 l 450 770 l 720 770 l 425 387 l 754 -1 m 302 -30 l 302 -115 q 324 -113 315 -113 q 397 -152 397 -106 q 297 -203 397 -210 q 238 -201 268 -203 l 231 -287 q 326 -295 283 -295 q 476 -252 429 -295 q 524 -157 524 -210 q 482 -68 524 -109 q 347 -27 440 -27 q 302 -30 326 -27 "},"ĸ":{"ha":795,"x_min":81,"x_max":795,"o":"m 795 -1 l 498 -1 l 294 220 l 294 0 l 81 0 l 81 770 l 294 770 l 294 553 l 491 770 l 787 770 l 425 387 l 795 -1 "},"Ĺ":{"ha":721,"x_min":81,"x_max":694,"o":"m 294 999 l 294 212 l 694 212 l 694 0 l 81 0 l 81 999 l 294 999 m 272 1055 l 461 1055 l 618 1281 l 429 1281 l 272 1055 "},"ĺ":{"ha":407,"x_min":35,"x_max":382,"o":"m 102 0 l 102 999 l 315 999 l 315 0 l 102 0 m 35 1048 l 224 1048 l 382 1274 l 193 1274 l 35 1048 "},"Ļ":{"ha":721,"x_min":81,"x_max":694,"o":"m 294 999 l 294 212 l 694 212 l 694 0 l 81 0 l 81 999 l 294 999 m 302 -30 l 302 -115 q 324 -113 315 -113 q 397 -152 397 -106 q 297 -203 397 -210 q 238 -201 268 -203 l 231 -287 q 326 -295 283 -295 q 476 -252 429 -295 q 524 -157 524 -210 q 482 -68 524 -109 q 347 -27 440 -27 q 302 -30 326 -27 "},"ļ":{"ha":416,"x_min":41,"x_max":334,"o":"m 102 0 l 102 999 l 315 999 l 315 0 l 102 0 m 113 -30 l 113 -115 q 134 -113 125 -113 q 207 -152 207 -106 q 107 -203 207 -210 q 48 -201 78 -203 l 41 -287 q 136 -295 93 -295 q 287 -252 239 -295 q 334 -157 334 -210 q 292 -68 334 -109 q 157 -27 250 -27 q 113 -30 136 -27 "},"Ľ":{"ha":721,"x_min":81,"x_max":694,"o":"m 294 999 l 294 212 l 694 212 l 694 0 l 81 0 l 81 999 l 294 999 m 471 605 l 525 788 l 441 788 l 441 1000 l 653 1000 l 653 803 l 578 605 l 471 605 "},"ľ":{"ha":667,"x_min":102,"x_max":633,"o":"m 102 0 l 102 999 l 315 999 l 315 0 l 102 0 m 450 605 l 505 788 l 420 788 l 420 1000 l 633 1000 l 633 803 l 558 605 l 450 605 "},"Ŀ":{"ha":721,"x_min":81,"x_max":694,"o":"m 294 999 l 294 212 l 694 212 l 694 0 l 81 0 l 81 999 l 294 999 m 549 590 q 485 564 511 590 q 458 500 458 537 q 485 435 458 462 q 549 409 511 409 q 613 435 586 409 q 640 500 640 462 q 613 564 640 537 q 549 590 586 590 "},"ŀ":{"ha":597,"x_min":102,"x_max":570,"o":"m 102 0 l 102 999 l 315 999 l 315 0 l 102 0 m 479 590 q 416 564 442 590 q 389 500 389 537 q 416 435 389 462 q 479 409 442 409 q 544 435 517 409 q 570 500 570 462 q 544 564 570 537 q 479 590 517 590 "},"Ł":{"ha":721,"x_min":-68,"x_max":694,"o":"m 294 999 l 294 212 l 694 212 l 694 0 l 81 0 l 81 999 l 294 999 m -68 288 l -68 465 l 446 804 l 446 627 l -68 288 "},"ł":{"ha":500,"x_min":-7,"x_max":507,"o":"m 149 0 l 149 999 l 362 999 l 362 0 l 149 0 m -7 288 l -7 465 l 507 804 l 507 627 l -7 288 "},"Ń":{"ha":830,"x_min":81,"x_max":749,"o":"m 81 999 l 248 999 l 536 489 l 536 1000 l 749 1000 l 749 0 l 583 0 l 294 513 l 294 0 l 81 0 l 81 999 m 300 1055 l 489 1055 l 646 1281 l 457 1281 l 300 1055 "},"ń":{"ha":879,"x_min":81,"x_max":798,"o":"m 439 773 q 692 661 587 773 q 798 388 798 547 l 798 0 l 585 0 l 585 388 q 543 511 585 460 q 439 561 500 561 q 336 511 379 561 q 294 389 294 460 l 294 0 l 81 0 l 81 770 l 294 770 l 294 740 q 439 773 363 773 m 324 826 l 513 826 l 671 1052 l 481 1052 l 324 826 "},"Ņ":{"ha":830,"x_min":81,"x_max":749,"o":"m 81 999 l 248 999 l 536 489 l 536 1000 l 749 1000 l 749 0 l 583 0 l 294 513 l 294 0 l 81 0 l 81 999 m 350 -30 l 350 -115 q 372 -113 362 -113 q 444 -152 444 -106 q 345 -203 444 -210 q 286 -201 315 -203 l 278 -287 q 373 -295 330 -295 q 524 -252 476 -295 q 572 -157 572 -210 q 530 -68 572 -109 q 395 -27 488 -27 q 350 -30 374 -27 "},"ņ":{"ha":879,"x_min":81,"x_max":798,"o":"m 439 773 q 692 661 587 773 q 798 388 798 547 l 798 0 l 585 0 l 585 388 q 543 511 585 460 q 439 561 500 561 q 336 511 379 561 q 294 389 294 460 l 294 0 l 81 0 l 81 770 l 294 770 l 294 740 q 439 773 363 773 m 350 -30 l 350 -115 q 372 -113 362 -113 q 444 -152 444 -106 q 345 -203 444 -210 q 286 -201 315 -203 l 278 -287 q 373 -295 330 -295 q 524 -252 476 -295 q 572 -157 572 -210 q 530 -68 572 -109 q 395 -27 488 -27 q 350 -30 374 -27 "},"Ň":{"ha":830,"x_min":81,"x_max":749,"o":"m 81 999 l 248 999 l 536 489 l 536 1000 l 749 1000 l 749 0 l 583 0 l 294 513 l 294 0 l 81 0 l 81 999 m 342 1300 l 139 1300 l 345 1050 l 484 1050 l 692 1300 l 488 1300 l 415 1208 l 342 1300 "},"ň":{"ha":879,"x_min":81,"x_max":798,"o":"m 439 773 q 692 661 587 773 q 798 388 798 547 l 798 0 l 585 0 l 585 388 q 543 511 585 460 q 439 561 500 561 q 336 511 379 561 q 294 389 294 460 l 294 0 l 81 0 l 81 770 l 294 770 l 294 740 q 439 773 363 773 m 367 1071 l 163 1071 l 370 821 l 509 821 l 716 1071 l 512 1071 l 439 979 l 367 1071 "},"ŉ":{"ha":1047,"x_min":14,"x_max":1001,"o":"m 643 773 q 896 661 791 773 q 1001 388 1001 547 l 1001 0 l 789 0 l 789 388 q 746 511 789 460 q 643 561 703 561 q 540 511 583 561 q 497 389 497 460 l 497 0 l 285 0 l 285 770 l 497 770 l 497 740 q 643 773 566 773 m 43 605 l 98 788 l 14 788 l 14 1000 l 226 1000 l 226 803 l 151 605 l 43 605 "},"Ŋ":{"ha":945,"x_min":47,"x_max":911,"o":"m 436 201 l 345 40 q 542 7 468 7 q 572 7 557 7 q 852 142 777 16 q 911 437 903 228 l 911 663 q 812 900 911 802 q 575 999 713 999 l 383 999 q 233 962 286 999 l 233 999 l 47 999 l 47 1 l 246 1 l 246 665 q 292 770 248 726 q 397 814 336 814 l 562 814 q 668 770 623 814 q 712 663 712 725 l 712 457 l 713 458 q 699 298 703 324 q 662 222 688 252 q 560 186 628 186 q 436 201 519 186 "},"ŋ":{"ha":690,"x_min":34,"x_max":656,"o":"m 463 35 q 451 -56 463 -40 q 383 -77 437 -77 q 298 -64 363 -77 l 195 -203 q 376 -254 298 -254 q 401 -254 388 -254 q 612 -149 551 -246 q 656 63 653 -81 l 656 515 q 581 695 656 621 q 387 770 506 770 l 34 770 l 34 1 l 226 1 l 226 517 q 244 561 227 542 q 289 578 262 578 l 401 578 q 446 560 427 578 q 464 515 464 541 l 463 35 "},"Ō":{"ha":1079,"x_min":37,"x_max":1042,"o":"m 540 1009 q 894 859 747 1009 q 1042 499 1042 710 q 894 140 1042 289 q 540 -10 747 -10 q 185 140 332 -10 q 37 499 37 289 q 185 859 37 710 q 540 1009 332 1009 m 540 207 q 741 292 657 207 q 824 499 824 378 q 741 706 824 620 q 540 791 657 791 q 338 706 422 791 q 255 499 255 620 q 338 292 255 378 q 540 207 422 207 m 328 1221 l 328 1059 l 751 1059 l 751 1221 l 328 1221 "},"ō":{"ha":854,"x_min":40,"x_max":814,"o":"m 427 777 q 701 663 587 777 q 814 385 814 547 q 701 107 814 222 q 427 -7 587 -7 q 153 107 267 -7 q 40 385 40 222 q 153 663 40 547 q 427 777 267 777 m 427 209 q 547 260 498 209 q 597 385 597 312 q 547 510 597 458 q 427 561 498 561 q 307 510 357 561 q 256 385 256 458 q 307 260 256 312 q 427 209 357 209 m 216 991 l 216 829 l 638 829 l 638 991 l 216 991 "},"Ŏ":{"ha":1079,"x_min":37,"x_max":1042,"o":"m 540 1009 q 894 859 747 1009 q 1042 499 1042 710 q 894 140 1042 289 q 540 -10 747 -10 q 185 140 332 -10 q 37 499 37 289 q 185 859 37 710 q 540 1009 332 1009 m 540 207 q 741 292 657 207 q 824 499 824 378 q 741 706 824 620 q 540 791 657 791 q 338 706 422 791 q 255 499 255 620 q 338 292 255 378 q 540 207 422 207 m 450 1235 l 278 1235 q 539 1038 394 1038 q 802 1235 683 1038 l 628 1235 q 539 1192 591 1192 q 450 1235 487 1192 "},"ŏ":{"ha":854,"x_min":40,"x_max":814,"o":"m 427 777 q 701 663 587 777 q 814 385 814 547 q 701 107 814 222 q 427 -7 587 -7 q 153 107 267 -7 q 40 385 40 222 q 153 663 40 547 q 427 777 267 777 m 427 209 q 547 260 498 209 q 597 385 597 312 q 547 510 597 458 q 427 561 498 561 q 307 510 357 561 q 256 385 256 458 q 307 260 256 312 q 427 209 357 209 m 338 1006 l 165 1006 q 427 808 281 808 q 689 1006 570 808 l 515 1006 q 427 963 478 963 q 338 1006 374 963 "},"Ő":{"ha":1079,"x_min":37,"x_max":1042,"o":"m 540 1009 q 894 859 747 1009 q 1042 499 1042 710 q 894 140 1042 289 q 540 -10 747 -10 q 185 140 332 -10 q 37 499 37 289 q 185 859 37 710 q 540 1009 332 1009 m 540 207 q 741 292 657 207 q 824 499 824 378 q 741 706 824 620 q 540 791 657 791 q 338 706 422 791 q 255 499 255 620 q 338 292 255 378 q 540 207 422 207 m 182 1055 l 372 1055 l 529 1281 l 340 1281 l 182 1055 m 550 1055 l 739 1055 l 897 1281 l 707 1281 l 550 1055 "},"ő":{"ha":854,"x_min":40,"x_max":814,"o":"m 427 777 q 701 663 587 777 q 814 385 814 547 q 701 107 814 222 q 427 -7 587 -7 q 153 107 267 -7 q 40 385 40 222 q 153 663 40 547 q 427 777 267 777 m 427 209 q 547 260 498 209 q 597 385 597 312 q 547 510 597 458 q 427 561 498 561 q 307 510 357 561 q 256 385 256 458 q 307 260 256 312 q 427 209 357 209 m 70 826 l 259 826 l 416 1052 l 227 1052 l 70 826 m 437 826 l 627 826 l 784 1052 l 595 1052 l 437 826 "},"Œ":{"ha":1494,"x_min":37,"x_max":1466,"o":"m 540 1009 q 894 859 747 1009 q 1042 499 1042 710 q 894 140 1042 289 q 540 -10 747 -10 q 185 140 332 -10 q 37 499 37 289 q 185 859 37 710 q 540 1009 332 1009 m 540 207 q 741 292 657 207 q 824 499 824 378 q 741 706 824 620 q 540 791 657 791 q 338 706 422 791 q 255 499 255 620 q 338 292 255 378 q 540 207 422 207 m 827 0 l 827 999 l 1466 999 l 1466 787 l 1039 787 l 1039 607 l 1466 607 l 1466 395 l 1039 395 l 1039 212 l 1466 212 l 1466 0 l 827 0 "},"œ":{"ha":1411,"x_min":40,"x_max":1373,"o":"m 427 777 q 701 663 587 777 q 814 385 814 547 q 701 107 814 222 q 427 -7 587 -7 q 153 107 267 -7 q 40 385 40 222 q 153 663 40 547 q 427 777 267 777 m 427 209 q 547 260 498 209 q 597 385 597 312 q 547 510 597 458 q 427 561 498 561 q 307 510 357 561 q 256 385 256 458 q 307 260 256 312 q 427 209 357 209 m 1373 385 l 1373 321 l 827 321 q 866 260 839 288 q 987 209 916 209 q 1107 260 1057 209 q 1118 273 1114 267 l 1308 165 q 1260 107 1288 135 q 987 -7 1147 -7 q 713 107 826 -7 q 600 385 600 222 q 713 663 600 547 q 987 777 826 777 q 1260 663 1147 777 q 1373 385 1373 547 m 832 462 l 1141 462 q 1107 510 1128 488 q 987 561 1057 561 q 866 510 916 561 q 832 462 845 488 "},"Ŕ":{"ha":728,"x_min":81,"x_max":758,"o":"m 479 629 q 496 701 497 652 q 423 786 492 786 l 294 786 l 294 606 l 431 606 q 471 617 462 606 q 479 629 479 629 m 758 0 l 498 0 l 294 358 l 294 0 l 81 0 l 81 999 l 423 999 q 623 918 543 999 q 708 709 703 835 q 634 488 713 570 q 514 416 587 439 l 758 0 m 304 1055 l 494 1055 l 651 1281 l 462 1281 l 304 1055 "},"ŕ":{"ha":552,"x_min":81,"x_max":545,"o":"m 294 770 l 294 736 q 439 770 363 770 l 545 770 l 545 557 l 439 557 q 336 507 379 557 q 294 385 294 456 l 294 0 l 81 0 l 81 770 l 294 770 m 198 826 l 387 826 l 545 1052 l 355 1052 l 198 826 "},"Ŗ":{"ha":728,"x_min":81,"x_max":758,"o":"m 479 629 q 496 701 497 652 q 423 786 492 786 l 294 786 l 294 606 l 431 606 q 471 617 462 606 q 479 629 479 629 m 758 0 l 498 0 l 294 358 l 294 0 l 81 0 l 81 999 l 423 999 q 623 918 543 999 q 708 709 703 835 q 634 488 713 570 q 514 416 587 439 l 758 0 m 282 -30 l 282 -115 q 304 -113 294 -113 q 376 -152 376 -106 q 277 -203 376 -210 q 218 -201 248 -203 l 210 -287 q 305 -295 262 -295 q 456 -252 408 -295 q 504 -157 504 -210 q 462 -68 504 -109 q 327 -27 420 -27 q 282 -30 306 -27 "},"ŗ":{"ha":552,"x_min":81,"x_max":545,"o":"m 294 770 l 294 736 q 439 770 363 770 l 545 770 l 545 557 l 439 557 q 336 507 379 557 q 294 385 294 456 l 294 0 l 81 0 l 81 770 l 294 770 m 214 -30 l 214 -115 q 236 -113 227 -113 q 309 -152 309 -106 q 209 -203 309 -210 q 150 -201 180 -203 l 142 -287 q 237 -295 195 -295 q 388 -252 340 -295 q 436 -157 436 -210 q 394 -68 436 -109 q 259 -27 352 -27 q 214 -30 238 -27 "},"Ř":{"ha":728,"x_min":81,"x_max":758,"o":"m 479 629 q 496 701 497 652 q 423 786 492 786 l 294 786 l 294 606 l 431 606 q 471 617 462 606 q 479 629 479 629 m 758 0 l 498 0 l 294 358 l 294 0 l 81 0 l 81 999 l 423 999 q 623 918 543 999 q 708 709 703 835 q 634 488 713 570 q 514 416 587 439 l 758 0 m 347 1300 l 144 1300 l 350 1050 l 489 1050 l 696 1300 l 492 1300 l 420 1208 l 347 1300 "},"ř":{"ha":552,"x_min":37,"x_max":590,"o":"m 294 770 l 294 736 q 439 770 363 770 l 545 770 l 545 557 l 439 557 q 336 507 379 557 q 294 385 294 456 l 294 0 l 81 0 l 81 770 l 294 770 m 241 1071 l 37 1071 l 243 821 l 382 821 l 590 1071 l 386 1071 l 313 979 l 241 1071 "},"Ś":{"ha":742,"x_min":45,"x_max":697,"o":"m 371 787 q 294 761 326 787 q 262 696 262 734 q 283 644 262 660 q 399 601 307 627 q 590 521 530 565 q 697 294 697 441 q 602 77 697 168 q 371 -14 506 -14 q 140 77 236 -14 q 45 294 45 168 l 262 294 q 294 229 262 256 q 371 203 326 203 q 448 229 416 203 q 480 294 480 256 q 459 349 480 332 q 341 392 434 366 q 151 472 211 428 q 45 696 45 551 q 140 914 45 823 q 371 1005 236 1005 q 602 914 506 1005 q 697 696 697 823 l 480 696 q 448 761 480 734 q 371 787 416 787 m 256 1055 l 445 1055 l 602 1281 l 413 1281 l 256 1055 "},"ś":{"ha":597,"x_min":35,"x_max":562,"o":"m 252 243 l 252 237 q 265 203 252 217 q 298 189 279 189 q 332 203 318 189 q 345 237 345 217 q 345 243 345 240 q 340 256 345 250 q 269 281 334 263 q 121 345 170 309 q 35 527 35 410 q 113 704 35 631 q 298 777 190 777 q 484 704 407 777 q 562 527 562 631 l 345 527 q 345 533 345 530 q 332 567 345 553 q 298 581 318 581 q 265 567 279 581 q 252 533 252 553 q 252 527 252 530 q 258 513 252 519 q 327 490 263 508 q 473 427 424 463 q 562 243 562 361 q 484 66 562 139 q 298 -7 407 -7 q 113 66 190 -7 q 35 243 35 139 l 252 243 m 183 826 l 372 826 l 530 1052 l 340 1052 l 183 826 "},"Ŝ":{"ha":742,"x_min":45,"x_max":697,"o":"m 371 787 q 294 761 326 787 q 262 696 262 734 q 283 644 262 660 q 399 601 307 627 q 590 521 530 565 q 697 294 697 441 q 602 77 697 168 q 371 -14 506 -14 q 140 77 236 -14 q 45 294 45 168 l 262 294 q 294 229 262 256 q 371 203 326 203 q 448 229 416 203 q 480 294 480 256 q 459 349 480 332 q 341 392 434 366 q 151 472 211 428 q 45 696 45 551 q 140 914 45 823 q 371 1005 236 1005 q 602 914 506 1005 q 697 696 697 823 l 480 696 q 448 761 480 734 q 371 787 416 787 m 95 1050 l 298 1050 l 371 1141 l 444 1050 l 648 1050 l 440 1300 l 301 1300 l 95 1050 "},"ŝ":{"ha":597,"x_min":22,"x_max":575,"o":"m 252 243 l 252 237 q 265 203 252 217 q 298 189 279 189 q 332 203 318 189 q 345 237 345 217 q 345 243 345 240 q 340 256 345 250 q 269 281 334 263 q 121 345 170 309 q 35 527 35 410 q 113 704 35 631 q 298 777 190 777 q 484 704 407 777 q 562 527 562 631 l 345 527 q 345 533 345 530 q 332 567 345 553 q 298 581 318 581 q 265 567 279 581 q 252 533 252 553 q 252 527 252 530 q 258 513 252 519 q 327 490 263 508 q 473 427 424 463 q 562 243 562 361 q 484 66 562 139 q 298 -7 407 -7 q 113 66 190 -7 q 35 243 35 139 l 252 243 m 22 821 l 226 821 l 298 912 l 371 821 l 575 821 l 368 1071 l 229 1071 l 22 821 "},"Ş":{"ha":742,"x_min":45,"x_max":697,"o":"m 371 787 q 294 761 326 787 q 262 696 262 734 q 283 644 262 660 q 399 601 307 627 q 590 521 530 565 q 697 294 697 441 q 602 77 697 168 q 371 -14 506 -14 q 140 77 236 -14 q 45 294 45 168 l 262 294 q 294 229 262 256 q 371 203 326 203 q 448 229 416 203 q 480 294 480 256 q 459 349 480 332 q 341 392 434 366 q 151 472 211 428 q 45 696 45 551 q 140 914 45 823 q 371 1005 236 1005 q 602 914 506 1005 q 697 696 697 823 l 480 696 q 448 761 480 734 q 371 787 416 787 m 275 -130 l 313 0 l 428 0 l 408 -65 q 481 -96 446 -71 q 520 -164 520 -123 q 519 -173 520 -168 q 414 -296 510 -272 q 324 -309 372 -309 q 222 -300 286 -309 l 251 -208 q 312 -210 287 -210 q 353 -208 338 -210 q 393 -165 393 -204 q 363 -136 393 -147 q 275 -130 336 -131 "},"ş":{"ha":597,"x_min":35,"x_max":562,"o":"m 252 243 l 252 237 q 265 203 252 217 q 298 189 279 189 q 332 203 318 189 q 345 237 345 217 q 345 243 345 240 q 340 256 345 250 q 269 281 334 263 q 121 345 170 309 q 35 527 35 410 q 113 704 35 631 q 298 777 190 777 q 484 704 407 777 q 562 527 562 631 l 345 527 q 345 533 345 530 q 332 567 345 553 q 298 581 318 581 q 265 567 279 581 q 252 533 252 553 q 252 527 252 530 q 258 513 252 519 q 327 490 263 508 q 473 427 424 463 q 562 243 562 361 q 484 66 562 139 q 298 -7 407 -7 q 113 66 190 -7 q 35 243 35 139 l 252 243 m 202 -130 l 240 0 l 355 0 l 335 -65 q 409 -96 374 -71 q 448 -164 448 -123 q 447 -173 448 -168 q 341 -296 437 -272 q 252 -309 300 -309 q 150 -300 214 -309 l 178 -208 q 239 -210 214 -210 q 281 -208 265 -210 q 321 -165 321 -204 q 290 -136 321 -147 q 202 -130 263 -131 "},"Š":{"ha":742,"x_min":45,"x_max":697,"o":"m 371 787 q 294 761 326 787 q 262 696 262 734 q 283 644 262 660 q 399 601 307 627 q 590 521 530 565 q 697 294 697 441 q 602 77 697 168 q 371 -14 506 -14 q 140 77 236 -14 q 45 294 45 168 l 262 294 q 294 229 262 256 q 371 203 326 203 q 448 229 416 203 q 480 294 480 256 q 459 349 480 332 q 341 392 434 366 q 151 472 211 428 q 45 696 45 551 q 140 914 45 823 q 371 1005 236 1005 q 602 914 506 1005 q 697 696 697 823 l 480 696 q 448 761 480 734 q 371 787 416 787 m 298 1300 l 95 1300 l 301 1050 l 440 1050 l 648 1300 l 444 1300 l 371 1208 l 298 1300 "},"š":{"ha":597,"x_min":22,"x_max":575,"o":"m 252 243 l 252 237 q 265 203 252 217 q 298 189 279 189 q 332 203 318 189 q 345 237 345 217 q 345 243 345 240 q 340 256 345 250 q 269 281 334 263 q 121 345 170 309 q 35 527 35 410 q 113 704 35 631 q 298 777 190 777 q 484 704 407 777 q 562 527 562 631 l 345 527 q 345 533 345 530 q 332 567 345 553 q 298 581 318 581 q 265 567 279 581 q 252 533 252 553 q 252 527 252 530 q 258 513 252 519 q 327 490 263 508 q 473 427 424 463 q 562 243 562 361 q 484 66 562 139 q 298 -7 407 -7 q 113 66 190 -7 q 35 243 35 139 l 252 243 m 226 1071 l 22 1071 l 229 821 l 368 821 l 575 1071 l 371 1071 l 298 979 l 226 1071 "},"Ţ":{"ha":680,"x_min":34,"x_max":646,"o":"m 34 999 l 646 999 l 646 787 l 446 787 l 446 0 l 234 0 l 234 787 l 34 787 l 34 999 m 243 -130 l 281 0 l 397 0 l 376 -65 q 450 -96 415 -71 q 489 -164 489 -123 q 488 -173 489 -168 q 382 -296 479 -272 q 293 -309 341 -309 q 191 -300 255 -309 l 220 -208 q 281 -210 256 -210 q 322 -208 307 -210 q 362 -165 362 -204 q 332 -136 362 -147 q 243 -130 304 -131 "},"ţ":{"ha":498,"x_min":47,"x_max":450,"o":"m 355 999 l 355 772 l 450 772 l 450 559 l 355 559 l 355 0 l 142 0 l 142 559 l 47 559 l 47 772 l 142 772 l 142 999 l 355 999 m 153 -130 l 191 0 l 306 0 l 286 -65 q 359 -96 324 -71 q 398 -164 398 -123 q 397 -173 398 -168 q 292 -296 388 -272 q 202 -309 250 -309 q 100 -300 164 -309 l 129 -208 q 190 -210 165 -210 q 231 -208 216 -210 q 271 -165 271 -204 q 241 -136 271 -147 q 153 -130 214 -131 "},"Ť":{"ha":680,"x_min":34,"x_max":646,"o":"m 34 999 l 646 999 l 646 787 l 446 787 l 446 0 l 234 0 l 234 787 l 34 787 l 34 999 m 267 1300 l 64 1300 l 270 1050 l 409 1050 l 616 1300 l 412 1300 l 340 1208 l 267 1300 "},"ť":{"ha":532,"x_min":47,"x_max":450,"o":"m 355 999 l 355 772 l 450 772 l 450 559 l 355 559 l 355 0 l 142 0 l 142 559 l 47 559 l 47 772 l 142 772 l 142 999 l 355 999 "},"Ŧ":{"ha":669,"x_min":27,"x_max":642,"o":"m 29 999 l 642 999 l 642 787 l 441 787 l 441 0 l 229 0 l 229 787 l 29 787 l 29 999 m 27 401 l 27 546 l 637 546 l 637 401 l 27 401 "},"ŧ":{"ha":473,"x_min":36,"x_max":439,"o":"m 344 999 l 344 772 l 439 772 l 439 559 l 344 559 l 344 0 l 131 0 l 131 559 l 36 559 l 36 772 l 131 772 l 131 999 l 344 999 m 41 266 l 41 410 l 436 410 l 436 266 l 41 266 "},"Ũ":{"ha":840,"x_min":81,"x_max":760,"o":"m 547 332 l 547 999 l 760 999 l 760 332 q 661 92 760 192 q 421 -7 561 -7 q 181 93 281 -7 q 81 332 81 192 l 81 999 l 294 999 l 294 332 q 332 243 294 280 q 421 205 368 205 q 510 243 473 205 q 547 332 547 280 m 684 1235 l 525 1235 q 507 1197 515 1204 q 489 1192 500 1190 q 462 1201 478 1195 l 405 1221 q 360 1234 387 1230 q 247 1204 298 1240 q 158 1042 195 1168 l 311 1042 q 329 1078 320 1069 q 349 1084 338 1086 q 370 1079 360 1083 l 430 1057 q 483 1044 456 1046 q 591 1072 542 1037 q 684 1235 640 1107 "},"ũ":{"ha":851,"x_min":81,"x_max":770,"o":"m 770 770 l 770 0 l 557 0 l 557 23 q 426 -7 494 -7 q 182 106 283 -7 q 81 378 81 219 l 81 770 l 294 770 l 294 378 q 333 257 294 308 q 426 205 372 205 q 518 257 479 205 q 557 378 557 308 l 557 770 l 770 770 m 688 1006 l 530 1006 q 512 967 519 975 q 494 963 505 960 q 467 972 483 966 l 410 991 q 365 1004 392 1001 q 251 975 302 1010 q 163 812 200 939 l 316 812 q 334 848 325 840 q 354 855 343 857 q 375 850 365 854 l 435 827 q 488 814 461 817 q 596 843 547 808 q 688 1006 645 878 "},"Ū":{"ha":840,"x_min":81,"x_max":760,"o":"m 547 332 l 547 999 l 760 999 l 760 332 q 661 92 760 192 q 421 -7 561 -7 q 181 93 281 -7 q 81 332 81 192 l 81 999 l 294 999 l 294 332 q 332 243 294 280 q 421 205 368 205 q 510 243 473 205 q 547 332 547 280 m 210 1221 l 210 1059 l 632 1059 l 632 1221 l 210 1221 "},"ū":{"ha":851,"x_min":81,"x_max":770,"o":"m 770 770 l 770 0 l 557 0 l 557 23 q 426 -7 494 -7 q 182 106 283 -7 q 81 378 81 219 l 81 770 l 294 770 l 294 378 q 333 257 294 308 q 426 205 372 205 q 518 257 479 205 q 557 378 557 308 l 557 770 l 770 770 m 214 991 l 214 829 l 637 829 l 637 991 l 214 991 "},"Ŭ":{"ha":840,"x_min":81,"x_max":760,"o":"m 547 332 l 547 999 l 760 999 l 760 332 q 661 92 760 192 q 421 -7 561 -7 q 181 93 281 -7 q 81 332 81 192 l 81 999 l 294 999 l 294 332 q 332 243 294 280 q 421 205 368 205 q 510 243 473 205 q 547 332 547 280 m 332 1235 l 159 1235 q 420 1038 275 1038 q 683 1235 564 1038 l 509 1235 q 420 1192 472 1192 q 332 1235 368 1192 "},"ŭ":{"ha":851,"x_min":81,"x_max":770,"o":"m 770 770 l 770 0 l 557 0 l 557 23 q 426 -7 494 -7 q 182 106 283 -7 q 81 378 81 219 l 81 770 l 294 770 l 294 378 q 333 257 294 308 q 426 205 372 205 q 518 257 479 205 q 557 378 557 308 l 557 770 l 770 770 m 336 1006 l 164 1006 q 425 808 280 808 q 688 1006 569 808 l 514 1006 q 425 963 477 963 q 336 1006 373 963 "},"Ů":{"ha":840,"x_min":81,"x_max":760,"o":"m 547 332 l 547 999 l 760 999 l 760 332 q 661 92 760 192 q 421 -7 561 -7 q 181 93 281 -7 q 81 332 81 192 l 81 999 l 294 999 l 294 332 q 332 243 294 280 q 421 205 368 205 q 510 243 473 205 q 547 332 547 280 m 421 1169 q 391 1157 404 1169 q 379 1127 379 1145 q 391 1097 379 1109 q 421 1085 404 1085 q 451 1098 438 1085 q 463 1127 463 1110 q 451 1157 463 1144 q 421 1169 438 1169 m 421 1285 q 533 1239 487 1285 q 579 1127 579 1193 q 533 1015 579 1061 q 421 969 487 969 q 309 1015 355 969 q 263 1127 263 1061 q 309 1239 263 1193 q 421 1285 355 1285 "},"ů":{"ha":851,"x_min":81,"x_max":770,"o":"m 770 770 l 770 0 l 557 0 l 557 23 q 426 -7 494 -7 q 182 106 283 -7 q 81 378 81 219 l 81 770 l 294 770 l 294 378 q 333 257 294 308 q 426 205 372 205 q 518 257 479 205 q 557 378 557 308 l 557 770 l 770 770 m 426 940 q 396 928 408 940 q 384 898 384 916 q 396 868 384 880 q 426 856 408 856 q 455 868 443 856 q 468 898 468 881 q 455 927 468 915 q 426 940 443 940 m 426 1056 q 538 1010 492 1056 q 584 898 584 964 q 538 786 584 832 q 426 740 492 740 q 314 786 360 740 q 268 898 268 832 q 314 1010 268 964 q 426 1056 360 1056 "},"Ű":{"ha":840,"x_min":64,"x_max":778,"o":"m 547 332 l 547 999 l 760 999 l 760 332 q 661 92 760 192 q 421 -7 561 -7 q 181 93 281 -7 q 81 332 81 192 l 81 999 l 294 999 l 294 332 q 332 243 294 280 q 421 205 368 205 q 510 243 473 205 q 547 332 547 280 m 64 1055 l 253 1055 l 410 1281 l 221 1281 l 64 1055 m 431 1055 l 621 1055 l 778 1281 l 589 1281 l 431 1055 "},"ű":{"ha":851,"x_min":68,"x_max":783,"o":"m 770 770 l 770 0 l 557 0 l 557 23 q 426 -7 494 -7 q 182 106 283 -7 q 81 378 81 219 l 81 770 l 294 770 l 294 378 q 333 257 294 308 q 426 205 372 205 q 518 257 479 205 q 557 378 557 308 l 557 770 l 770 770 m 68 826 l 258 826 l 415 1052 l 226 1052 l 68 826 m 436 826 l 625 826 l 783 1052 l 593 1052 l 436 826 "},"Ų":{"ha":840,"x_min":81,"x_max":760,"o":"m 547 332 l 547 999 l 760 999 l 760 332 q 661 92 760 192 q 421 -7 561 -7 q 181 93 281 -7 q 81 332 81 192 l 81 999 l 294 999 l 294 332 q 332 243 294 280 q 421 205 368 205 q 510 243 473 205 q 547 332 547 280 m 442 47 l 596 47 q 532 -5 561 23 q 495 -74 503 -34 q 494 -95 494 -85 q 507 -129 494 -113 q 554 -149 522 -145 q 592 -146 569 -151 q 633 -134 614 -142 l 633 -214 q 539 -230 599 -230 q 445 -220 481 -230 q 385 -193 409 -210 q 348 -153 360 -176 q 336 -105 336 -131 q 370 -19 336 -62 q 442 47 404 23 "},"ų":{"ha":851,"x_min":81,"x_max":781,"o":"m 770 770 l 770 0 l 557 0 l 557 23 q 426 -7 494 -7 q 182 106 283 -7 q 81 378 81 219 l 81 770 l 294 770 l 294 378 q 333 257 294 308 q 426 205 372 205 q 518 257 479 205 q 557 378 557 308 l 557 770 l 770 770 m 589 0 l 743 0 q 679 -52 708 -24 q 642 -121 650 -81 q 641 -142 641 -132 q 654 -176 641 -160 q 701 -196 669 -192 q 739 -193 716 -197 q 781 -181 762 -189 l 781 -261 q 686 -277 746 -277 q 592 -267 628 -277 q 532 -240 556 -257 q 495 -200 507 -222 q 484 -152 484 -178 q 517 -66 484 -109 q 589 0 551 -24 "},"Ŵ":{"ha":1261,"x_min":1,"x_max":1261,"o":"m 1035 999 l 1261 999 l 899 0 l 700 0 l 631 191 l 562 0 l 362 0 l 1 999 l 226 999 l 462 349 l 518 503 l 339 999 l 564 999 l 631 815 l 697 999 l 923 999 l 743 503 l 800 349 l 1035 999 m 355 1050 l 558 1050 l 631 1141 l 703 1050 l 907 1050 l 700 1300 l 561 1300 l 355 1050 "},"ŵ":{"ha":1059,"x_min":1,"x_max":1058,"o":"m 835 770 l 1058 770 l 810 0 l 608 0 l 530 245 l 451 0 l 249 0 l 1 770 l 224 770 l 350 378 l 429 623 l 631 623 l 709 378 l 835 770 m 253 821 l 456 821 l 529 912 l 602 821 l 806 821 l 598 1071 l 459 1071 l 253 821 "},"Ŷ":{"ha":838,"x_min":1,"x_max":837,"o":"m 601 999 l 837 999 l 525 354 l 525 0 l 313 0 l 313 354 l 1 999 l 237 999 l 419 622 l 601 999 m 142 1050 l 346 1050 l 418 1141 l 491 1050 l 695 1050 l 488 1300 l 349 1300 l 142 1050 "},"ŷ":{"ha":888,"x_min":43,"x_max":817,"o":"m 260 770 l 260 387 q 310 263 260 315 q 431 212 360 212 q 551 263 501 212 q 601 387 601 315 l 601 770 l 817 770 l 817 27 q 703 -249 817 -135 q 431 -364 590 -364 q 210 -294 310 -364 q 66 -111 110 -224 l 269 -35 q 333 -116 288 -85 q 431 -147 377 -147 q 551 -96 501 -147 q 601 28 601 -44 l 601 56 q 431 -5 548 -5 q 157 110 270 -5 q 43 387 43 226 l 43 770 l 260 770 m 168 821 l 372 821 l 444 912 l 517 821 l 721 821 l 513 1071 l 374 1071 l 168 821 "},"Ÿ":{"ha":838,"x_min":1,"x_max":837,"o":"m 601 999 l 837 999 l 525 354 l 525 0 l 313 0 l 313 354 l 1 999 l 237 999 l 419 622 l 601 999 m 249 1235 q 185 1208 212 1235 q 159 1145 159 1182 q 185 1080 159 1107 q 249 1054 212 1054 q 313 1080 286 1054 q 340 1145 340 1107 q 313 1208 340 1182 q 249 1235 286 1235 m 588 1235 q 524 1208 551 1235 q 498 1145 498 1182 q 524 1080 498 1107 q 588 1054 551 1054 q 652 1080 625 1054 q 679 1145 679 1107 q 652 1208 679 1182 q 588 1235 625 1235 "},"Ź":{"ha":848,"x_min":51,"x_max":797,"o":"m 51 0 l 51 137 l 490 784 l 52 784 l 52 996 l 797 996 l 797 859 l 358 212 l 795 212 l 795 0 l 51 0 m 309 1055 l 498 1055 l 655 1281 l 466 1281 l 309 1055 "},"ź":{"ha":755,"x_min":34,"x_max":721,"o":"m 696 770 l 696 595 l 370 212 l 721 212 l 721 0 l 59 0 l 59 175 l 385 557 l 34 557 l 34 770 l 696 770 m 262 826 l 451 826 l 608 1052 l 419 1052 l 262 826 "},"Ż":{"ha":848,"x_min":51,"x_max":797,"o":"m 51 0 l 51 137 l 490 784 l 52 784 l 52 996 l 797 996 l 797 859 l 358 212 l 795 212 l 795 0 l 51 0 m 424 1273 q 353 1244 382 1273 q 324 1173 324 1215 q 353 1103 324 1132 q 424 1074 382 1074 q 495 1103 466 1074 q 524 1173 524 1133 q 495 1243 524 1214 q 424 1273 466 1273 "},"ż":{"ha":755,"x_min":34,"x_max":721,"o":"m 696 770 l 696 595 l 370 212 l 721 212 l 721 0 l 59 0 l 59 175 l 385 557 l 34 557 l 34 770 l 696 770 m 378 1044 q 307 1015 336 1044 q 278 944 278 985 q 307 873 278 903 q 378 844 336 844 q 449 874 420 844 q 477 944 477 903 q 449 1014 477 985 q 378 1044 420 1044 "},"Ž":{"ha":848,"x_min":51,"x_max":797,"o":"m 51 0 l 51 137 l 490 784 l 52 784 l 52 996 l 797 996 l 797 859 l 358 212 l 795 212 l 795 0 l 51 0 m 351 1300 l 148 1300 l 354 1050 l 493 1050 l 701 1300 l 496 1300 l 424 1208 l 351 1300 "},"ž":{"ha":755,"x_min":34,"x_max":721,"o":"m 696 770 l 696 595 l 370 212 l 721 212 l 721 0 l 59 0 l 59 175 l 385 557 l 34 557 l 34 770 l 696 770 m 304 1071 l 101 1071 l 307 821 l 446 821 l 654 1071 l 450 1071 l 377 979 l 304 1071 "},"ſ":{"ha":429,"x_min":97,"x_max":443,"o":"m 97 697 l 97 -1 l 280 -1 l 280 696 q 296 760 280 728 q 443 819 324 810 l 443 1000 q 134 845 197 989 q 97 697 97 773 "},"⁰":{"ha":566,"x_min":34,"x_max":532,"o":"m 283 1004 q 107 931 180 1004 q 34 755 34 858 l 34 532 q 107 357 34 429 q 283 283 180 283 q 458 357 386 283 q 532 532 532 429 l 532 755 q 458 931 532 858 q 283 1004 386 1004 m 429 755 l 429 532 q 386 429 429 471 q 283 387 344 387 q 180 429 222 387 q 137 532 137 471 l 137 755 q 180 858 137 816 q 283 901 222 901 q 386 858 344 901 q 429 755 429 816 "},"ⁱ":{"ha":187,"x_min":34,"x_max":153,"o":"m 43 825 l 43 283 l 146 283 l 146 825 l 43 825 m 94 1003 q 52 985 69 1003 q 34 943 34 968 q 52 901 34 919 q 94 884 69 884 q 136 901 119 884 q 153 943 153 919 q 136 985 153 968 q 94 1003 119 1003 "},"⁴":{"ha":578,"x_min":34,"x_max":545,"o":"m 464 529 l 464 1003 l 373 1004 l 34 503 l 34 426 l 361 426 l 361 283 l 464 283 l 464 426 l 545 426 l 545 529 l 464 529 m 360 529 l 168 529 l 360 816 l 360 529 "},"⁵":{"ha":536,"x_min":34,"x_max":503,"o":"m 257 775 q 186 766 208 775 l 205 901 l 421 901 l 421 1004 l 115 1004 l 66 665 l 149 623 q 257 672 197 672 q 358 630 316 672 q 399 529 399 589 q 358 428 399 470 q 257 387 316 387 q 183 406 218 387 q 125 473 150 426 l 34 424 q 131 318 73 353 q 257 283 189 283 q 431 355 358 283 q 503 529 503 428 q 431 703 503 631 q 257 775 358 775 "},"⁶":{"ha":559,"x_min":34,"x_max":526,"o":"m 280 382 q 179 423 220 382 q 137 524 137 465 q 153 589 137 559 l 164 608 q 280 667 207 667 q 381 625 339 667 q 422 524 422 584 q 381 423 422 465 q 280 382 339 382 m 407 1004 l 286 1004 l 78 665 q 62 640 70 653 l 57 630 l 57 629 q 34 524 34 581 q 106 351 34 423 q 280 279 178 279 q 454 351 381 279 q 526 524 526 423 q 454 699 526 626 q 280 770 381 770 q 264 772 258 770 l 407 1004 "},"⁷":{"ha":558,"x_min":34,"x_max":524,"o":"m 90 283 l 205 283 l 524 913 l 524 1004 l 34 1004 l 34 901 l 399 901 l 90 283 "},"⁸":{"ha":525,"x_min":34,"x_max":491,"o":"m 401 690 q 454 823 454 736 q 397 958 454 902 q 262 1014 342 1014 q 127 958 184 1014 q 72 823 72 902 q 124 690 72 736 q 34 508 34 633 q 101 347 34 414 q 262 279 168 279 q 424 347 357 279 q 491 508 491 414 q 401 690 491 633 m 176 823 q 201 884 176 859 q 262 909 227 909 q 323 884 299 909 q 349 823 349 859 q 324 762 349 788 q 264 736 299 737 l 260 736 q 201 762 226 737 q 176 823 176 788 m 262 385 q 175 420 212 385 q 138 508 138 456 q 174 595 138 559 q 260 632 210 631 l 264 632 q 351 595 315 631 q 387 508 387 559 q 351 420 387 456 q 262 385 314 385 "},"⁹":{"ha":559,"x_min":34,"x_max":526,"o":"m 280 622 q 179 664 220 622 q 137 765 137 705 q 179 866 137 824 q 280 907 220 907 q 381 866 339 907 q 422 765 422 824 q 407 700 422 730 l 396 681 q 280 622 353 622 m 153 286 l 274 286 l 481 624 q 497 650 490 636 l 507 665 l 505 666 q 526 765 526 708 q 454 939 526 866 q 280 1010 381 1010 q 106 939 178 1010 q 34 765 34 866 q 106 591 34 663 q 280 519 178 519 q 295 517 303 519 l 153 286 "},"⁺":{"ha":611,"x_min":34,"x_max":577,"o":"m 357 530 l 357 750 l 254 750 l 254 530 l 34 530 l 34 427 l 254 427 l 254 208 l 357 208 l 357 427 l 577 427 l 577 530 l 357 530 "},"⁻":{"ha":469,"x_min":34,"x_max":435,"o":"m 34 452 l 34 349 l 435 349 l 435 452 l 34 452 "},"⁼":{"ha":469,"x_min":34,"x_max":435,"o":"m 34 397 l 34 294 l 435 294 l 435 397 l 34 397 m 34 587 l 34 484 l 435 484 l 435 587 l 34 587 "},"⁽":{"ha":319,"x_min":34,"x_max":286,"o":"m 286 93 l 286 203 q 178 353 217 267 q 137 554 137 454 q 178 755 137 653 q 286 905 217 842 l 286 1015 l 233 978 q 87 798 141 911 q 34 554 34 683 q 87 311 34 425 q 233 130 141 196 l 286 93 "},"⁾":{"ha":319,"x_min":34,"x_max":286,"o":"m 34 203 l 34 93 l 86 130 q 232 311 178 196 q 286 554 286 425 q 232 798 286 683 q 86 978 178 911 l 34 1015 l 34 905 q 142 755 102 842 q 182 554 182 653 q 142 353 182 454 q 34 203 102 267 "},"₀":{"ha":566,"x_min":34,"x_max":532,"o":"m 283 360 q 107 288 180 360 q 34 112 34 214 l 34 -111 q 107 -287 34 -214 q 283 -360 180 -360 q 458 -287 386 -360 q 532 -111 532 -214 l 532 112 q 458 288 532 214 q 283 360 386 360 m 429 112 l 429 -111 q 386 -214 429 -172 q 283 -257 344 -257 q 180 -214 222 -257 q 137 -111 137 -172 l 137 112 q 180 214 137 172 q 283 257 222 257 q 386 214 344 257 q 429 112 429 172 "},"₁":{"ha":293,"x_min":34,"x_max":259,"o":"m 34 131 l 123 79 l 156 136 l 156 -360 l 259 -360 l 259 359 l 167 360 l 34 131 "},"₂":{"ha":537,"x_min":34,"x_max":503,"o":"m 503 126 q 434 292 503 223 q 269 360 366 360 q 102 292 172 360 q 34 113 34 223 l 137 113 q 176 219 137 180 q 269 257 214 257 q 361 219 323 257 q 400 126 400 180 q 347 20 400 71 l 46 -276 l 46 -360 l 485 -360 l 485 -257 l 212 -257 l 419 -53 q 503 126 503 27 "},"₃":{"ha":515,"x_min":34,"x_max":481,"o":"m 393 43 q 444 173 444 87 q 389 305 444 250 q 256 360 334 360 q 157 332 202 360 q 87 254 111 302 l 64 208 l 157 163 l 180 209 q 256 257 203 257 q 316 233 292 257 q 340 173 340 208 q 319 116 340 141 q 267 89 298 92 l 204 89 l 204 -14 l 269 -14 q 345 -54 313 -18 q 378 -136 378 -88 q 342 -222 378 -186 q 256 -257 307 -257 q 149 -194 184 -257 l 125 -149 l 34 -197 l 59 -243 q 141 -329 88 -296 q 256 -360 195 -360 q 414 -294 349 -360 q 481 -136 481 -229 q 393 43 481 -14 "},"₄":{"ha":578,"x_min":34,"x_max":545,"o":"m 464 -115 l 464 359 l 373 360 l 34 -140 l 34 -218 l 361 -218 l 361 -360 l 464 -360 l 464 -218 l 545 -218 l 545 -115 l 464 -115 m 360 -115 l 168 -115 l 360 172 l 360 -115 "},"₅":{"ha":536,"x_min":34,"x_max":503,"o":"m 257 132 q 186 122 208 132 l 205 257 l 421 257 l 421 360 l 115 360 l 66 21 l 149 -20 q 257 28 197 28 q 358 -14 316 28 q 399 -115 399 -55 q 358 -216 399 -174 q 257 -257 316 -257 q 183 -237 218 -257 q 125 -171 150 -218 l 34 -220 q 131 -326 73 -291 q 257 -360 189 -360 q 431 -288 358 -360 q 503 -115 503 -216 q 431 60 503 -13 q 257 132 358 132 "},"₆":{"ha":559,"x_min":34,"x_max":526,"o":"m 280 -259 q 179 -218 220 -259 q 137 -117 137 -176 q 153 -52 137 -82 l 164 -33 q 280 26 207 26 q 381 -16 339 26 q 422 -117 422 -57 q 381 -218 422 -176 q 280 -259 339 -259 m 407 363 l 286 363 l 78 24 q 62 -1 70 12 l 57 -11 l 57 -12 q 34 -117 34 -60 q 106 -290 34 -218 q 280 -362 178 -362 q 454 -290 381 -362 q 526 -117 526 -218 q 454 58 526 -15 q 280 130 381 130 q 264 131 258 130 l 407 363 "},"₇":{"ha":558,"x_min":34,"x_max":524,"o":"m 90 -360 l 205 -360 l 524 270 l 524 360 l 34 360 l 34 257 l 399 257 l 90 -360 "},"₈":{"ha":525,"x_min":34,"x_max":491,"o":"m 401 44 q 454 176 454 90 q 397 311 454 256 q 262 368 342 368 q 127 311 184 368 q 72 176 72 256 q 124 44 72 90 q 34 -138 34 -14 q 101 -300 34 -233 q 262 -367 168 -367 q 424 -300 357 -367 q 491 -138 491 -233 q 401 44 491 -14 m 176 176 q 201 238 176 212 q 262 262 227 262 q 323 238 299 262 q 349 176 349 212 q 324 116 349 142 q 264 90 299 91 l 260 90 q 201 116 226 91 q 176 176 176 142 m 262 -262 q 175 -226 212 -262 q 138 -138 138 -190 q 174 -52 138 -87 q 260 -14 210 -15 l 264 -14 q 351 -52 315 -15 q 387 -138 387 -87 q 351 -226 387 -190 q 262 -262 314 -262 "},"₉":{"ha":559,"x_min":34,"x_max":526,"o":"m 280 -26 q 179 16 220 -26 q 137 117 137 58 q 179 218 137 176 q 280 260 220 260 q 381 218 339 260 q 422 117 422 176 q 407 52 422 83 l 396 33 q 280 -26 353 -26 m 153 -362 l 274 -362 l 481 -24 q 497 2 490 -12 l 507 17 l 505 18 q 526 117 526 60 q 454 291 526 218 q 280 363 381 363 q 106 291 178 363 q 34 117 34 218 q 106 -56 34 16 q 280 -129 178 -129 q 295 -130 303 -129 l 153 -362 "},"₊":{"ha":611,"x_min":34,"x_max":577,"o":"m 357 52 l 357 271 l 254 271 l 254 52 l 34 52 l 34 -52 l 254 -52 l 254 -271 l 357 -271 l 357 -52 l 577 -52 l 577 52 l 357 52 "},"₋":{"ha":469,"x_min":34,"x_max":435,"o":"m 34 52 l 34 -52 l 435 -52 l 435 52 l 34 52 "},"₌":{"ha":469,"x_min":34,"x_max":435,"o":"m 34 -43 l 34 -146 l 435 -146 l 435 -43 l 34 -43 m 34 146 l 34 43 l 435 43 l 435 146 l 34 146 "},"₍":{"ha":319,"x_min":34,"x_max":286,"o":"m 286 -278 l 286 -168 q 178 -18 217 -104 q 137 183 137 83 q 178 384 137 282 q 286 534 217 471 l 286 644 l 233 607 q 87 427 141 541 q 34 183 34 312 q 87 -60 34 54 q 233 -241 141 -175 l 286 -278 "},"₎":{"ha":319,"x_min":34,"x_max":286,"o":"m 34 -168 l 34 -278 l 86 -241 q 232 -60 178 -175 q 286 183 286 54 q 232 427 286 312 q 86 607 178 541 l 34 644 l 34 534 q 142 384 102 471 q 182 183 182 282 q 142 -18 182 83 q 34 -168 102 -104 "},"₺":{"ha":823,"x_min":34,"x_max":789,"o":"m 34 656 l 66 565 l 235 625 l 235 549 l 34 475 l 66 383 l 235 445 l 235 -20 l 286 -19 q 640 115 498 -12 q 789 455 789 248 l 789 507 l 691 506 l 691 457 q 589 202 691 304 q 338 83 492 104 l 333 83 l 333 480 l 673 604 l 639 695 l 333 584 l 333 661 l 673 785 l 639 876 l 333 765 l 333 993 l 235 993 l 235 730 l 34 656 "}}}
